<svg xmlns="http://www.w3.org/2000/svg" xmlns:xlink="http://www.w3.org/1999/xlink" width="635" height="450.001" viewBox="0 0 635 450.001">
  <defs>
    <clipPath id="clip-path">
      <rect id="Rectángulo_43904" data-name="Rectángulo 43904" width="319" height="450" transform="translate(966.333 83.595)" fill="#fff" stroke="#707070" stroke-width="1"/>
    </clipPath>
    <clipPath id="clip-path-2">
      <rect id="Rectángulo_43903" data-name="Rectángulo 43903" width="269.379" height="480.251" fill="none"/>
    </clipPath>
    <clipPath id="clip-path-3">
      <rect id="Rectángulo_43906" data-name="Rectángulo 43906" width="65.945" height="30.043" fill="#eaad9b"/>
    </clipPath>
  </defs>
  <g id="Grupo_144996" data-name="Grupo 144996" transform="translate(-825.333 -127)">
    <path id="Unión_1" data-name="Unión 1" d="M13112.333,12026v-207h.037a122.832,122.832,0,0,1,2.44-21.587,121.3,121.3,0,0,1,18.358-43.623,122.377,122.377,0,0,1,53.68-44.2,121.24,121.24,0,0,1,22.9-7.105,123.1,123.1,0,0,1,49.174,0,121.245,121.245,0,0,1,43.626,18.355,122.4,122.4,0,0,1,44.2,53.675,121.671,121.671,0,0,1,9.55,44.488h.033v2.11c0,.3,0,.593,0,.89h0v204Z" transform="translate(-12014.53 -11449)" fill="#342f22"/>
    <g id="Enmascarar_grupo_143926" data-name="Enmascarar grupo 143926" transform="translate(31 43.405)" clip-path="url(#clip-path)">
      <g id="Grupo_144987" data-name="Grupo 144987" transform="translate(1008.285 90.381)">
        <g id="Grupo_144986" data-name="Grupo 144986" clip-path="url(#clip-path-2)">
          <path id="Trazado_192854" data-name="Trazado 192854" d="M368.767,438.614v.488c2.273-.885,4.4-1.651,6.325-2.276-.167-.474-.318-.928-.488-1.407q-2.71,1.551-5.837,3.195" transform="translate(-123.313 -145.601)" fill="#b9c9e9"/>
          <path id="Trazado_192855" data-name="Trazado 192855" d="M382.131,532.056c7-9.662,10.9-30.279-2.549-74.06a88.7,88.7,0,0,1-10.815,6.685v75.674a20.043,20.043,0,0,0,13.364-8.3" transform="translate(-123.313 -153.15)" fill="#342f22"/>
          <path id="Trazado_192856" data-name="Trazado 192856" d="M370.906,420.389c-.668.527-1.37,1.066-2.139,1.63v2.9c1.16-.459,2.287-.893,3.37-1.293-.4-1.061-.818-2.155-1.231-3.236" transform="translate(-123.313 -140.575)" fill="#b9c9e9"/>
          <path id="Trazado_192857" data-name="Trazado 192857" d="M368.767,412.11v.186l.064-.024c-.021-.055-.042-.109-.064-.162" transform="translate(-123.313 -137.806)" fill="#b9c9e9"/>
          <path id="Trazado_192859" data-name="Trazado 192859" d="M368.767,451.63v.31a66.76,66.76,0,0,1,9.262-2.606c-.268-.825-.544-1.663-.823-2.5-2.426,1.509-5.276,3.135-8.439,4.8" transform="translate(-123.313 -149.417)" fill="#b9c9e9"/>
          <path id="Trazado_192861" data-name="Trazado 192861" d="M187.785,381.187l.136-.025c.01-.066-.025-.128,0-.193l40.637-95.728a.806.806,0,0,1,1.483.63L189.407,381.6l11.381,4.831,50.5,21.439v0a.805.805,0,0,1,1.056-.428l9.455,4.018,7.8-16.389,14.265-33.607c2.745-1.219,5.38-2.325,7.859-3.305v-2.9c-2.109,1.548-4.593,3.229-7.333,4.965L289,349.356q1.44-.59,2.719-1.053v-.186c-.351-.889-.7-1.771-1.058-2.674l2.368-5.577.631-1.486A79.764,79.764,0,0,0,289.187,267c-4.006-9.852-12.622-18.8-24.6-26.2a80.243,80.243,0,0,0-13.241-7.168l-.08.188a163.79,163.79,0,0,0-40.977-11.633,123.377,123.377,0,0,0-7.81,18.291c-3.646-6.166.386-12.134,1.826-19.128q-2.721-.338-5.489-.61v3.6a21.411,21.411,0,1,1-42.823,0v-3.5c-1.608.165-3.2.353-4.784.554,1.449,6.974,5.457,12.931,1.818,19.084a123.308,123.308,0,0,0-7.784-18.241c-2.321.365-4.617.763-6.874,1.2.007.036.031.065.037.1.214,1.451,13.573,89.2,49.381,157.649" transform="translate(-46.269 -73.813)" fill="#ffddae"/>
          <path id="Trazado_192862" data-name="Trazado 192862" d="M164.846,191.893v22.8a21.412,21.412,0,1,0,42.823,0v-7.607c-32.279,17.614-42.823-15.2-42.823-15.2" transform="translate(-55.123 -64.168)" fill="#a76b4a"/>
          <path id="Trazado_192863" data-name="Trazado 192863" d="M186.785,195.088c-8.353,0-16-4.346-21.939-11.542V189.1s10.544,32.809,42.823,15.2V184.731c-5.779,6.468-13.011,10.357-20.884,10.357" transform="translate(-55.123 -61.376)" fill="#6f3217"/>
          <path id="Trazado_192864" data-name="Trazado 192864" d="M133.093,138.286c-1.933-5.569-1.345-10.826,1.309-11.747,1.432-.5,3.167.4,4.772,2.181a50.582,50.582,0,0,1,.449-5.248c-2.294-1.7-4.73-2.427-6.888-1.679-4.808,1.667-6.393,9.688-3.539,17.918,2.48,7.153,7.491,12.1,11.918,12.177-.315-1.638-.6-3.337-.844-5.076-2.5-.249-5.507-3.705-7.176-8.526" transform="translate(-42.727 -40.628)" fill="#a76b4a"/>
          <path id="Trazado_192865" data-name="Trazado 192865" d="M254.333,126.537c2.654.921,3.242,6.178,1.313,11.747-1.753,5.061-4.973,8.592-7.539,8.512-.247,1.733-.528,3.427-.841,5.061,4.51.2,9.729-4.8,12.274-12.147,2.853-8.23,1.273-16.25-3.535-17.918-2.26-.783-4.828.025-7.215,1.911a53.069,53.069,0,0,1,.421,5.429c1.7-2.053,3.585-3.127,5.123-2.593" transform="translate(-82.684 -40.627)" fill="#a76b4a"/>
          <path id="Trazado_192866" data-name="Trazado 192866" d="M184.436,151.324c7.873,0,15.1-3.889,20.884-10.357a42.153,42.153,0,0,0,2.962-3.692c1.45-5.915,3.718-11.675,1.446-18.619-3.082-9.418-1.072-18.429.162-22.432-9.1-6.02-22.512-18.876-25.493-43.555-3.007,24.9-16.624,37.759-25.73,43.71,1.236,4.074,3.162,12.973.117,22.278-2.169,6.629-.2,12.181,1.245,17.818.786,1.158,1.607,2.264,2.468,3.308,5.939,7.2,13.586,11.542,21.939,11.542m14.416-57.272c.935,0,1.693,1.5,1.693,3.365s-.758,3.368-1.693,3.368-1.693-1.508-1.693-3.368.758-3.365,1.693-3.365m-3.781,8.383a.8.8,0,0,1,1.008.526c.061.177,1.334,3.894,6.374,4.275a.806.806,0,0,1-.062,1.609l-.062,0c-6.171-.468-7.722-5.2-7.784-5.4a.8.8,0,0,1,.526-1.011M181.959,101a2.689,2.689,0,0,1,5.08-.45c1.914,5.015-.507,16.472-4.47,16.8-4.329.359-1.878-11.287-.61-16.352m-6.932,22.8a30.647,30.647,0,0,0,4.746,1.178l.075.011.589.061q.521.049,1.048.077c.812.047,1.631.058,2.447.033s1.627-.091,2.44-.174l.128-.012.186-.039c.457-.091.918-.163,1.374-.261a28.837,28.837,0,0,0,4.667-1.454c2.092-.848,4.347.932,4.956,2.814.725,2.237-.867,4.17-2.814,4.957a32.107,32.107,0,0,1-21.986.584,4.127,4.127,0,0,1-2.814-4.956,4.058,4.058,0,0,1,4.956-2.818m-6.221-29.749c.935,0,1.693,1.5,1.693,3.365s-.758,3.368-1.693,3.368-1.693-1.508-1.693-3.368.758-3.365,1.693-3.365m-3.6,13.183c5.051-.385,6.32-4.119,6.37-4.279a.818.818,0,0,1,1.016-.519.8.8,0,0,1,.522,1.008c-.061.2-1.617,4.927-7.788,5.4l-.062,0a.806.806,0,0,1-.058-1.609" transform="translate(-52.774 -17.612)" fill="#a76b4a"/>
          <path id="Trazado_192867" data-name="Trazado 192867" d="M193.768,140.6c3.963-.329,6.384-11.787,4.47-16.8a2.688,2.688,0,0,0-5.079.449c-1.269,5.065-3.72,16.711.609,16.352" transform="translate(-63.973 -40.854)" fill="#6e3014"/>
          <path id="Trazado_192868" data-name="Trazado 192868" d="M173.473,121.576c.936,0,1.693-1.508,1.693-3.368s-.757-3.365-1.693-3.365-1.693,1.5-1.693,3.365.758,3.368,1.693,3.368" transform="translate(-57.442 -38.403)" fill="#1f0f0b"/>
          <path id="Trazado_192869" data-name="Trazado 192869" d="M218.614,121.576c.936,0,1.693-1.508,1.693-3.368s-.757-3.365-1.693-3.365-1.693,1.5-1.693,3.365.758,3.368,1.693,3.368" transform="translate(-72.537 -38.403)" fill="#1f0f0b"/>
          <path id="Trazado_192870" data-name="Trazado 192870" d="M176.167,161.954a4.127,4.127,0,0,0,2.814,4.956,32.1,32.1,0,0,0,21.986-.584c1.948-.787,3.539-2.719,2.814-4.957-.61-1.881-2.865-3.662-4.957-2.814a28.827,28.827,0,0,1-4.666,1.454c-.457.1-.918.17-1.374.261-.091.018-.142.029-.186.039l-.129.011c-.812.084-1.624.152-2.44.174s-1.635.015-2.447-.033c-.352-.018-.7-.043-1.048-.076l-.589-.062-.075-.011a30.634,30.634,0,0,1-4.746-1.178,4.058,4.058,0,0,0-4.956,2.818m3.361.718c.113.029,11.243,2.766,20.075-1.211a.806.806,0,0,1,.664,1.468,29.565,29.565,0,0,1-12.045,2.32,40.432,40.432,0,0,1-9.089-1.012.808.808,0,0,1,.395-1.566" transform="translate(-58.87 -52.947)" fill="#6f3217"/>
          <path id="Trazado_192871" data-name="Trazado 192871" d="M180.375,165.77a40.5,40.5,0,0,0,9.09,1.011,29.567,29.567,0,0,0,12.045-2.32.806.806,0,0,0-.664-1.468c-8.832,3.978-19.964,1.24-20.076,1.211a.808.808,0,0,0-.395,1.566" transform="translate(-60.113 -54.48)" fill="#1f0f0b"/>
          <path id="Trazado_192872" data-name="Trazado 192872" d="M168.6,133.83l.062,0c6.171-.468,7.726-5.2,7.788-5.4a.8.8,0,0,0-.522-1.008.818.818,0,0,0-1.016.519c-.05.16-1.319,3.894-6.37,4.279a.806.806,0,0,0,.058,1.609" transform="translate(-56.109 -42.597)" fill="#1f0f0b"/>
          <path id="Trazado_192873" data-name="Trazado 192873" d="M220.759,133.824l.062,0a.806.806,0,0,0,.061-1.609c-5.039-.381-6.312-4.1-6.374-4.275a.8.8,0,1,0-1.534.485c.062.2,1.613,4.927,7.784,5.4" transform="translate(-71.205 -42.595)" fill="#1f0f0b"/>
          <path id="Trazado_192874" data-name="Trazado 192874" d="M176.416,34.825c17.211,0,31.5,14.5,34.5,33.607.005.036.015.069.02.106,5.453-6.313,10.391-15.562,4.689-21.748C190.8,19.887,197.669,0,175.857,0s-15.1,21.958-39.237,46.789c-6.251,6.436-1.3,16.036,5.082,22.647.025.026.049.054.074.079,2.618-19.643,17.109-34.69,34.64-34.69" transform="translate(-44.721)" fill="#d5b78e"/>
          <path id="Trazado_192875" data-name="Trazado 192875" d="M365.768,455.073c.676-.251,1.345-.494,2-.721v-.311c-.651.343-1.321.688-2,1.032" transform="translate(-122.31 -151.828)" fill="#ffddae"/>
          <path id="Trazado_192876" data-name="Trazado 192876" d="M331.581,543.894l.214.011a16.268,16.268,0,0,0,3.619-.193V468.039c-2.39,1.285-4.973,2.592-7.708,3.878-4.523,2.127-8.835,3.908-12.617,5.266a.8.8,0,0,1-.03.618l-8.441,17.74-.729.46-.316-.065-10.17-4.315c-.026-.011-.031-.043-.055-.056a55.554,55.554,0,0,1-26.327,24.876c17.394,16.785,37.85,27.455,61.79,27.455Z" transform="translate(-89.959 -156.509)" fill="#ffddae"/>
          <path id="Trazado_192877" data-name="Trazado 192877" d="M361.341,442.728c1.707-.73,3.359-1.4,4.943-2.021v-.488c-1.58.828-3.234,1.667-4.943,2.509" transform="translate(-120.83 -147.206)" fill="#ffddae"/>
          <path id="Trazado_192878" data-name="Trazado 192878" d="M26.853,439.88v.548c1.707.659,3.5,1.387,5.353,2.179q-2.791-1.375-5.353-2.728" transform="translate(-8.979 -147.093)" fill="#ffddae"/>
          <path id="Trazado_192879" data-name="Trazado 192879" d="M26.853,453.7v.393c.789.271,1.592.557,2.419.864q-1.238-.631-2.419-1.257" transform="translate(-8.979 -151.714)" fill="#ffddae"/>
          <path id="Trazado_192880" data-name="Trazado 192880" d="M250.518,548.078h-.67a81.527,81.527,0,0,1-17.4-1.876c-5.032,8.238-27.2,40.705-63.052,39.825l-.026.023c-.288-.007-.591-.055-.879-.067-1.434-.057-2.884-.162-4.36-.33-.548-.063-1.1-.142-1.655-.22q-2.086-.294-4.228-.749c-.355-.075-.693-.1-1.049-.186l.043-.033a79.111,79.111,0,0,1-20.485-7.985l-.033.019c-1.389-.761-2.785-1.559-4.2-2.421-1.47-.9-2.871-1.876-4.241-2.883l0,0c-16.132-11.869-25.452-31.008-30.325-53.132A55.61,55.61,0,0,1,67.177,491.1c-.046.033-.061.094-.115.116l-10.855,4.609-.316.065-.3-.058-.439-.431-7.534-17.744a.787.787,0,0,1,0-.582c-3.783-1.359-8.1-3.142-12.624-5.27-2.9-1.363-5.629-2.75-8.136-4.11V613.156c0,6.058,11.112,11.578,29.351,15.743,18.413,4.205,44.092,7.029,72.954,7.626h.022q5.653.117,11.46.118t11.465-.118h.018c28.861-.6,54.54-3.42,72.954-7.625,18.242-4.165,29.355-9.686,29.355-15.744V547.911a23.892,23.892,0,0,1-2.8.2c-.532,0-.917-.022-1.113-.037" transform="translate(-8.98 -156.392)" fill="#ffddae"/>
          <path id="Trazado_192881" data-name="Trazado 192881" d="M320.461,456.379c13.446,43.781,9.553,64.4,2.549,74.059a20.042,20.042,0,0,1-13.364,8.3,16.285,16.285,0,0,1-3.618.192l-.214-.011-.768,0c-23.94,0-44.4-10.67-61.79-27.454-.3.134-.584.285-.883.415,1.451,1.313,2.913,2.658,4.332,3.853-19.694,32.062-41.374,48.27-54.74,55.885a79.107,79.107,0,0,0,20.485,7.985c13.363-9.9,30.758-26.874,46.144-54.838,2.538,1.733,4.979,3.274,7.292,4.637-13.511,24.54-28.456,40.97-41.281,51.763,35.85.88,58.02-31.587,63.052-39.825a81.531,81.531,0,0,0,17.405,1.876h.67c.2.015.58.036,1.113.036a23.877,23.877,0,0,0,2.8-.2,24.129,24.129,0,0,0,16.776-10c7.708-10.543,12.153-32.842-2.513-79.89a16.208,16.208,0,0,1-3.448,3.219" transform="translate(-64.191 -151.533)" fill="#eebc80"/>
          <path id="Trazado_192882" data-name="Trazado 192882" d="M373.212,422.128q2.137-.792,4.036-1.418-.879-2.364-1.812-4.8a42.808,42.808,0,0,1-3.454,2.979c.413,1.082.835,2.175,1.231,3.236" transform="translate(-124.388 -139.078)" fill="#eebc80"/>
          <path id="Trazado_192883" data-name="Trazado 192883" d="M378.024,435.712q2.251-.732,4.1-1.2-.419-1.2-.854-2.424c-1.154.713-2.4,1.454-3.736,2.216.169.478.321.933.487,1.406" transform="translate(-126.245 -144.487)" fill="#eebc80"/>
          <path id="Trazado_192884" data-name="Trazado 192884" d="M382.268,448.109a12.988,12.988,0,0,1,4.374-.28c-.489-1.534-.982-3.076-1.512-4.661-1.075.765-2.31,1.582-3.684,2.438.279.841.555,1.678.823,2.5" transform="translate(-127.552 -148.192)" fill="#eebc80"/>
          <path id="Trazado_192885" data-name="Trazado 192885" d="M368.235,407.965c.022.053.043.108.064.162a35.086,35.086,0,0,1,4.117-1.253q-1.379-3.509-2.871-7.161l-2.368,5.577c.361.9.708,1.785,1.058,2.674" transform="translate(-122.781 -133.661)" fill="#eebc80"/>
          <path id="Trazado_192886" data-name="Trazado 192886" d="M136.071,312.535l9.1,21.435c4.352-1.409,8.887-3.068,13.594-5.029q1.376,4.22,2.814,8.259c-4.5,1.874-8.807,3.425-13,4.81l6.407,15.1c3.938-1.538,7.987-3.26,12.168-5.242q1.675,4.089,3.394,7.983c-4.168,1.983-8.216,3.727-12.154,5.285l6.929,16.324c0,.009,0,.019,0,.028l10.69,1.942,9.639-1.752c-35.808-68.446-49.167-156.2-49.381-157.648-.005-.037-.029-.066-.036-.1a2.118,2.118,0,0,0-2.4-1.711,2.149,2.149,0,0,0-1.812,2.437c0,.012.013.087.022.145.262,1.728,3.661,23.785,11.26,53.8-1.658,6.626-4.49,18.7-7.233,33.943" transform="translate(-44.139 -74.298)" fill="#eebc80"/>
          <path id="Trazado_192887" data-name="Trazado 192887" d="M169.115,543.238a55.539,55.539,0,0,1-35.448-.785c4.874,22.124,14.194,41.263,30.325,53.131,11.059-5.664,33.619-20.348,54.276-52.7a55.531,55.531,0,0,1-34.236.349l-.2.485-7.259-3.085-7.258,3.085Z" transform="translate(-44.697 -180.786)" fill="#eebc80"/>
          <path id="Trazado_192890" data-name="Trazado 192890" d="M87.435,501.105a55.9,55.9,0,0,0,66.219,27.749l.2.485,7.258-3.084L93.741,497.623l-5.993,2.544a.776.776,0,0,1-.313.939" transform="translate(-29.238 -166.401)" fill="#905635"/>
          <path id="Trazado_192891" data-name="Trazado 192891" d="M208.648,462.689l-.315-.065a.773.773,0,0,1-.427-.866l-.136.025-9.638,1.752,22.4,4.07.24-.578L209.391,462.2Z" transform="translate(-66.254 -154.408)" fill="#905635"/>
          <path id="Trazado_192892" data-name="Trazado 192892" d="M365.083,411.6q-1.279.464-2.719,1.053l-4.614,10.867c2.739-1.736,5.224-3.417,7.333-4.965.769-.564,1.471-1.1,2.139-1.63a42.682,42.682,0,0,0,3.454-2.979c1.629-1.605,2.389-2.818,2.031-3.451-.324-.576-1.559-.594-3.444-.17a35.077,35.077,0,0,0-4.117,1.253l-.064.024" transform="translate(-119.629 -137.112)" fill="#a76b4a"/>
          <path id="Trazado_192893" data-name="Trazado 192893" d="M357.652,424.743c-2.479.98-5.114,2.087-7.859,3.305l-14.265,33.608.312-.656a.815.815,0,0,1,1.077-.381.8.8,0,0,1,.411.455c3.781-1.359,8.093-3.14,12.616-5.266,2.736-1.287,5.32-2.594,7.708-3.879a88.543,88.543,0,0,0,10.815-6.685,16.176,16.176,0,0,0,3.448-3.219c.4-.579.559-1.065.4-1.413a1.333,1.333,0,0,0-1.024-.576,12.984,12.984,0,0,0-4.373.28,66.571,66.571,0,0,0-9.262,2.606c-.651.227-1.32.47-2,.721.676-.344,1.345-.689,2-1.031,3.164-1.664,6.013-3.29,8.439-4.8,1.374-.856,2.609-1.673,3.684-2.437,3.327-2.366,5.121-4.229,4.693-5.139-.408-.867-2.771-.728-6.389.189q-1.848.468-4.1,1.2c-1.926.625-4.052,1.39-6.325,2.276-1.584.617-3.236,1.291-4.943,2.021,1.709-.843,3.363-1.681,4.943-2.509q3.125-1.638,5.837-3.195c1.331-.762,2.583-1.5,3.736-2.216,5.8-3.587,9.213-6.453,8.671-7.609-.529-1.122-4.683-.4-10.839,1.639q-1.9.63-4.036,1.418c-1.083.4-2.21.833-3.37,1.293" transform="translate(-112.198 -140.4)" fill="#a76b4a"/>
          <path id="Trazado_192894" data-name="Trazado 192894" d="M77.754,494.754a.8.8,0,0,1,1.055.428l5.993-2.545-21.13-8.98c-.931-.274-1.927-.592-2.969-.944l6.935,16.333Z" transform="translate(-20.299 -161.416)" fill="#ffddae"/>
          <path id="Trazado_192895" data-name="Trazado 192895" d="M57.668,368.482C54.456,359,53.452,351.045,55.5,350.3c2.2-.8,7.037,6.94,10.808,17.291.586,1.61,1.089,3.166,1.55,4.687l56,10.176L83.628,287.666a.806.806,0,0,1,1.483-.631l11.38,26.809c2.744-15.239,5.576-27.317,7.233-33.943-7.6-30.014-11-52.07-11.26-53.8A154.515,154.515,0,0,0,62.485,235.8l-.158-.372a79.854,79.854,0,0,0-18.8,11.247c-7.623,5.624-13.44,11.969-17.011,18.806a79.8,79.8,0,0,0-6.511,74.7l2.426,5.714v4.052a139.835,139.835,0,0,1,20.188,9.638c5.612,3.168,10.845,6.231,15.045,8.9" transform="translate(-4.56 -75.607)" fill="#ffddae"/>
          <path id="Trazado_192896" data-name="Trazado 192896" d="M41.725,431.925a154.437,154.437,0,0,1-14.872-9.568v3.051c4,1.569,8.418,3.469,13.038,5.64.621.292,1.225.584,1.834.877" transform="translate(-8.979 -141.233)" fill="#ffddae"/>
          <path id="Trazado_192897" data-name="Trazado 192897" d="M65.793,445.234c-.133-.059-.27-.124-.4-.185l.37.2c.011-.006.023-.011.034-.018" transform="translate(-21.866 -148.821)" fill="#ffddae"/>
          <path id="Trazado_192898" data-name="Trazado 192898" d="M17.873,429.895q2.559,1.349,5.353,2.728c-1.856-.792-3.646-1.52-5.353-2.179-9.032-3.484-15.68-5.015-16.392-3.5-.8,1.7,6.121,6.709,16.392,12.15q1.181.625,2.419,1.257c-.827-.306-1.631-.593-2.419-.864-7.788-2.678-13.561-3.6-14.235-2.167-.777,1.657,5.2,6.186,14.235,11.085,2.507,1.361,5.236,2.747,8.136,4.11,4.525,2.128,8.84,3.91,12.623,5.27a.793.793,0,0,1,1.488-.049l.284.668c1.042.352,2.037.67,2.969.944l21.13,8.98,67.372,28.632,7.259,3.085.2-.486a55.529,55.529,0,0,0,34.235-.349c1.562-.52,3.1-1.1,4.61-1.753.3-.13.587-.281.883-.415a55.559,55.559,0,0,0,26.327-24.877.791.791,0,0,1-.369-1l-50.5-21.44-.24.578-22.4-4.07-10.69-1.942a.8.8,0,0,1-.424,1.031l-.316.065-.739-.493-.4-.947-56-10.176c-.461-1.52-.964-3.076-1.55-4.686-3.77-10.352-8.607-18.093-10.807-17.291-2.052.749-1.048,8.706,2.163,18.186-4.2-2.672-9.433-5.736-15.045-8.9a139.849,139.849,0,0,0-20.188-9.639c-4.021-1.424-6.692-1.847-7.2-.949-.629,1.116,2.217,4.037,7.2,7.741A154.451,154.451,0,0,0,32.745,427.8c-.609-.292-1.213-.585-1.834-.877-4.62-2.171-9.041-4.07-13.038-5.64C7.987,417.4.764,415.593.056,417.1c-.789,1.676,6.707,6.936,17.817,12.794m26.054,3.626c-.011.007-.023.012-.034.018l-.37-.2c.134.061.271.126.4.185" transform="translate(0 -137.107)" fill="#a76b4a"/>
          <path id="Trazado_192899" data-name="Trazado 192899" d="M213.237,414.188l.315.065.743-.493,40.637-95.729a.806.806,0,0,0-1.483-.631l-40.637,95.728c-.027.065.009.127,0,.193a.771.771,0,0,0,.426.866" transform="translate(-71.158 -105.972)" fill="#1f0f0b"/>
          <path id="Trazado_192901" data-name="Trazado 192901" d="M65.554,499.838l.439.431.3.058.315-.065,10.855-4.608c.055-.023.069-.085.115-.117a.776.776,0,0,0,.313-.939.8.8,0,0,0-1.055-.427l-10.116,4.293-6.935-16.333-.284-.668a.793.793,0,0,0-1.488.048.792.792,0,0,0,0,.583Z" transform="translate(-19.382 -160.833)" fill="#1f0f0b"/>
          <path id="Trazado_192902" data-name="Trazado 192902" d="M318.583,500.265l.316.065.729-.461,8.441-17.74a.807.807,0,0,0-.38-1.074.816.816,0,0,0-1.078.381l-.312.656-7.8,16.389-9.455-4.017a.8.8,0,0,0-1.055.428v0a.791.791,0,0,0,.37,1c.023.013.027.045.053.056Z" transform="translate(-102.969 -160.836)" fill="#1f0f0b"/>
          <path id="Trazado_192903" data-name="Trazado 192903" d="M149.766,165.074a17.787,17.787,0,0,1,1.427-12.227c3.087-6.155,2.2-11.357.889-16.489-1.446-5.636-3.413-11.188-1.244-17.817,3.045-9.306,1.118-18.2-.117-22.278,9.107-5.951,22.723-18.813,25.73-43.71,2.981,24.679,16.389,37.535,25.493,43.555-1.234,4-3.245,13.015-.162,22.433,2.272,6.943,0,12.7-1.446,18.618-1.195,4.874-1.836,9.853,1.091,15.688a17.769,17.769,0,0,1,1.435,12.185c-1.44,6.994-5.472,12.961-1.826,19.127a123.3,123.3,0,0,1,7.81-18.291c.668-1.226,1.367-2.429,2.092-3.58,5.809-9.209-5.7-16.2-2.479-29.168.344-1.384.658-2.866.951-4.394.314-1.633.6-3.327.841-5.06,2.566.08,5.787-3.451,7.539-8.512,1.93-5.569,1.342-10.826-1.312-11.747-1.538-.534-3.427.54-5.124,2.593a52.878,52.878,0,0,0-.42-5.428c-.06-.441-.136-.849-.21-1.263a75.377,75.377,0,0,0,.295-13.382c-3-19.109-17.286-33.606-34.5-33.606-17.531,0-32.022,15.046-34.64,34.69-.025-.025-.049-.053-.073-.079a75.784,75.784,0,0,0,.275,11.369q-.207.96-.361,2.039a50.6,50.6,0,0,0-.449,5.248c-1.6-1.779-3.339-2.678-4.771-2.181-2.654.921-3.242,6.177-1.309,11.747,1.669,4.821,4.676,8.277,7.176,8.526.248,1.739.529,3.438.843,5.076.292,1.516.605,2.989.947,4.364,3.224,12.965-8.288,19.96-2.476,29.168.735,1.165,1.442,2.386,2.117,3.63a123.339,123.339,0,0,1,7.784,18.241c3.638-6.153-.37-12.11-1.818-19.084" transform="translate(-44.827 -17.496)" fill="#1f0f0b"/>
        </g>
      </g>
    </g>
    <g id="Grupo_144990" data-name="Grupo 144990" transform="translate(13820.031 12241.512)">
      <path id="Trazado_192775" data-name="Trazado 192775" d="M435.453,375.842a.234.234,0,1,0,.126-.306.237.237,0,0,0-.126.306" transform="translate(-12884.275 -12250.417)" fill="#c0c3b0"/>
      <path id="Trazado_192790" data-name="Trazado 192790" d="M623.724,330.626a.286.286,0,1,0-.4-.064.289.289,0,0,0,.4.064" transform="translate(-13017.386 -12218.236)" fill="#c0c3b0"/>
      <g id="Grupo_144988" data-name="Grupo 144988" transform="translate(-12462.979 -11963.351)">
        <path id="Trazado_192762" data-name="Trazado 192762" d="M386.913,195.284l0,.008-.015-.025.01.017" transform="translate(-386.903 -159.33)" fill="#c0c3b0"/>
        <path id="Trazado_192785" data-name="Trazado 192785" d="M422.217,123.291l.024.01-.042-.017.017.008" transform="translate(-411.916 -108.318)" fill="#c0c3b0"/>
        <path id="Trazado_192786" data-name="Trazado 192786" d="M426.724,122.9h0v0Z" transform="translate(-415.123 -108.047)" fill="#c0c3b0"/>
        <path id="Trazado_192787" data-name="Trazado 192787" d="M460.294,163.636a.273.273,0,0,0-.369-.087.281.281,0,0,0-.123.284l.518.014a.236.236,0,0,0-.027-.211" transform="translate(-438.56 -136.825)" fill="#c0c3b0"/>
        <path id="Trazado_192788" data-name="Trazado 192788" d="M452.767,105.023l-.027-.011.03.013h0" transform="translate(-433.559 -95.37)" fill="#c0c3b0"/>
        <path id="Trazado_192789" data-name="Trazado 192789" d="M401.469,81.9a44.662,44.662,0,0,1,.759-9.1.255.255,0,0,1,.167-.208.477.477,0,0,1,0-.39.477.477,0,0,1,.622-.242c1.722.778,3.506,1.4,5.333,2.027l.484.163c1.571.53,3.195,1.079,4.774,1.745a27.228,27.228,0,0,1,4.107,2.117,26.152,26.152,0,0,1,3.919,3.089,32.333,32.333,0,0,1,3.523,3.92c.144.191.284.383.424.577.356.494.712,1.021,1.057,1.569.4.649.807,1.37,1.278,2.268a.521.521,0,0,1-.043.476.252.252,0,0,1-.089.312,27.406,27.406,0,0,1-3.03,1.463,20.8,20.8,0,0,1-3.1,1,14.888,14.888,0,0,1-3.205.42,12.754,12.754,0,0,1-1.643-.07.75.75,0,0,1-.278-.066q.873,1.319,1.753,2.622l.381.587c.282-.179.56-.363.829-.56l.077-.059a4.023,4.023,0,0,1,.5-.349.527.527,0,0,1,.686.183.521.521,0,0,1-.09.612,2.678,2.678,0,0,1-.776.5,4.244,4.244,0,0,1,1.351.495,5.756,5.756,0,0,1,1.125.812,6.931,6.931,0,0,1,.85.958l.049.067c.054.079.092.153.141.23l-.882-.024L422.5,99l-.039-.05-.044-.087c-.059.056-.122.109-.181.164l-.462-.013c.147-.131.295-.261.434-.4l-.036-.028c-.031-.035-.062-.071-.085-.1h0l-.049-.063c-.166.158-.335.313-.5.468l-.124.114-.459-.013c.128-.12.256-.24.387-.36.155-.139.309-.28.461-.425a1.127,1.127,0,0,1-.157-.158l-.15.127-.113.1-.154.135-.62.544.02.029-1.1-.03q-.5-.736-.979-1.465a2.505,2.505,0,0,0-.19.258,2.407,2.407,0,0,0-.2.46,2.91,2.91,0,0,0-.089.545c0,.055.014.107.017.162L417.4,98.9a2.811,2.811,0,0,1,.012-.32,1.926,1.926,0,0,1,.277-.778,8.244,8.244,0,0,0-.74.5.393.393,0,0,1-.317.038.458.458,0,0,1-.242-.186h0a.41.41,0,0,1,.074-.5,14.6,14.6,0,0,1,1.481-1.007q-1.3-1.939-2.575-3.887l-.058-.02-.155-.013-.015.126a16.069,16.069,0,0,1-.327,1.735,23.07,23.07,0,0,1-1.19,3.577c-.089.212-.182.414-.275.617l-3.583-.1c.189-.837.343-1.551.475-2.214a45.934,45.934,0,0,0,1-7.453c.027-.769.013-1.491-.025-2.19-.082.058-.163.119-.246.174-.343.234-.693.456-1.043.676-.67.423-1.336.851-2.005,1.276-.7.441-1.4.883-2.078,1.348-.29.2-.579.4-.875.582-.23.143-.459.286-.681.445a3.179,3.179,0,0,0-.532.5c-.03.042-.05.089-.076.132.214.73.442,1.424.689,2.091a34.128,34.128,0,0,0,1.8,4.058.622.622,0,0,1,.033.065c.079.146.157.284.236.424l-1.05-.029c-.122-.238-.253-.474-.369-.714a34.383,34.383,0,0,1-2.349-6.657,41.914,41.914,0,0,1-1.2-9.3m19.567,16c-.087.071-.173.145-.258.224-.165.144-.311.288-.454.429l.058.084.031.077c.286-.27.585-.53.884-.789l.082-.07-.062-.047-.082-.073-.131.108Zm-.678-.132c-.122.116-.233.232-.34.341l.07.1.038.1a5.27,5.27,0,0,1,.418-.412l.21-.179.205-.17-.034-.008-.154-.085-.043-.031c-.044.043-.089.084-.137.126l-.068.063Zm-1.1-.745.059.077c.161.231.321.464.452.7a1.046,1.046,0,0,1,.074-.095,2.784,2.784,0,0,1,.205-.225l.253-.237h-.014c-.079-.029-.156-.057-.233-.078a3.832,3.832,0,0,0-.735-.128Zm-13.934-7.1-.054-.02c-.165-.055-.327-.117-.487-.182-.316-.125-.629-.255-.937-.394s-.625-.289-.923-.459c.055.272.1.546.163.815l.012.063c.13.559.267,1.09.41,1.607a8.91,8.91,0,0,1,1.455-1.154l-.008.007q.185-.141.369-.284m.024-.422a3.9,3.9,0,0,1-.126-.532c-.056-.351-.094-.7-.119-1.059s-.037-.737-.031-1.106a4.667,4.667,0,0,1,.027-.521s0-.009,0-.013c-.1.071-.2.14-.3.212-.4.3-.8.608-1.181.937-.252.22-.494.449-.731.683l.072.049c.11.08.224.161.339.239a9.28,9.28,0,0,0,.81.494c.281.151.563.295.849.43q.2.093.387.188m2.906-1.713a3.323,3.323,0,0,1-.5-.16c-.316-.131-.624-.276-.926-.436-.388-.206-.762-.435-1.128-.675,0,.01,0,.021,0,.032.012.24.007.48,0,.721a12.068,12.068,0,0,0-.016,1.519,3.881,3.881,0,0,0,.153.741c.232-.173.465-.345.7-.514.551-.4,1.1-.8,1.659-1.189l.059-.041m.073-.578a6.583,6.583,0,0,1-.127-1.464c0-.321.013-.644.015-.966,0-.154-.007-.306-.013-.459-.14.078-.282.152-.42.232-.722.417-1.432.857-2.123,1.325a11.14,11.14,0,0,0,1.84,1.005l-.014-.006.032.013.036.015-.012-.006c.211.086.423.168.635.249l.152.06m2.728-1.144a5.2,5.2,0,0,1-.543-.292c-.275-.174-.547-.358-.81-.552l-.894-.662c.015.252.026.5.019.757a13.026,13.026,0,0,0-.011,1.455c0-.015,0-.03-.005-.044,0,.015,0,.03.005.045s0,.018,0,.027c0-.008,0-.017,0-.025a3.627,3.627,0,0,0,.115.546c.316-.215.635-.426.961-.626a11.333,11.333,0,0,1,1.162-.628m.039-.6c-.068-.549-.15-1.086-.263-1.6h-.007c-.075-.31-.158-.6-.247-.883-.019.013-.037.027-.057.039q-.167.1-.337.2c-.26.151-.522.293-.785.437-.211.112-.419.232-.629.346.152.105.3.214.457.315.273.178.555.341.838.507.348.2.7.408,1.031.637m.341-3.125a10.88,10.88,0,0,1,1.12.535c.465.254.925.517,1.411.731a4.756,4.756,0,0,0,.447.168,7,7,0,0,0,.006-1.608c-.032-.286-.07-.57-.116-.853-.013-.087-.021-.175-.041-.26-.012-.055-.027-.11-.042-.166v0l-.427.222c-.792.4-1.585.8-2.362,1.222l0,.013m.747,3.145a21.041,21.041,0,0,1,1.967-1.293c-.138-.058-.276-.118-.411-.185-.278-.139-.552-.288-.823-.444-.429-.251-.861-.5-1.309-.714.106.329.2.666.286,1.013.127.536.217,1.079.29,1.622m7.857-4.137c-.185.125-.372.251-.564.371-.349.221-.705.432-1.066.637-.391.224-.785.44-1.178.663-.327.183-.649.375-.978.554a32.521,32.521,0,0,0-3.993,2.325l-.025.02c.012.108.031.217.041.325h-.006l.051.065v0l.034.047a5.8,5.8,0,0,0,.863.957c.113.092.229.179.346.262a14.293,14.293,0,0,0,2.356.928,24.6,24.6,0,0,0,5.79.843l.1.022-.085-.039c1.009.027,2.027.014,3.028-.039.652-.035,1.219-.09,1.73-.159a27.375,27.375,0,0,0-1.942-3.1,31,31,0,0,0-2.557-3.09c-.59-.621-1.178-1.182-1.767-1.717l-.18.127m-3.642.209c-.5-.211-1.015-.391-1.535-.552.013.084.027.168.038.253q.035.227.06.453c.029.272.056.544.066.816a6.63,6.63,0,0,1-.014.909c-.009.09-.022.181-.035.271l.405-.236c.376-.222.753-.443,1.12-.678s.722-.462,1.084-.69l-.45-.21c-.237-.109-.472-.219-.709-.323h0l0,0-.036-.016.009,0m1.43-2.283c0,.031.006.061.012.092.022.122.048.247.078.369.064.282.135.561.2.841s.122.555.159.837c.011.082.02.163.028.245q.711-.437,1.417-.881c-.627-.543-1.257-1.047-1.893-1.5m-.481.047c-.21.087-.422.172-.631.262a10.811,10.811,0,0,0-.973.476c-.317.177-.636.355-.956.529a.348.348,0,0,1,.033.065c0,.007,0,.015,0,.022q.763.224,1.505.5c.32.12.639.239.96.364.186.073.372.147.559.22a13.388,13.388,0,0,0-.267-1.352c-.06-.249-.117-.5-.164-.748-.022-.114-.046-.228-.068-.342m-7.13-1.7c-.813.434-1.479.811-2.1,1.184-.353.214-.705.429-1.065.65l-.175.108c-.3.183-.591.365-.882.555l-.256.168c-.261.17-.523.341-.778.521-.3.21-.591.436-.88.661l-.077.061-.209.162a19.4,19.4,0,0,1-1.622,1.17,41.081,41.081,0,0,0,.531,4.85c.482-.493.975-.975,1.5-1.427q.964-.836,2.011-1.575c.732-.515,1.482-1.008,2.262-1.448a12.573,12.573,0,0,1,1.165-.6c.182-.079.362-.156.547-.224.059-.022.121-.036.18-.055-.1-.272-.211-.537-.332-.788a.489.489,0,0,1,.015-.377.5.5,0,0,1,.65-.252.422.422,0,0,1,.192.152.748.748,0,0,1,.071.121c.135.285.244.532.339.763.789-.448,1.591-.875,2.383-1.316.356-.2.707-.4,1.055-.61.156-.1.313-.193.467-.3s.3-.209.457-.31a7.2,7.2,0,0,1,1.4-.713c-.133-.087-.263-.186-.4-.27l.049.068a30.174,30.174,0,0,0-4.317-2.1c-.312.2-.645.371-.968.537l-.159.082-.255.132c-.267.138-.535.276-.8.418m-8.093,2.115a20.35,20.35,0,0,1,3.354-2.373c.634-.369,1.322-.741,2.167-1.172.332-.169.665-.336,1-.5l.709-.357-.887-.3c-1.772-.608-3.78-1.3-5.622-2.133a42.663,42.663,0,0,0-.693,6.24c-.008.2-.014.4-.028.6" transform="translate(-397.219 -71.917)" fill="#c0c3b0"/>
        <path id="Trazado_192791" data-name="Trazado 192791" d="M417.3,167.191l.037.051.034.052c.114.158.231.311.346.465l.122.166c.082.109.167.219.251.327s.189.239.278.362a.584.584,0,0,0,.536.265.5.5,0,0,0,.153-.038.161.161,0,0,0,.077.028.347.347,0,0,0,.258-.063,12.8,12.8,0,0,0,2.1-2.513,19.572,19.572,0,0,0,1.465-2.681l-3.583-.1c-.1.433-.2.9-.325,1.41l-.194.832-.2.832-.131.558c-.262-.352-.534-.71-.814-1.1q-.173-.239-.34-.483c-.456-.658-.892-1.365-1.326-2.142l-1.05-.029c.411.8.85,1.593,1.333,2.36.327.511.653.994.973,1.437" transform="translate(-406.809 -136.743)" fill="#c0c3b0"/>
        <path id="Trazado_192792" data-name="Trazado 192792" d="M464.347,171.073a.334.334,0,0,0,.111-.455.339.339,0,0,0-.455-.108.334.334,0,0,0-.111.455.338.338,0,0,0,.455.108" transform="translate(-441.426 -141.752)" fill="#c0c3b0"/>
        <path id="Trazado_192793" data-name="Trazado 192793" d="M459.89,164.705a.273.273,0,0,0,.369.087.286.286,0,0,0,.116-.157l-.518-.014a.212.212,0,0,0,.034.084" transform="translate(-438.602 -137.612)" fill="#c0c3b0"/>
        <path id="Trazado_192794" data-name="Trazado 192794" d="M461.263,166.068a.5.5,0,1,0,.314.223.512.512,0,0,0-.314-.223" transform="translate(-439.154 -138.628)" fill="#c0c3b0"/>
        <path id="Trazado_192795" data-name="Trazado 192795" d="M461.339,164.662l.882.024a5.874,5.874,0,0,1,.533,1.017,4.623,4.623,0,0,1,.321,1.262,2.611,2.611,0,0,1-.047.973c.086-.07.171-.137.259-.2a10.028,10.028,0,0,1,.849-.588.518.518,0,0,1,.684.184.506.506,0,0,1,.045.386.517.517,0,0,1-.135.223c-.349.268-.726.549-1.116.795l-.357.221c-.175.11-.352.221-.524.311l.277.388c1.233,1.709,2.47,3.4,3.651,5.015q.481-.327.957-.666l.043-.042c.477-.361.916-.73,1.283-1.044a.525.525,0,0,1,.353-.14.515.515,0,0,1,.347.149.654.654,0,0,1,.044.054.505.505,0,0,1-.058.644,7.132,7.132,0,0,1-1.484,1.163,6.463,6.463,0,0,1,1.093,0,6.226,6.226,0,0,1,2.053.548,7.254,7.254,0,0,1,2.5,1.953c.13.157.256.32.377.487a8.991,8.991,0,0,1,.521.814,9.771,9.771,0,0,1,.691,1.505,10.32,10.32,0,0,1,.614,3.22,10.215,10.215,0,0,1-.08,1.642,8.686,8.686,0,0,1-.314,1.422q1.882,2.424,3.784,4.832l.267.34.244.336c.117-.084.236-.17.355-.251l.054-.05c.5-.379,1.1-.828,1.756-1.278a.526.526,0,0,1,.7.188.535.535,0,0,1-.093.619,10.969,10.969,0,0,1-2.078,1.617l.162.206.138.2c.2-.161.4-.321.606-.481l.456-.362c.2-.164.408-.327.613-.487s.388-.283.6-.434a.494.494,0,0,1,.591.082.578.578,0,0,1,.04.049.477.477,0,0,1,.022.537,4.463,4.463,0,0,1-.561.681c-.195.185-.418.376-.659.57a1.073,1.073,0,0,1-.283.179l1.069.307,1.679.482a.608.608,0,0,1,.075.023c2.628.764,5.437,1.614,8.178,2.658a44.8,44.8,0,0,1,8.2,4,30.647,30.647,0,0,1,3.7,2.726,29.8,29.8,0,0,1,3.362,3.392.365.365,0,0,1-.012.421.371.371,0,0,1-.387.175,14.151,14.151,0,0,0-1.576-.225c-.321-.033-.644-.068-.963-.114a3.311,3.311,0,0,1-.77-.183c1.184.966,2.436,2.033,3.828,3.264a51.543,51.543,0,0,1,7.388,7.974l.35.481q.247.343.488.688l.1.146.109.159q.159.232.324.461l.067.089.386.524c.212.283.424.569.631.855.089.124.178.247.266.372a8.9,8.9,0,0,1,1.772,3.905.463.463,0,0,1-.408.5,7.836,7.836,0,0,1-2.14-.033,17.736,17.736,0,0,1-2.411-.526,48.434,48.434,0,0,1-4.849-1.722l-.709-.289-.977-.4-.58-.235c-.508-.2-1.016-.406-1.518-.624a41.378,41.378,0,0,1-4.771-2.379,24.685,24.685,0,0,1-4.287-3.107,15.181,15.181,0,0,1-1.614-1.7c.106.224.21.45.316.68a32.825,32.825,0,0,1,1.694,4.55,36.5,36.5,0,0,1,.825,3.593,38.333,38.333,0,0,1,.673,8.255,21.927,21.927,0,0,1-.473,4.036,14.8,14.8,0,0,1-.528,1.833,11.019,11.019,0,0,1-.727,1.59.479.479,0,0,1-.5.275.471.471,0,0,1-.3-.188.415.415,0,0,1-.056-.113c-.251-.619-.525-1.214-.813-1.769-.224-.437-.454-.872-.686-1.3l-.3-.56c-.624-1.188-1.245-2.376-1.849-3.571-1.761-3.477-3.319-6.759-4.764-10.034-.187-.426-.371-.852-.553-1.273l-.223-.515-.415-1.015a8.614,8.614,0,0,1-.537,1.737.338.338,0,0,1-.357.2.324.324,0,0,1-.215-.137.5.5,0,0,1-.042-.07c-.166-.322-.327-.65-.487-.976l-.242-.485c-.234-.466-.465-.933-.7-1.4-.482-.968-.959-1.937-1.422-2.914-1.114-2.358-1.887-4.18-2.506-5.907a31.222,31.222,0,0,1-1.854-7.978,22.381,22.381,0,0,1,.023-4.128,17,17,0,0,1,.518-2.809q-.311.183-.631.347a9.069,9.069,0,0,1-1.512.633.485.485,0,0,1-.526-.187.4.4,0,0,1-.072-.163.493.493,0,0,1,.353-.6c.112-.034.221-.074.33-.115a11.016,11.016,0,0,0,1.375-.727l.23-.14c.2-.121.4-.241.592-.347-.1-.127-.2-.257-.294-.384a.511.511,0,0,1-.06-.1c-.386.223-.781.431-1.174.637l-.427.225-.8.41-.37.193-.427.22a.42.42,0,0,1-.549-.147.428.428,0,0,1-.033-.315.386.386,0,0,1,.184-.234,24.092,24.092,0,0,0,2.238-1.325,6.842,6.842,0,0,0,.678-.5l-.056-.073c-.245-.309-.487-.617-.73-.927-1.2-1.531-2.391-3.067-3.557-4.6a3.03,3.03,0,0,1-.4.048,4.217,4.217,0,0,1-.7-.024,7.075,7.075,0,0,1-1.414-.33,8.1,8.1,0,0,1-1.329-.579,10.678,10.678,0,0,1-1.28-.8,11.514,11.514,0,0,1-2.242-2.144c-.1-.134-.208-.269-.308-.407a9.251,9.251,0,0,1-.529-.822,8.229,8.229,0,0,1-.623-1.345,6.039,6.039,0,0,1-.333-2.731,4.468,4.468,0,0,1,.593-1.745c-.1.053-.209.107-.311.161l-.45.231c-.3.155-.6.309-.9.478a.335.335,0,0,1-.442-.119.329.329,0,0,1,.12-.441c.168-.1.332-.206.5-.311l.174-.109.271-.171.07-.042.784-.47q-.35-.48-.7-.962-.615-.852-1.224-1.7c-.661-.927-1.32-1.856-1.947-2.784l-.617.4-.142.091-.142.092-.142.091-.142.092c-.1.06-.192.119-.292.177s-.181.112-.285.178a.3.3,0,1,1-.293-.528c.075-.051.147-.1.21-.146l.349-.26.342-.255.053-.038a1.105,1.105,0,0,1,.262-.162,4.545,4.545,0,0,1-2.4-.829,6.329,6.329,0,0,1-1.091-.93,6.756,6.756,0,0,1-.513-.619,5.111,5.111,0,0,1-.3-.466,4.587,4.587,0,0,1-.5-1.229,3.5,3.5,0,0,1-.1-.938l.675.018a3.627,3.627,0,0,0,.051.489,4.194,4.194,0,0,0,.355.915,5.263,5.263,0,0,0,.357.569,6.6,6.6,0,0,0,.535.646h0l0,0a7.038,7.038,0,0,0,1.268,1.015,5.3,5.3,0,0,0,1.178.528c.169.045.333.079.488.111l.148.041c-1.036-1.483-2.006-2.894-2.938-4.277l1.1.03a1.09,1.09,0,0,1,.118.2c.068-.065.14-.129.209-.194l.459.013-.051.046c-.144.132-.287.263-.424.379l.077.111.053.108c.149-.135.3-.269.455-.406l.1-.089c.051-.045.1-.093.152-.139l.462.013c-.161.147-.321.294-.489.441l-.491.419.154.221.126.213c.165-.161.336-.32.507-.476.217-.2.431-.4.628-.6-.043-.068-.089-.135-.136-.2Zm34.7,52.6-.034-.147c.137.743.252,1.56.353,2.5.208,1.9.273,3.844.337,5.747l0,.116.009.294c.019.549.036,1.1.05,1.613l.01.095a.163.163,0,0,1-.131.186.172.172,0,0,1-.165-.064.107.107,0,0,1-.02-.064c-.055-1.24-.118-2.362-.189-3.431-.091-1.324-.195-2.434-.324-3.5-.176-1.363-.36-2.464-.577-3.465-.21-.949-.482-1.936-.855-3.106-.062-.121-.126-.243-.191-.361-.562-1.051-1.146-2.067-1.737-3.024a2.123,2.123,0,0,1-.2-.394c.222.749.422,1.535.614,2.4.3,1.336.541,2.695.722,4.04.173,1.252.294,2.567.361,3.909a.165.165,0,0,1-.129.184.172.172,0,0,1-.165-.064.112.112,0,0,1-.022-.063,36.116,36.116,0,0,0-1.689-9.125c-.021-.057-.02-.063-.018-.06h0c-.306-.927-.672-1.937-1.121-3.086l-.035-.091-.179-.449a.383.383,0,0,1-.05-.126c-.224-.291-.447-.582-.679-.875l-.316-.457c.034.128.066.253.111.433.145.564.294,1.146.41,1.733.063.318.133.635.2.951l.04.174.04.173c.039.165.076.329.11.495.118.6.237,1.206.366,1.8l.139.639.063.291.029.135c.054.247.107.495.157.743l.118.58c.076.378.154.755.232,1.134a.136.136,0,0,1-.022.117.15.15,0,0,1-.106.068.159.159,0,0,1-.16-.062.138.138,0,0,1-.024-.065c-.164-.725-.353-1.449-.532-2.124s-.381-1.387-.6-2.062c-.06-.18-.122-.362-.184-.54q-.111-.321-.217-.647-.2-.614-.417-1.221l-.051-.134-.111-.29-.029-.075-.029-.075c-.079-.21-.158-.42-.234-.632-.143-.407-.294-.811-.448-1.213-.338-.864-.628-1.686-.888-2.515-.008-.024-.016-.047-.023-.071.064.251.126.5.181.753s.1.488.143.733l.017.1c.051.278.1.556.163.834s.108.554.159.837l.051.259c.089.474.179.949.277,1.419l.117.567.23,1.128c.049.238.1.473.143.714.064.335.128.671.2,1.007a.147.147,0,0,1-.025.118.163.163,0,0,1-.263.007.178.178,0,0,1-.027-.066c-.135-.61-.3-1.228-.455-1.809-.114-.421-.223-.809-.327-1.175l-.157-.6-.008.072-.086-.258-.027-.08-.034-.1c-.087-.257-.173-.512-.263-.766q-.215-.6-.442-1.19c-.075-.2-.15-.393-.232-.588l-.13-.306c-.039-.091-.078-.185-.114-.28l-.16-.415-.067-.178c-.075-.2-.15-.4-.227-.6-.3-.77-.612-1.591-.873-2.416-.154-.462-.29-.938-.4-1.413l-.038-.09.035.2.034.194c.075.412.157.819.248,1.264l.024.118.117.57c.053.27.107.538.164.808.1.461.2.918.315,1.376l.123.506c.068.287.136.574.21.86l.2.782.083.332.191.75.191.75a.14.14,0,0,1-.022.11.165.165,0,0,1-.109.076.151.151,0,0,1-.158-.063.126.126,0,0,1-.027-.066c-.245-.929-.522-1.882-.761-2.7l-.121-.407-.082-.271c-.069-.226-.136-.451-.2-.678-.134-.452-.272-.9-.413-1.354s-.287-.9-.416-1.355l-.19-.679-.191-.681c-.2-.7-.383-1.441-.544-2.207v-.075a16.626,16.626,0,0,0-.16,1.8,23.727,23.727,0,0,0,.145,3.434,32.981,32.981,0,0,0,.617,3.488,52.806,52.806,0,0,0,1.837,6.089c.331.913.69,1.852,1.069,2.79.442,1.092.958,2.358,1.484,3.57,1.274,2.959,2.767,6.158,4.7,10.07.352.719.709,1.434,1.066,2.148l.055.111.294.588,1.065,2.134.5,1.007.08.165c.221.442.443.887.661,1.328a4.08,4.08,0,0,1,.261.618,18.729,18.729,0,0,0-.573-3.423,9.914,9.914,0,0,0-1-2.293c-.069-.107-.139-.216-.21-.323a.169.169,0,0,1,.025-.232.179.179,0,0,1,.131-.034.145.145,0,0,1,.1.056h0c.309.455.608.941.888,1.446.305.555.559,1.07.778,1.575a4.786,4.786,0,0,1,.284.823,12.812,12.812,0,0,0,.052-1.322,10.074,10.074,0,0,0-.112-1.187,10.5,10.5,0,0,0-.232-1.046c-.082-.269-.186-.557-.318-.879a.2.2,0,0,1,.1-.265.21.21,0,0,1,.258.1l0,.006a13.549,13.549,0,0,1,.994,3.862,6.853,6.853,0,0,1,.059,1.306,21.927,21.927,0,0,0,.35-3.234,35.7,35.7,0,0,0-.225-5.216,44.86,44.86,0,0,0-.788-4.689,33.956,33.956,0,0,0-1.308-4.316c-.168-.436-.343-.872-.518-1.3m8.074-9.483a73.49,73.49,0,0,0-7.257-5.209l.089.092a38.139,38.139,0,0,0-8.558-3.916l.054.053c-.572-.166-1.224-.335-2.046-.542l.266.153c.266.153.532.306.793.468.176.1.351.216.522.327s.347.219.522.327l.7.42.352.21c.431.255.77.442,1.1.606.75.378,1.379.69,2.068.968l.081.027.261.1a.188.188,0,0,1,.094.066.15.15,0,0,1,.024.126.184.184,0,0,1-.084.107.137.137,0,0,1-.115.009l-.142-.046c-.595-.2-1.207-.414-1.782-.638-.311-.12-.62-.247-.929-.375s-.595-.247-.9-.365c-.317-.124-.637-.258-.95-.4-.141-.061-.284-.12-.425-.177l-.062-.025-.072-.031-.393-.164a2.789,2.789,0,0,1-.475-.237c.288.206.568.417.849.629l.057.044c.2.157.41.312.618.468l.115.082q.173.123.341.252c.112.087.225.173.339.259.306.221.62.432.935.638s.651.421.983.623q.992.6,2,1.171c.66.376,1.324.741,1.991,1.107.325.177.651.355.971.544.282.169.571.33.863.484a.165.165,0,0,1,.051.043.158.158,0,0,1,.01.173.164.164,0,0,1-.1.078.155.155,0,0,1-.119-.014c-.338-.175-.683-.334-1.03-.494-.2-.093-.4-.185-.6-.282l-1.05-.512-.522-.258c-.566-.276-1.132-.552-1.695-.835-.3-.151-.6-.306-.905-.461l-.694-.357-.271-.136a3.935,3.935,0,0,1-.542-.319l.109.081.081.062q.466.339.936.674l.5.362,1.2.863c.346.249.69.5,1.035.749l.324.233c.357.26.714.519,1.074.776.774.547,1.613,1.128,2.5,1.669a20.523,20.523,0,0,0,2.592,1.356.114.114,0,0,1,.053.04.17.17,0,0,1,.009.176.159.159,0,0,1-.217.063c-.6-.246-1.142-.5-1.672-.78s-1.039-.567-1.553-.88c-.983-.593-1.941-1.224-3-1.928l-.117-.078-.155-.1-.177-.116c-.413-.272-.825-.544-1.241-.806-.246-.153-.5-.3-.748-.451l-.229-.133c-.2-.117-.4-.236-.6-.36-.31-.2-.617-.4-.923-.606l-.224-.145-.051-.032a2.1,2.1,0,0,1-.367-.28l.033.076.03.08.027.064.115.31.083.061.354.263.319.23q.229.162.453.327c.235.176.464.355.69.537l.453.363.277.222.633.505q.219.171.436.343c.237.19.477.381.722.565l.411.308.678.555-.029-.064.261.193c.2.148.4.3.6.442,1.208.878,2.259,1.579,3.307,2.207a23.52,23.52,0,0,0,3.464,1.737c.473.181.891.32,1.276.425a.177.177,0,0,1,.092.064.153.153,0,0,1,.025.131.168.168,0,0,1-.2.121,20.549,20.549,0,0,1-3.971-1.613c-.627-.323-1.268-.68-1.962-1.09-.411-.24-.814-.488-1.218-.736l-.119-.073-.121-.075-.464-.289c-.619-.381-1.234-.774-1.847-1.17l-.311-.2-.191-.122-.381-.244-.245-.148-.148-.089-.185-.111c-.126-.075-.251-.15-.372-.229a5.225,5.225,0,0,1-.629-.452l.038.08.031.073c.14.1.281.2.414.311.224.175.442.355.658.541.187.163.371.325.556.49l.176.155c.185.164.372.327.558.489.764.655,1.633,1.342,2.655,2.1a43.582,43.582,0,0,0,4.419,2.814,38.381,38.381,0,0,0,4.507,2.141c.54.207.977.363,1.375.492a.183.183,0,0,1,.094.066.158.158,0,0,1,.024.129.178.178,0,0,1-.082.105.149.149,0,0,1-.114.013l-.172-.058-.174-.06c-.774-.26-1.466-.517-2.115-.786-.717-.293-1.447-.619-2.17-.97a46.662,46.662,0,0,1-4.272-2.35c-.774-.479-1.448-.915-2.06-1.334l-.065-.043c-.328-.223-.656-.447-.976-.679-.173-.12-.342-.245-.51-.369l-.047-.035-.166-.123-.215-.159c-.336-.246-.671-.5-1-.751l-.031-.023q.335.47.665.943c.16.23.316.462.464.693l.181.158.048.04.056.049c.282.247.566.495.852.736.707.591,1.422,1.154,2.125,1.675a43.877,43.877,0,0,0,5.16,3.242,53.184,53.184,0,0,0,5.6,2.553c1.026.4,2.059.764,3.07,1.093a.183.183,0,0,1,.1.065.164.164,0,0,1,.024.129.177.177,0,0,1-.082.105.144.144,0,0,1-.116.012c-.378-.124-.757-.248-1.133-.377a55.314,55.314,0,0,1-9.159-4.058,41.847,41.847,0,0,1-4.252-2.7,16.4,16.4,0,0,1-1.515-1.209l.179.306c.142.24.286.484.438.753l.06.048c.29.293.574.6.856.9h0s0,0,0,0a7.718,7.718,0,0,1,.621.707l-.041-.1a31.658,31.658,0,0,0,2.754,2.628,27.841,27.841,0,0,0,3.019,2.136,40.365,40.365,0,0,0,3.863,2.043c.69.316,1.325.6,1.95.858.382.16.767.316,1.15.47l.383.157.488.2a58.019,58.019,0,0,0,5.623,2.086,17.72,17.72,0,0,0,3.08.646l-.054-.033-.052-.034c-.14-.089-.278-.18-.412-.271l-.062-.043-.234-.159c-.448-.3-.9-.594-1.352-.884l-.1-.064c-.42-.271-.842-.54-1.275-.793s-.9-.515-1.342-.765l-.06-.013c-.513-.265-1.031-.51-1.581-.751a.256.256,0,0,1-.117-.091.236.236,0,0,1-.029-.228.266.266,0,0,1,.14-.146.228.228,0,0,1,.181,0c.723.312,1.447.614,2.173.918l.412.172,1.275.534a12.358,12.358,0,0,1,1.315.62c-.092-.1-.182-.191-.276-.286-.321-.326-.651-.648-.979-.957a20.655,20.655,0,0,0-1.888-1.569,16.857,16.857,0,0,0-1.955-1.212.357.357,0,0,1-.154-.139l-.011-.016a.289.289,0,0,1,0-.22.308.308,0,0,1,.183-.177.215.215,0,0,1,.194,0c.612.312,1.22.623,1.823.947.575.305,1.188.641,1.78,1.022a7.989,7.989,0,0,1,1.3,1l-.039-.054-.043-.055-.346-.468c-.156-.208-.311-.416-.465-.625l-.055-.076c-.139-.192-.274-.387-.409-.582l-.114-.166c-.077-.11-.155-.219-.234-.328l-.142-.2A48.693,48.693,0,0,0,511.7,214.6c-.151-.159-.3-.315-.453-.47-.681-.7-1.321-1.319-1.956-1.9-.6-.56-1.219-1.1-1.838-1.642-1.178-1.023-2.27-1.941-3.34-2.807M481.594,194l.424.54.513.126.513.126c.452.11.839.217,1.185.329a.133.133,0,0,1,.072.052.163.163,0,0,1-.185.251c-.1-.03-.2-.059-.259-.075-.357-.083-.729-.138-1.11-.192l-.251-.02c.124.153.244.3.355.451l.688.105.283.043c.28.043.561.086.842.133.961.163,1.683.3,2.339.442a.192.192,0,0,1,.117.072.145.145,0,0,1,.026.1.188.188,0,0,1-.073.118.144.144,0,0,1-.109.027,9.28,9.28,0,0,0-1.223-.179c-.312-.028-.627-.049-.944-.069l-.293-.017a6.678,6.678,0,0,1-1.132-.138l.278.351.25.329a.59.59,0,0,1,.212-.019,30.383,30.383,0,0,1,10.2,3.173,53.768,53.768,0,0,1,9.048,5.874.328.328,0,0,1,.312-.014,9.778,9.778,0,0,0,.984.462l-.05-.048a11.986,11.986,0,0,0,1.83.317l.146.029a2.723,2.723,0,0,1-.378-.122c-.163-.068-.325-.138-.481-.216-.3-.149-.59-.306-.879-.47a17.8,17.8,0,0,1-1.707-1.083l-.061-.043a31.474,31.474,0,0,0-3.191-2.123c-.172-.1-.35-.186-.528-.27a.187.187,0,0,1-.077-.059.147.147,0,0,1-.014-.147.151.151,0,0,1,.1-.092.128.128,0,0,1,.114,0c.284.132.568.26.856.389l.19.087c.292.131.585.264.877.4.427.193.85.392,1.276.594-1.074-.737-2.251-1.457-3.5-2.143a57.492,57.492,0,0,0-5.485-2.585.158.158,0,0,1-.073-.054.156.156,0,0,1-.016-.154.152.152,0,0,1,.088-.089.131.131,0,0,1,.119,0c1.381.569,2.61,1.1,3.759,1.616.616.276,1.231.558,1.837.852l.063.029.152.073c.525.255,1.067.518,1.588.8.9.48,1.564.864,2.152,1.256a33.3,33.3,0,0,0-3-2.055A42.643,42.643,0,0,0,496.414,199a69.344,69.344,0,0,0-8.608-3.212q-1.107-.344-2.221-.676l-.64-.194-.078-.015-.436-.127-.1-.028-.384-.112-.684-.2-1.586-.461c-.036.026-.063.038-.084.031m-1.687,5.315.01.061a26.21,26.21,0,0,0,.621,6.253l0-.089c.054.24.112.479.173.717a46.91,46.91,0,0,0,2.825,7.777l.114.254.049.109c.111.248.223.5.311.756-.17-.647-.331-1.3-.489-1.948-.113-.457-.219-.921-.324-1.384l-.053-.232-.057-.252-.025-.119c-.05-.219-.1-.439-.144-.66l-.059-.276-.036-.173c-.061-.3-.122-.593-.188-.891l-.24-1.076-.205-.92c-.146-.668-.293-1.334-.447-2a.146.146,0,0,1,.083-.178.168.168,0,0,1,.2.048h0l.023.056q.275,1.155.579,2.3l.054.207.054.2c.164.619.333,1.253.523,1.875.475,1.562.927,2.938,1.421,4.328l0-.046c.212.564.428,1.128.658,1.685l.405.974.249.6.126.3.059.14.052.126c.141.343.281.683.412,1.029q.17.432.325.867l.036.1,0,.1c.049-.206.088-.413.119-.623.015-.107.028-.216.04-.322l.011-.09c-.17-.424-.338-.846-.506-1.271-.533-1.35-1.02-2.674-1.448-3.936-.541-1.579-.939-2.88-1.252-4.093a37.762,37.762,0,0,1-.9-4.273,28.549,28.549,0,0,1-.338-4.232,19.169,19.169,0,0,1,.329-3.354l-.233-.292-.205-.3c-.122.478-.249.983-.334,1.446-.036.208-.067.415-.092.623a.226.226,0,0,1-.23.208.24.24,0,0,1-.17-.093.194.194,0,0,1-.036-.133,24.168,24.168,0,0,1,.469-2.494l-.143-.183-.127-.157-.156-.2-.122-.2c-.014.107-.031.215-.048.322-.066.417-.147.832-.237,1.247q-.148.674-.323,1.343c-.107.414-.2.829-.285,1.246a.152.152,0,0,1-.065.09.173.173,0,0,1-.136.018.152.152,0,0,1-.083-.055.2.2,0,0,1-.026-.144c.029-.14.056-.28.08-.416.076-.449.111-.9.134-1.236.025-.388.05-.778.065-1.169l.018-.452.01-.23c.006-.163.013-.327.023-.492.011-.212.022-.427.051-.639a2.4,2.4,0,0,1,.064-.339l-.16-.2-.134-.218a21.82,21.82,0,0,0-.733,4.662m-4.966-15.311-.387.307-.342.279c.273.355.544.708.8,1.064l.058.1a8.869,8.869,0,0,0,.216-1.606c0-.136,0-.275,0-.413l0,.006c-.115.088-.231.177-.344.267m.3-1.024c-.2.151-.4.3-.6.441l-.223.156-.218.151-.224.156-.215.126.088.119.1.154q.394-.326.8-.642c.174-.136.349-.271.52-.388Zm-.081-.8c-.231.186-.489.372-.813.587-.262.172-.527.341-.791.507l-.256.139.133.172h0l.107.169.161-.113c.333-.235.662-.467.984-.711.106-.08.212-.161.317-.242l.191-.142-.009-.062a1.314,1.314,0,0,1-.024-.3m-.184-.739c-.33.238-.671.462-1.012.686l-1.027.678-.065.051.112.151.113.174.258-.167.054-.033.055-.036c.38-.248.772-.5,1.145-.777.156-.118.31-.243.451-.368l-.036-.146c-.017-.072-.034-.143-.047-.213m-.519-.638q-.4.289-.817.556l-.652.411-.133.084-.521.3.182.236h0l.156.234c.255-.2.537-.4.916-.661l.2-.13c.3-.2.6-.408.9-.626a1.523,1.523,0,0,1,.184-.128l-.058-.184c-.031-.095-.062-.192-.084-.292-.088.066-.177.133-.266.2m-.131-1.148c-.217.165-.446.314-.673.458l-.089.058-.067.043c-.363.228-.686.435-.959.645a4.523,4.523,0,0,0-.4.338c-.056.053-.11.107-.167.165l-.058.058-.077.081c.081.108.165.221.251.332l.01.009h0l.02.057c.214-.143.43-.285.645-.427l.316-.209c.447-.294.818-.552,1.136-.789l.344-.253-.054-.129Zm-.891-.6-.2.138-.371.251-.376.257c-.451.306-.9.611-1.354.887l.232.307h0l.205.308a4.637,4.637,0,0,1,.68-.642c.212-.161.427-.317.649-.46l.361-.235.359-.234c.089-.055.175-.116.261-.176l.065-.045.079-.057.1-.046c-.1-.178-.2-.351-.3-.518-.126.091-.257.18-.385.267m-.265-1.169a14.643,14.643,0,0,1-1.309.887l-.225.135c-.4.246-.82.5-1.2.758l.113.152c.068.091.135.18.208.281a2.24,2.24,0,0,1,.126.188c.468-.318.931-.639,1.4-.965q.367-.26.734-.519l.188-.133a2.687,2.687,0,0,1,.371-.239l-.039-.057c-.084-.117-.17-.229-.254-.338Zm-.938-.653c-.317.231-.652.448-.977.656l-.051.034-.3.194c-.444.287-.79.524-1.087.736l.105.141c.07.094.141.188.211.285l.056.079.046.075c.359-.262.741-.505,1.145-.763l.066-.042c.379-.236.818-.512,1.226-.819a.634.634,0,0,0,.212-.216c-.112-.114-.225-.223-.337-.332l-.221-.229a.226.226,0,0,1,0,.082.219.219,0,0,1-.091.119m-.6-.695c-.145.1-.29.192-.435.287l-.208.136-.153.1-.052.032-.054.035c-.343.222-.7.45-1,.679l-.277.214-.171.119.311.441c.366-.275.745-.535,1.127-.791l.222-.147c.148-.1.293-.2.44-.3.126-.083.251-.17.376-.257l.28-.2a.142.142,0,0,1,.044-.02c-.136-.1-.276-.2-.447-.331m-1.1-.55c-.3.233-.637.473-1.085.777l-.8.528c.1.133.2.268.294.4a2.485,2.485,0,0,1,.143.213,12.223,12.223,0,0,1,1.28-.926l.306-.193c.221-.14.441-.282.659-.421-.294-.156-.556-.28-.794-.378m-1.592-.049-.1.064-.093.064c-.093.065-.186.129-.277.2l-.213.165-.172.127.19.255.165.249c.209-.145.42-.289.63-.433.355-.239.71-.479,1.071-.736l0,.006s-.01.007-.01.008l.057-.033-.151-.048c-.232-.066-.471-.12-.705-.161l-.32.22Zm-1.07-.075a1.046,1.046,0,0,1-.2.124l.226.335a7.182,7.182,0,0,1,.568-.446l.218-.149.184-.125c-.141-.013-.288-.024-.433-.028h-.1l-.08-.011a.175.175,0,0,1-.065.081q-.16.107-.316.22m-.5-.267.06.082.105.035.154-.116-.069,0a.855.855,0,0,1-.251,0M466,177.969a5.565,5.565,0,0,0,.1,1.245l.02.063a7.282,7.282,0,0,0,.619,1.588,8.629,8.629,0,0,0,.6.953,10.279,10.279,0,0,0,.839,1.016,11.831,11.831,0,0,0,2.316,1.854l.016.012.014.009a11.167,11.167,0,0,0,2.322,1.035c.337.1.671.172,1.01.255-2.727-3.562-5.049-6.669-7.08-9.482l-.274-.38a4.5,4.5,0,0,0-.329.783,4.976,4.976,0,0,0-.178,1.049m-3.687-10.411a6.223,6.223,0,0,1-.48.444l.092.133a2.064,2.064,0,0,1,.193.312,1.92,1.92,0,0,0,.069-.193,3.416,3.416,0,0,0,.126-.7m-.03-.634-.118.111-.144.132-.089.081a3.375,3.375,0,0,0-.258.255l-.062.061-.056.051.082.148c.148-.137.3-.283.439-.427l.075-.077.152-.14c-.006-.066-.012-.13-.022-.2m-.108-.561c-.119.123-.245.244-.373.361l-.106.1-.29.265-.142.118.058.084.054.063c.112-.119.224-.233.341-.34l.064-.057c.151-.137.3-.276.443-.406l-.024-.089c-.008-.031-.015-.061-.025-.092m-.224-.636c-.063.07-.129.139-.2.2-.129.118-.262.234-.4.351s-.262.222-.386.339l-.076.051.1.147.077.141.29-.267.289-.269a4.475,4.475,0,0,0,.411-.424c-.033-.088-.068-.18-.108-.273m-.289-.586c-.206.219-.427.425-.646.627l-.157.144c-.107.1-.211.193-.312.276l.087.125.06.117c.036-.035.075-.07.114-.1.13-.116.263-.228.4-.342l.056-.049c.114-.1.225-.192.331-.3a.565.565,0,0,0,.179-.286l-.036-.068c-.026-.047-.052-.094-.075-.14" transform="translate(-436.021 -137.542)" fill="#c0c3b0"/>
        <path id="Trazado_192796" data-name="Trazado 192796" d="M466.433,173.666a.146.146,0,0,0,.049-.2.148.148,0,0,0-.2-.047.145.145,0,0,0-.049.2.148.148,0,0,0,.2.047" transform="translate(-443.107 -143.834)" fill="#c0c3b0"/>
        <path id="Trazado_192797" data-name="Trazado 192797" d="M468.043,175.393a.221.221,0,0,0,.073-.3.223.223,0,0,0-.3-.07.221.221,0,0,0-.073.3.224.224,0,0,0,.3.071" transform="translate(-444.164 -144.957)" fill="#c0c3b0"/>
      </g>
      <path id="Trazado_192798" data-name="Trazado 192798" d="M504.808,228.663a.231.231,0,1,0-.325-.042.234.234,0,0,0,.325.042" transform="translate(-12933.174 -12146.055)" fill="#c0c3b0"/>
      <path id="Trazado_192799" data-name="Trazado 192799" d="M492.485,211.268a.318.318,0,1,0-.448-.055.322.322,0,0,0,.448.055" transform="translate(-12924.341 -12133.616)" fill="#c0c3b0"/>
      <path id="Trazado_192800" data-name="Trazado 192800" d="M509.593,233.3a.143.143,0,1,0-.2-.025.145.145,0,0,0,.2.025" transform="translate(-12936.664 -12149.451)" fill="#c0c3b0"/>
      <path id="Trazado_192801" data-name="Trazado 192801" d="M507.644,231.7a.168.168,0,1,0-.236-.031.171.171,0,0,0,.236.031" transform="translate(-12935.256 -12148.287)" fill="#c0c3b0"/>
      <path id="Trazado_192802" data-name="Trazado 192802" d="M501.87,225.79a.367.367,0,1,0-.517-.066.373.373,0,0,0,.517.066" transform="translate(-12930.937 -12143.845)" fill="#c0c3b0"/>
      <path id="Trazado_192803" data-name="Trazado 192803" d="M497.812,221.2a.562.562,0,1,0-.791-.1.573.573,0,0,0,.791.1" transform="translate(-12927.839 -12140.348)" fill="#c0c3b0"/>
      <path id="Trazado_192804" data-name="Trazado 192804" d="M493.923,216.364a.471.471,0,1,0,.086-.658.472.472,0,0,0-.086.658" transform="translate(-12925.656 -12137.096)" fill="#c0c3b0"/>
    </g>
    <g id="Grupo_144994" data-name="Grupo 144994" transform="translate(864.055 475.053)">
      <g id="Grupo_144993" data-name="Grupo 144993" clip-path="url(#clip-path-3)">
        <path id="Trazado_192989" data-name="Trazado 192989" d="M1.623,30.042A1.624,1.624,0,0,1,0,28.419V1.623A1.623,1.623,0,0,1,2.733.438l14.3,13.4a1.623,1.623,0,0,1,0,2.369L2.733,29.6a1.622,1.622,0,0,1-1.11.439M1.707,1.816v26.41L15.8,15.021ZM15.864,15.082h0Z" transform="translate(0 0)" fill="#eaad9b"/>
        <path id="Trazado_192990" data-name="Trazado 192990" d="M114.644,30.043a3.073,3.073,0,0,1-2.048-1l-.267-.252V1.257L112.6,1c1.386-1.313,2.55-1.153,3.177-.565l14.3,13.4a1.623,1.623,0,0,1,0,2.368l-14.3,13.4a1.628,1.628,0,0,1-1.129.439m-.608-2.013a1.356,1.356,0,0,0,.593.307l14.21-13.316L114.629,1.707a1.356,1.356,0,0,0-.593.307Z" transform="translate(-96.352 -0.001)" fill="#eaad9b"/>
        <path id="Trazado_192991" data-name="Trazado 192991" d="M230.465,30.042a1.624,1.624,0,0,1-1.623-1.623V1.622A1.623,1.623,0,0,1,231.575.438l14.3,13.4a1.623,1.623,0,0,1,0,2.369l-14.3,13.4a1.622,1.622,0,0,1-1.11.439m.084-28.227v26.41l14.092-13.205Zm14.156,13.265h0Z" transform="translate(-196.293 0.001)" fill="#eaad9b"/>
        <path id="Trazado_192992" data-name="Trazado 192992" d="M341.918,30.042a1.624,1.624,0,0,1-1.623-1.623V1.622A1.623,1.623,0,0,1,343.028.438l14.3,13.4a1.623,1.623,0,0,1,0,2.369l-14.3,13.4a1.622,1.622,0,0,1-1.11.439M342,1.816v26.41l14.092-13.205Zm14.157,13.266h0Z" transform="translate(-291.894 0.001)" fill="#eaad9b"/>
      </g>
    </g>
    <g id="Grupo_144995" data-name="Grupo 144995" transform="translate(1009.939 326.349)">
      <path id="Trazado_192993" data-name="Trazado 192993" d="M0,166.994l11.967,12.369.995-.963L1.952,167.019l11-10.776-.969-.989Z" transform="translate(0 -124.551)" fill="#eaad9b"/>
      <path id="Trazado_192994" data-name="Trazado 192994" d="M228.165,166.994l11.967,12.369.995-.963-11.011-11.381,11-10.776-.969-.989Z" transform="translate(-183.043 -124.551)" fill="#eaad9b"/>
      <path id="Trazado_192995" data-name="Trazado 192995" d="M289.79,166.994l11.967,12.369.995-.963-11.011-11.381,11-10.776-.969-.989Z" transform="translate(-232.481 -124.551)" fill="#eaad9b"/>
      <path id="Trazado_192996" data-name="Trazado 192996" d="M337.178,166.994l11.967,12.369.995-.963-11.011-11.381,11-10.776-.969-.989Z" transform="translate(-270.497 -124.551)" fill="#eaad9b"/>
      <rect id="Rectángulo_43907" data-name="Rectángulo 43907" width="66.681" height="1.384" transform="translate(0.976 41.763)" fill="#eaad9b"/>
      <path id="Trazado_192997" data-name="Trazado 192997" d="M340.578,0l-.969.989,11,10.777L339.6,23.146l.995.963,11.967-12.369Z" transform="translate(-272.437)" fill="#eaad9b"/>
      <path id="Trazado_192998" data-name="Trazado 192998" d="M112.413,0l-.969.989,11,10.777L111.431,23.146l.995.963,11.967-12.369Z" transform="translate(-89.394)" fill="#eaad9b"/>
      <path id="Trazado_192999" data-name="Trazado 192999" d="M50.788,0l-.969.989,11,10.777L49.806,23.146l.995.963L62.769,11.739Z" transform="translate(-39.957)" fill="#eaad9b"/>
      <path id="Trazado_193000" data-name="Trazado 193000" d="M3.4,0,2.431.988l11,10.777L2.419,23.146l.995.963L15.381,11.739Z" transform="translate(-1.94)" fill="#eaad9b"/>
      <rect id="Rectángulo_43908" data-name="Rectángulo 43908" width="66.681" height="1.384" transform="translate(12.465 11.06)" fill="#eaad9b"/>
    </g>
    <rect id="Rectángulo_43909" data-name="Rectángulo 43909" width="635" height="450" transform="translate(825.333 127)" fill="none"/>
  </g>
</svg>
