<svg xmlns="http://www.w3.org/2000/svg" xmlns:xlink="http://www.w3.org/1999/xlink" width="545.815" height="219.002" viewBox="0 0 545.815 219.002">
  <defs>
    <clipPath id="clip-path">
      <rect id="Rect치ngulo_43924" data-name="Rect치ngulo 43924" width="492.124" height="166.386" fill="none"/>
    </clipPath>
  </defs>
  <g id="Grupo_145308" data-name="Grupo 145308" transform="translate(-874.179 -442)">
    <path id="Uni칩n_2" data-name="Uni칩n 2" d="M13112.334,12204.994v-395.5a110.075,110.075,0,0,1,2.226-22.068,108.975,108.975,0,0,1,16.474-39.155,109.768,109.768,0,0,1,48.179-39.67,108.842,108.842,0,0,1,20.557-6.381,110.553,110.553,0,0,1,44.133,0,108.922,108.922,0,0,1,39.155,16.475,109.832,109.832,0,0,1,39.674,48.179,109.01,109.01,0,0,1,6.38,20.553,110.361,110.361,0,0,1,2.226,22.068v79.487h0v316.008Z" transform="translate(-10785 13773.336) rotate(-90)" fill="#f8ddd5"/>
    <g id="Grupo_145016" data-name="Grupo 145016" transform="translate(874.179 494.616)">
      <g id="Grupo_145015" data-name="Grupo 145015" clip-path="url(#clip-path)">
        <path id="Trazado_193064" data-name="Trazado 193064" d="M747.436,259.185c0-.034,0-.066,0-.1l-.057.056.056.044" transform="translate(-564.512 -195.692)" fill="#eebc80"/>
        <path id="Trazado_193065" data-name="Trazado 193065" d="M613.471,471.711c-1.232,1.182-2.548,2.356-3.97,3.508l1.36,1.359a19.275,19.275,0,0,1,2.611-4.867" transform="translate(-460.369 -356.293)" fill="#eebc80"/>
        <path id="Trazado_193066" data-name="Trazado 193066" d="M1044.554,208.832l.935.819c5.33-5.445,13.91-9.866,24.408-12.547,0-.053,0-.105,0-.159a.476.476,0,0,1,.477-.476.464.464,0,0,1,.45.41q1.428-.347,2.9-.65c0-.15,0-.3,0-.447a.477.477,0,1,1,.955,0c0,.084,0,.166,0,.25.554-.108,1.118-.206,1.68-.305,0-.422-.01-.841-.01-1.266a.477.477,0,1,1,.953,0c0,.368.006.731.009,1.1q1.177-.193,2.378-.357c0-.311-.007-.619-.007-.931a.476.476,0,0,1,.476-.479V179.711a27.869,27.869,0,0,1-3.158-4.839c7.78-5.428-6.9-21.811,1.333-25.256,8.8-3.682,1.023-11.867,7.659-13.709,4.8-1.331,6.538-5.647,7.136-7.941h.027c11.086,0,20.087,6.639,20.25,28.691,1.457-1.208,3.042-1.716,4.432-1.235,2.847.987,3.785,5.74,2.1,10.615s-5.369,8.029-8.216,7.042a3.372,3.372,0,0,1-1.21-.757,28.624,28.624,0,0,1-4.976,8.093v14.58l.284.035c0-.254.006-.506.006-.761a.478.478,0,1,1,.956,0c0,.294,0,.584-.007.877.764.1,1.519.216,2.27.335,0-.34.009-.678.009-1.02a.478.478,0,0,1,.956,0c0,.4-.007.785-.01,1.178.563.1,1.123.194,1.678.3,0-.052,0-.1,0-.155a.478.478,0,1,1,.957,0c0,.115,0,.229,0,.345q1.494.3,2.943.645a.451.451,0,0,1,.406-.3.477.477,0,0,1,.478.476c0,.012,0,.024,0,.036,11.253,2.8,20.361,7.584,25.689,13.495-14.771,16.617-8.087,36.6-2.865,46.942l9.963-38.229.02,0c1.21-8.3,9.05-15.591,20.68-20.335-.01-.525-.025-1.048-.025-1.577a.477.477,0,0,1,.955,0c0,.4.013.8.02,1.2q2.028-.789,4.2-1.475c0-.343-.016-.683-.016-1.027a.472.472,0,0,1,.447-.464c0-.194-.009-.385-.009-.58a.477.477,0,1,1,.955,0c0,.549.012,1.093.026,1.637,1.369-.4,2.778-.77,4.218-1.107,0-.177-.008-.352-.008-.53a.479.479,0,0,1,.476-.479c.05,0,.083.039.129.053.046-.014.078-.053.129-.053a.478.478,0,0,1,.476.479c0,.087.009.172.01.259,2.5-.546,5.1-.989,7.779-1.324V178.571a29.278,29.278,0,0,1-4.35-7.392,3.37,3.37,0,0,1-1.211.757c-1.741.6-3.792-.347-5.511-2.288-3.213,7.134-10.626,18.96-27.519,32.844a36.093,36.093,0,0,1-.916-9.841c.817-29.189-28.645-6.274-21.281-28.4S1122.086,149,1117.67,134c-3.98-13.529-21.431-11.09-24.827-10.479-3.4-.611-20.848-3.05-24.828,10.479-4.416,15.005-18.6,8.121-11.235,30.25s-22.1-.785-21.281,28.4a31.146,31.146,0,0,1-2.55,14.313,18.617,18.617,0,0,1,4.383,9.089Zm23.92-53.411a3.671,3.671,0,0,1,2.449.073c.075,1.049.181,2.08.3,3.1a2.049,2.049,0,0,0-1.759-.362c-1.573.544-1.921,3.66-.777,6.959,1.1,3.17,3.166,5.326,4.722,5.011.293,1.143.569,2.14.813,2.971-2.789.609-6.226-2.469-7.843-7.137-1.691-4.875-.753-9.628,2.094-10.615" transform="translate(-780.208 -92.87)" fill="#1f0f0b"/>
        <path id="Trazado_193067" data-name="Trazado 193067" d="M1208.368,448.4a122.885,122.885,0,0,1-3.2-28.028c-.563.1-1.126.2-1.68.305a149.893,149.893,0,0,0,2.494,27.723Z" transform="translate(-909.022 -317.517)" fill="#a76b4a"/>
        <path id="Trazado_193068" data-name="Trazado 193068" d="M1189.826,449.952h3.341a148.057,148.057,0,0,1-2.527-27.525q-1.471.3-2.9.65c0,.025.028.04.028.066a169.249,169.249,0,0,0,2.058,26.809" transform="translate(-897.125 -319.068)" fill="#a76b4a"/>
        <path id="Trazado_193069" data-name="Trazado 193069" d="M1220.106,446.775c-2.116-7.5-3.408-17.458-3.477-28.554q-1.2.166-2.378.357a122.35,122.35,0,0,0,3.247,28.2Z" transform="translate(-917.148 -315.891)" fill="#a76b4a"/>
        <path id="Trazado_193070" data-name="Trazado 193070" d="M1351.595,449.635a169.263,169.263,0,0,0,2.058-26.809c0-.068.047-.115.072-.174q-1.45-.344-2.943-.645a148.168,148.168,0,0,1-2.527,27.628Z" transform="translate(-1018.365 -318.751)" fill="#a76b4a"/>
        <path id="Trazado_193071" data-name="Trazado 193071" d="M1337.136,448.129a149.95,149.95,0,0,0,2.494-27.818c-.554-.1-1.114-.2-1.677-.3a122.966,122.966,0,0,1-3.2,28.116Z" transform="translate(-1008.168 -317.245)" fill="#a76b4a"/>
        <path id="Trazado_193072" data-name="Trazado 193072" d="M1322.928,446.607a122.416,122.416,0,0,0,3.248-28.274c-.751-.119-1.506-.233-2.27-.335-.065,11.118-1.36,21.1-3.48,28.609Z" transform="translate(-997.345 -315.723)" fill="#a76b4a"/>
        <path id="Trazado_193073" data-name="Trazado 193073" d="M1226.364,379.645c0,11.312,1.383,21.759,3.593,29.486h18c2.16-7.553,3.526-17.706,3.587-28.725l-.283-.034v-2.987c-19.125,10.435-25.372-9-25.372-9v10.784a.478.478,0,0,1,.478.479" transform="translate(-925.937 -278.247)" fill="#a76b4a"/>
        <path id="Trazado_193074" data-name="Trazado 193074" d="M1251.259,367.217V355.624c-3.424,3.832-7.709,6.136-12.374,6.136-4.949,0-9.48-2.575-13-6.839v3.294s6.248,19.438,25.372,9" transform="translate(-925.938 -268.079)" fill="#6f3217"/>
        <path id="Trazado_193075" data-name="Trazado 193075" d="M1174.829,272.851c-.243-.831-.519-1.828-.813-2.971-1.556.316-3.625-1.841-4.722-5.011-1.144-3.3-.8-6.415.777-6.959a2.05,2.05,0,0,1,1.759.362c-.119-1.02-.226-2.051-.3-3.1a3.673,3.673,0,0,0-2.449-.073c-2.847.987-3.785,5.74-2.094,10.615,1.616,4.668,5.053,7.746,7.842,7.137" transform="translate(-880.814 -192.549)" fill="#a76b4a"/>
        <path id="Trazado_193076" data-name="Trazado 193076" d="M1355.722,278.829c1.572.544,3.772-1.687,4.917-4.987s.8-6.414-.775-6.959c-1.076-.373-2.44.572-3.564,2.25a39.678,39.678,0,0,1-1.612,8.625,1.889,1.889,0,0,0,1.035,1.071" transform="translate(-1023.223 -201.521)" fill="#1f0f0b"/>
        <path id="Trazado_193077" data-name="Trazado 193077" d="M1225.238,202.02c4.665,0,8.949-2.3,12.374-6.136a28.624,28.624,0,0,0,4.976-8.093,3.37,3.37,0,0,0,1.21.757c2.847.987,6.527-2.166,8.216-7.042s.752-9.628-2.1-10.615c-1.389-.481-2.975.027-4.432,1.235-.163-22.052-9.164-28.691-20.25-28.691h-.028c-.6,2.294-2.336,6.61-7.136,7.942-6.636,1.842,1.139,10.027-7.659,13.709-8.23,3.446,6.447,19.829-1.333,25.256a27.848,27.848,0,0,0,3.158,4.839c3.518,4.264,8.049,6.839,13,6.839m20.129-26.069c1.124-1.678,2.488-2.623,3.564-2.25,1.572.544,1.918,3.66.775,6.959s-3.345,5.531-4.917,4.987a1.889,1.889,0,0,1-1.035-1.071,39.685,39.685,0,0,0,1.612-8.625m-6.988,1.187c0,1.037-1.47,1.879-3.281,1.879s-3.284-.842-3.284-1.879,1.47-1.881,3.284-1.881,3.281.841,3.281,1.881m-4.895-11.025c.518,0,.937.835.937,1.864s-.419,1.862-.937,1.862-.937-.833-.937-1.862.419-1.864.937-1.864m-2.1,4.61a.48.48,0,0,1,.6.312,3.8,3.8,0,0,0,3.5,2.343.477.477,0,0,1-.035.954h-.038a4.725,4.725,0,0,1-4.338-3.01.478.478,0,0,1,.312-.6m-7.25-.763a1.488,1.488,0,0,1,2.812-.249c1.061,2.777-.28,9.119-2.472,9.3-2.4.2-1.04-6.248-.34-9.051m-3.835,12.621a16.579,16.579,0,0,0,2.627.651l.043.007.324.035c.193.017.386.031.579.042.451.026.9.032,1.356.018s.9-.05,1.35-.1l.076-.007.1-.021c.255-.05.507-.09.76-.145a15.817,15.817,0,0,0,2.585-.8,2.254,2.254,0,0,1,2.744,1.558,2.288,2.288,0,0,1-1.559,2.744,17.767,17.767,0,0,1-12.17.323,2.284,2.284,0,0,1-1.558-2.744,2.247,2.247,0,0,1,2.744-1.559m-3.445-16.468c.518,0,.937.835.937,1.864s-.419,1.862-.937,1.862-.937-.833-.937-1.862.42-1.864.937-1.864m-1.995,7.265a3.8,3.8,0,0,0,3.5-2.343.482.482,0,0,1,.6-.311.477.477,0,0,1,.309.6,4.726,4.726,0,0,1-4.338,3.01h-.036a.477.477,0,0,1-.036-.954m-2.225,3.76c0-1.04,1.47-1.881,3.282-1.881s3.282.841,3.282,1.881-1.47,1.879-3.282,1.879-3.282-.842-3.282-1.879" transform="translate(-912.291 -108.339)" fill="#a76b4a"/>
        <path id="Trazado_193078" data-name="Trazado 193078" d="M1271.681,257.359c2.193-.181,3.533-6.524,2.472-9.3a1.488,1.488,0,0,0-2.812.249c-.7,2.8-2.056,9.252.34,9.051" transform="translate(-959.5 -186.686)" fill="#7c4730"/>
        <path id="Trazado_193079" data-name="Trazado 193079" d="M1234.056,275.375c0-1.04-1.47-1.881-3.283-1.881s-3.282.841-3.282,1.881,1.47,1.879,3.282,1.879,3.283-.842,3.283-1.879" transform="translate(-927.15 -206.576)" fill="#7c4730"/>
        <path id="Trazado_193080" data-name="Trazado 193080" d="M1305.885,275.375c0,1.037,1.47,1.879,3.284,1.879s3.281-.842,3.281-1.879-1.47-1.881-3.281-1.881-3.284.841-3.284,1.881" transform="translate(-986.362 -206.576)" fill="#7c4730"/>
        <path id="Trazado_193081" data-name="Trazado 193081" d="M1241.844,239.847c.518,0,.937-.832.937-1.862s-.419-1.864-.937-1.864-.937.835-.937,1.864.42,1.862.937,1.862" transform="translate(-937.283 -178.347)" fill="#1f0f0b"/>
        <path id="Trazado_193082" data-name="Trazado 193082" d="M1309.82,239.847c.518,0,.937-.832.937-1.862s-.419-1.864-.937-1.864-.937.835-.937,1.864.419,1.862.937,1.862" transform="translate(-988.627 -178.347)" fill="#1f0f0b"/>
        <path id="Trazado_193083" data-name="Trazado 193083" d="M1247.4,303.622a2.284,2.284,0,0,0,1.558,2.744,17.765,17.765,0,0,0,12.17-.323,2.287,2.287,0,0,0,1.559-2.744,2.254,2.254,0,0,0-2.744-1.558,15.84,15.84,0,0,1-2.585.8c-.253.054-.505.095-.76.145l-.1.021-.076.007c-.449.047-.9.084-1.35.1s-.9.009-1.356-.018c-.194-.011-.386-.025-.579-.042l-.325-.035-.043-.007a16.569,16.569,0,0,1-2.627-.652,2.248,2.248,0,0,0-2.744,1.559m1.288.714a.48.48,0,0,1,.58-.345c.061.014,6.216,1.529,11.095-.669a.477.477,0,1,1,.391.87,16.412,16.412,0,0,1-6.679,1.286,22.376,22.376,0,0,1-5.041-.562.476.476,0,0,1-.347-.579" transform="translate(-942.141 -227.821)" fill="#7c4730"/>
        <path id="Trazado_193084" data-name="Trazado 193084" d="M1253.167,310.034a22.377,22.377,0,0,0,5.041.562,16.412,16.412,0,0,0,6.679-1.286.477.477,0,1,0-.391-.87c-4.879,2.2-11.034.684-11.095.67a.477.477,0,1,0-.234.924" transform="translate(-946.271 -232.94)" fill="#1f0f0b"/>
        <path id="Trazado_193085" data-name="Trazado 193085" d="M1235.26,258.509h.036a4.725,4.725,0,0,0,4.338-3.01.476.476,0,0,0-.309-.6.481.481,0,0,0-.6.311,3.8,3.8,0,0,1-3.5,2.343.477.477,0,0,0,.036.953" transform="translate(-932.658 -192.516)" fill="#1f0f0b"/>
        <path id="Trazado_193086" data-name="Trazado 193086" d="M1307.117,258.507h.037a.477.477,0,0,0,.035-.954,3.8,3.8,0,0,1-3.5-2.343.477.477,0,1,0-.911.287,4.725,4.725,0,0,0,4.338,3.01" transform="translate(-983.999 -192.514)" fill="#1f0f0b"/>
        <path id="Trazado_193087" data-name="Trazado 193087" d="M1236.8,534.922h-3.34c-3.347,17.209-9.677,28.851-16.924,28.851s-13.576-11.642-16.923-28.851h-3.341c2.86,17.673,8.454,31,15.217,35.5h10.094c6.764-4.5,12.358-17.829,15.217-35.5" transform="translate(-903.565 -404.038)" fill="#f4dfc3"/>
        <path id="Trazado_193088" data-name="Trazado 193088" d="M1085.511,488.859h-10.4l-16.09-14.1-.935-.819-7.222,7.222c.047.3.1.6.128.9h.069l2.311,30.454,1,11.843h45.8c-6.529-5.34-11.875-18.463-14.657-35.5" transform="translate(-793.74 -357.975)" fill="#f4dfc3"/>
        <path id="Trazado_193089" data-name="Trazado 193089" d="M1320.464,534.922c-2.783,17.039-8.129,30.162-14.657,35.5h32.782l-9.253-35.5Z" transform="translate(-986.303 -404.038)" fill="#f4dfc3"/>
        <path id="Trazado_193090" data-name="Trazado 193090" d="M1229.687,554.934c-5.662,0-10.585-7.8-13.62-20.012h-2.383c3.206,16.661,9.176,27.9,16,27.9s12.8-11.236,16-27.9h-2.381c-3.035,12.209-7.958,20.012-13.62,20.012" transform="translate(-916.721 -404.038)" fill="#f4dfc3"/>
        <path id="Trazado_193091" data-name="Trazado 193091" d="M1240.191,549.04c-4.033,0-7.6-5.4-10.062-14.118h-2.609c2.9,11.572,7.478,19.057,12.618,19.057s9.713-7.485,12.616-19.057h-2.5c-2.461,8.721-6.03,14.118-10.062,14.118" transform="translate(-927.172 -404.038)" fill="#f4dfc3"/>
        <path id="Trazado_193092" data-name="Trazado 193092" d="M1251.524,548.085c3.485,0,6.692-5.1,9-13.163h-18c2.307,8.063,5.513,13.163,9,13.163" transform="translate(-938.504 -404.038)" fill="#f4dfc3"/>
        <path id="Trazado_193093" data-name="Trazado 193093" d="M1393.483,439c-5.328-5.911-14.436-10.7-25.689-13.495a167.6,167.6,0,0,1-2.083,26.773h8.871l9.253,35.5h6.3l.479-1.838c-5.222-10.338-11.906-30.325,2.865-46.942" transform="translate(-1031.55 -321.391)" fill="#a76b4a"/>
        <path id="Trazado_193094" data-name="Trazado 193094" d="M1110.69,452.654a167.529,167.529,0,0,1-2.082-26.65c-10.5,2.681-19.078,7.1-24.408,12.547l16.09,14.1Z" transform="translate(-818.919 -321.77)" fill="#a76b4a"/>
        <path id="Trazado_193095" data-name="Trazado 193095" d="M1237.487,456.54c4.032,0,7.6-5.4,10.061-14.118,2.12-7.511,3.414-17.491,3.48-28.609,0-.293.007-.583.007-.877a.478.478,0,1,0-.956,0c0,.255,0,.506-.006.761-.061,11.019-1.427,21.172-3.587,28.725-2.306,8.063-5.513,13.163-9,13.163s-6.693-5.1-9-13.163c-2.21-7.727-3.593-18.173-3.593-29.486a.477.477,0,1,0-.954,0c0,.312.005.62.007.931.069,11.1,1.362,21.056,3.477,28.554,2.461,8.721,6.029,14.118,10.062,14.118" transform="translate(-924.468 -311.537)" fill="#830a15"/>
        <path id="Trazado_193096" data-name="Trazado 193096" d="M1227.142,463.031c5.662,0,10.586-7.8,13.62-20.012a122.934,122.934,0,0,0,3.2-28.116c0-.393.01-.782.01-1.178a.478.478,0,0,0-.956,0c0,.342-.006.679-.009,1.02a122.413,122.413,0,0,1-3.248,28.274c-2.9,11.572-7.477,19.057-12.616,19.057s-9.714-7.485-12.618-19.057a122.363,122.363,0,0,1-3.247-28.2c0-.366-.009-.729-.009-1.1a.477.477,0,1,0-.954,0c0,.425.007.844.01,1.266a122.9,122.9,0,0,0,3.2,28.028c3.035,12.209,7.958,20.012,13.62,20.012" transform="translate(-914.176 -312.135)" fill="#830a15"/>
        <path id="Trazado_193097" data-name="Trazado 193097" d="M1219.033,475.944c7.247,0,13.576-11.642,16.924-28.851a148.157,148.157,0,0,0,2.528-27.628c0-.115,0-.229,0-.345a.478.478,0,1,0-.956,0c0,.052,0,.1,0,.155a149.929,149.929,0,0,1-2.495,27.818c-3.205,16.661-9.176,27.9-16,27.9s-12.8-11.236-16-27.9a149.924,149.924,0,0,1-2.494-27.723c0-.084,0-.166,0-.25a.477.477,0,1,0-.955,0c0,.15,0,.3,0,.447a148.088,148.088,0,0,0,2.527,27.525c3.348,17.209,9.677,28.851,16.924,28.851" transform="translate(-906.067 -316.209)" fill="#830a15"/>
        <path id="Trazado_193098" data-name="Trazado 193098" d="M1315.861,450.695a167.566,167.566,0,0,0,2.083-26.773c0-.012,0-.024,0-.036a.477.477,0,0,0-.477-.476.451.451,0,0,0-.407.3c-.026.059-.073.106-.073.174a169.235,169.235,0,0,1-2.058,26.809c-2.859,17.673-8.453,31-15.217,35.5h1.491c6.529-5.34,11.875-18.463,14.658-35.5" transform="translate(-981.7 -319.81)" fill="#830a15"/>
        <path id="Trazado_193099" data-name="Trazado 193099" d="M1186.964,450.695a169.234,169.234,0,0,1-2.058-26.809c0-.026-.024-.042-.028-.066a.464.464,0,0,0-.45-.41.476.476,0,0,0-.477.476c0,.053,0,.106,0,.159a167.528,167.528,0,0,0,2.083,26.65c2.783,17.039,8.128,30.162,14.657,35.5h1.49c-6.762-4.5-12.357-17.829-15.217-35.5" transform="translate(-894.262 -319.81)" fill="#830a15"/>
        <path id="Trazado_193100" data-name="Trazado 193100" d="M675.323,343.821a.638.638,0,0,1,1.275,0c0,.109.015.215.016.324q3.141-.93,6.53-1.639c0-.136-.016-.268-.016-.4a.637.637,0,0,1,1.273,0c0,.048.006.095.006.143q2.617-.507,5.357-.871V329.846a29.286,29.286,0,0,1-4.35-7.392,3.373,3.373,0,0,1-1.211.756,4.556,4.556,0,0,1-4.26-1.1c-1.36,3.712-4.077,8.645-9.435,14.577a48.631,48.631,0,0,0-9.08,14.138,59,59,0,0,1,13.931-6.3c-.006-.236-.036-.466-.036-.7" transform="translate(-499.59 -243.296)" fill="#1f0f0b"/>
        <path id="Trazado_193101" data-name="Trazado 193101" d="M887.123,322.96a3.374,3.374,0,0,1-1.212-.757,28.626,28.626,0,0,1-4.977,8.1v10.681c2.055.248,4.068.553,6.025.921,0-.017,0-.034,0-.052a.636.636,0,1,1,1.272,0c0,.1-.011.2-.012.3,2.147.435,4.233.935,6.237,1.505,0-.03,0-.058,0-.088a.636.636,0,1,1,1.272,0c0,.157-.021.309-.023.464a60.408,60.408,0,0,1,14.187,6.215,48.815,48.815,0,0,0-8.947-13.813c-5.4-5.975-8.115-10.937-9.465-14.658a4.618,4.618,0,0,1-4.363,1.183" transform="translate(-665.388 -243.045)" fill="#1f0f0b"/>
        <path id="Trazado_193102" data-name="Trazado 193102" d="M1051.386,507.151c.045.472.068.946.068,1.424,0,.332-.026.66-.047.989l2.359,28.041-2.311-30.454Z" transform="translate(-794.134 -383.062)" fill="#172751"/>
        <path id="Trazado_193103" data-name="Trazado 193103" d="M613.8,432.036l4,4-4.4,4.4,9.828,37.7H723.939l-1-11.843-2.359-28.041c.022-.329.048-.657.048-.989,0-.478-.024-.952-.069-1.424-.028-.3-.081-.6-.128-.9a18.615,18.615,0,0,0-4.383-9.089,34.114,34.114,0,0,0-8.23-6.892,60.4,60.4,0,0,0-14.187-6.214,27.284,27.284,0,0,1-54.556.239,59,59,0,0,0-13.931,6.3,38.607,38.607,0,0,0-4.29,3.156,61.977,61.977,0,0,1-4.445,4.734,19.271,19.271,0,0,0-2.61,4.867" transform="translate(-463.311 -311.751)" fill="#4b5a86"/>
        <path id="Trazado_193104" data-name="Trazado 193104" d="M749.513,432.5a26.062,26.062,0,0,0,26.03-25.947c-2-.57-4.09-1.07-6.237-1.505-.132,13.3-8.885,24.074-19.641,24.074-10.729,0-19.462-10.718-19.638-23.971q-3.384.707-6.53,1.639A26.055,26.055,0,0,0,749.513,432.5" transform="translate(-546.472 -305.941)" fill="#4b5a86"/>
        <path id="Trazado_193105" data-name="Trazado 193105" d="M773.721,424.234c10.12,0,18.356-10.336,18.379-23.05q-2.937-.551-6.026-.921v5.416a12.686,12.686,0,1,1-25.372,0V400.4q-2.736.364-5.357.871c.062,12.671,8.278,22.959,18.375,22.959" transform="translate(-570.529 -302.327)" fill="#4b5a86"/>
        <path id="Trazado_193106" data-name="Trazado 193106" d="M789.926,393.379a12.686,12.686,0,0,0,12.685-12.687v-4.507c-19.124,10.438-25.372-9-25.372-9v13.51a12.688,12.688,0,0,0,12.687,12.687" transform="translate(-587.065 -277.34)" fill="#dba387"/>
        <path id="Trazado_193107" data-name="Trazado 193107" d="M802.611,366.023V354.434c-3.424,3.832-7.707,6.135-12.371,6.135-4.951,0-9.482-2.575-13-6.84v3.292s6.248,19.44,25.372,9" transform="translate(-587.065 -267.179)" fill="#a2725a"/>
        <path id="Trazado_193108" data-name="Trazado 193108" d="M726.558,211.352a3.369,3.369,0,0,0,1.211-.756,29.276,29.276,0,0,0,4.35,7.391c3.519,4.265,8.05,6.84,13,6.84,4.664,0,8.947-2.3,12.371-6.135a28.62,28.62,0,0,0,4.978-8.1,3.368,3.368,0,0,0,1.212.757,4.618,4.618,0,0,0,4.364-1.183,13.134,13.134,0,0,0,3.851-5.859c1.691-4.876.753-9.629-2.1-10.616-1.389-.482-2.976.028-4.433,1.237,0-.129,0-.256,0-.384-.047.114-.081.225-.129.338,0,0-10.713-10.179-13.16-20.867-2.246.047-4.564.072-6.937.072-2.453,0-4.848-.026-7.165-.077-2.379,10.4-12.55,20.288-13.1,20.815,0,.034,0,.066,0,.1l-.056-.044h0v0a4.621,4.621,0,0,0-4.371-1.189c-2.848.987-3.785,5.739-2.1,10.616a13.011,13.011,0,0,0,3.954,5.94,4.555,4.555,0,0,0,4.26,1.1m38.688-12.593c1.124-1.679,2.488-2.625,3.565-2.253,1.572.546,1.921,3.661.777,6.959s-3.346,5.53-4.918,4.986a1.885,1.885,0,0,1-1.034-1.071,39.691,39.691,0,0,0,1.611-8.622m-6.35,3.934c0,1.112-1.572,2.013-3.512,2.013s-3.512-.9-3.512-2.013,1.572-2.012,3.512-2.012,3.512.9,3.512,2.012m-5.237-11.8c.554,0,1,.894,1,1.995s-.448,2-1,2-1-.894-1-2,.45-1.995,1-1.995m-2.241,4.968a.479.479,0,0,1,.6.311,4.094,4.094,0,0,0,3.775,2.534.477.477,0,0,1-.038.954h-.035a5.024,5.024,0,0,1-4.615-3.2.477.477,0,0,1,.312-.6m-7.766-.848a1.592,1.592,0,0,1,3.008-.267c1.135,2.972-.3,9.759-2.646,9.955-2.565.213-1.112-6.686-.362-9.687m-4.107,13.507a18.248,18.248,0,0,0,2.806.7l.4.045c.207.017.413.032.621.045.483.029.966.035,1.45.02s.963-.054,1.445-.1l.063-.006.122-.026c.273-.051.546-.094.816-.153a17.035,17.035,0,0,0,2.766-.861,2.413,2.413,0,0,1,2.936,1.668,2.448,2.448,0,0,1-1.668,2.936,19,19,0,0,1-13.026.345,2.446,2.446,0,0,1-1.668-2.937,2.406,2.406,0,0,1,2.937-1.667m-3.686-17.628c.553,0,1,.894,1,1.995s-.449,2-1,2-1-.894-1-2,.45-1.995,1-1.995m-2.133,7.812a4.093,4.093,0,0,0,3.774-2.534.485.485,0,0,1,.6-.311.478.478,0,0,1,.312.6,5.02,5.02,0,0,1-4.612,3.2h-.038a.477.477,0,0,1-.035-.954m1.129,1.975c1.939,0,3.512.9,3.512,2.012s-1.573,2.013-3.512,2.013-3.514-.9-3.514-2.013,1.573-2.012,3.514-2.012m-14.2,2.784c-1.144-3.3-.8-6.413.777-6.959,1.075-.372,2.438.573,3.563,2.251a39.7,39.7,0,0,0,1.612,8.625,1.884,1.884,0,0,1-1.034,1.07c-1.573.544-3.775-1.687-4.918-4.986" transform="translate(-541.945 -131.437)" fill="#dba387"/>
        <path id="Trazado_193109" data-name="Trazado 193109" d="M734.24,276.565a39.7,39.7,0,0,1-1.612-8.625c-1.125-1.678-2.488-2.623-3.563-2.251-1.573.546-1.921,3.661-.777,6.959s3.345,5.531,4.918,4.986a1.884,1.884,0,0,0,1.034-1.07" transform="translate(-549.582 -200.62)" fill="#1f0f0b"/>
        <path id="Trazado_193110" data-name="Trazado 193110" d="M907.075,277.635c1.572.544,3.775-1.687,4.918-4.986s.795-6.414-.777-6.959c-1.076-.372-2.44.573-3.565,2.253a39.7,39.7,0,0,1-1.611,8.622,1.884,1.884,0,0,0,1.034,1.071" transform="translate(-684.352 -200.62)" fill="#1f0f0b"/>
        <path id="Trazado_193111" data-name="Trazado 193111" d="M821.355,265.74c2.347-.2,3.781-6.983,2.646-9.955a1.592,1.592,0,0,0-3.008.267c-.75,3-2.2,9.9.362,9.687" transform="translate(-619.287 -192.475)" fill="#a2725a"/>
        <path id="Trazado_193112" data-name="Trazado 193112" d="M777.572,287.025c1.939,0,3.512-.9,3.512-2.013S779.511,283,777.572,283s-3.514.9-3.514,2.012,1.573,2.013,3.514,2.013" transform="translate(-584.662 -213.757)" fill="#a2725a"/>
        <path id="Trazado_193113" data-name="Trazado 193113" d="M857.966,285.012c0,1.112,1.571,2.013,3.512,2.013s3.512-.9,3.512-2.013S863.418,283,861.478,283s-3.512.9-3.512,2.012" transform="translate(-648.04 -213.756)" fill="#a2725a"/>
        <path id="Trazado_193114" data-name="Trazado 193114" d="M789.422,246.991c.553,0,1-.894,1-2s-.45-1.995-1-1.995-1,.894-1,1.995.45,2,1,2" transform="translate(-595.509 -183.542)" fill="#1f0f0b"/>
        <path id="Trazado_193115" data-name="Trazado 193115" d="M862.173,246.991c.554,0,1-.894,1-2s-.448-1.995-1-1.995-1,.894-1,1.995.449,2,1,2" transform="translate(-650.459 -183.542)" fill="#1f0f0b"/>
        <path id="Trazado_193116" data-name="Trazado 193116" d="M795.369,315.25a2.446,2.446,0,0,0,1.668,2.937,19.006,19.006,0,0,0,13.026-.345,2.448,2.448,0,0,0,1.667-2.936,2.413,2.413,0,0,0-2.936-1.667,17.03,17.03,0,0,1-2.766.862c-.27.058-.543.1-.816.153-.06.012-.1.02-.122.026l-.063.006c-.482.049-.963.089-1.445.1s-.967.01-1.45-.02c-.207-.012-.414-.028-.621-.044l-.4-.045a18.252,18.252,0,0,1-2.806-.7,2.406,2.406,0,0,0-2.937,1.667m1.412.774a.478.478,0,0,1,.579-.345c.067.015,6.662,1.638,11.9-.718a.477.477,0,0,1,.391.87,17.547,17.547,0,0,1-7.136,1.375,23.806,23.806,0,0,1-5.384-.6.476.476,0,0,1-.347-.579" transform="translate(-600.707 -236.498)" fill="#a2725a"/>
        <path id="Trazado_193117" data-name="Trazado 193117" d="M801.652,322.182a23.775,23.775,0,0,0,5.384.6,17.548,17.548,0,0,0,7.136-1.376.477.477,0,0,0-.391-.87c-5.234,2.357-11.83.734-11.9.718a.477.477,0,1,0-.232.924" transform="translate(-605.232 -242.078)" fill="#1f0f0b"/>
        <path id="Trazado_193118" data-name="Trazado 193118" d="M782.468,267.038h.038a5.02,5.02,0,0,0,4.612-3.2.478.478,0,0,0-.312-.6.484.484,0,0,0-.6.31,4.093,4.093,0,0,1-3.774,2.533.477.477,0,0,0,.035.954" transform="translate(-590.652 -198.815)" fill="#1f0f0b"/>
        <path id="Trazado_193119" data-name="Trazado 193119" d="M859.383,267.032h.035a.477.477,0,0,0,.038-.954,4.093,4.093,0,0,1-3.775-2.533.478.478,0,0,0-.912.288,5.023,5.023,0,0,0,4.615,3.2" transform="translate(-645.608 -198.81)" fill="#1f0f0b"/>
        <path id="Trazado_193120" data-name="Trazado 193120" d="M739.091,192.649l.058-.056c.55-.527,10.72-10.413,13.1-20.815-5.495-.119-10.539-.371-14.837-.725a34.4,34.4,0,0,0,1.677,21.593v0Z" transform="translate(-556.223 -129.201)" fill="#1f0f0b"/>
        <path id="Trazado_193121" data-name="Trazado 193121" d="M871.948,192.709c.049-.114.082-.225.129-.338a34.467,34.467,0,0,0,1.552-21.238c-4.307.348-9.356.6-14.841.71,2.448,10.688,13.16,20.867,13.16,20.867" transform="translate(-648.661 -129.26)" fill="#1f0f0b"/>
        <path id="Trazado_193122" data-name="Trazado 193122" d="M718.214,152.442c2.373,0,4.691-.025,6.937-.072,5.486-.115,10.535-.361,14.842-.71,8.849-.716,14.575-1.858,14.575-3.145,0-1.233-5.268-2.332-13.5-3.052a1.268,1.268,0,0,1-.99,1.039,105.087,105.087,0,0,1-21.444,2.186,91.8,91.8,0,0,1-21.006-2.2,1.258,1.258,0,0,1-.94-1.137c-8.989.715-14.826,1.865-14.826,3.163,0,1.276,5.632,2.409,14.351,3.126,4.3.353,9.342.606,14.837.724,2.317.05,4.712.077,7.165.077" transform="translate(-515.024 -109.787)" fill="#e2cfb3"/>
        <path id="Trazado_193123" data-name="Trazado 193123" d="M789.457,128a1.218,1.218,0,0,1,.751.094c-.621-2.2-9.838-3.941-21.152-3.941-11.151,0-20.274,1.694-21.131,3.845a1.229,1.229,0,0,1,.232.012,101.6,101.6,0,0,0,41.3-.011" transform="translate(-564.923 -93.776)" fill="#e2cfb3"/>
        <path id="Trazado_193124" data-name="Trazado 193124" d="M743.371,142.276a91.8,91.8,0,0,0,21.006,2.2,105.086,105.086,0,0,0,21.443-2.186,1.295,1.295,0,0,0,.987-1.506,1.252,1.252,0,0,0-.755-.89,1.221,1.221,0,0,0-.751-.094,101.608,101.608,0,0,1-41.3.011,1.206,1.206,0,0,0-.231-.012,1.261,1.261,0,0,0-.4,2.479" transform="translate(-560.768 -105.575)" fill="#b56e5a"/>
        <path id="Trazado_193125" data-name="Trazado 193125" d="M772.2,408.242a.635.635,0,0,0-.636.636c0,.03,0,.058,0,.088a26.024,26.024,0,0,1-52.047.236c0-.109-.017-.214-.017-.324a.637.637,0,0,0-1.275,0c0,.237.03.467.035.7a27.284,27.284,0,0,0,54.556-.239c0-.156.023-.308.023-.464a.635.635,0,0,0-.636-.636" transform="translate(-542.484 -308.354)" fill="#fca01f"/>
        <path id="Trazado_193126" data-name="Trazado 193126" d="M769.772,426.227c10.755,0,19.509-10.773,19.641-24.073,0-.1.012-.2.012-.3a.636.636,0,0,0-1.272,0c0,.018,0,.035,0,.052-.022,12.714-8.259,23.05-18.379,23.05-10.1,0-18.313-10.288-18.375-22.959,0-.048-.006-.095-.006-.143a.637.637,0,0,0-1.274,0c0,.137.015.268.017.4.176,13.253,8.909,23.971,19.638,23.971" transform="translate(-566.579 -303.047)" fill="#fca01f"/>
        <path id="Trazado_193127" data-name="Trazado 193127" d="M326.379,145.021l.018,0-.019-.056c0,.021,0,.04,0,.061" transform="translate(-246.52 -109.491)"/>
        <path id="Trazado_193128" data-name="Trazado 193128" d="M371.756,137.46h.011c0-.012,0-.024-.007-.036l0,.037" transform="translate(-280.795 -103.798)"/>
        <path id="Trazado_193129" data-name="Trazado 193129" d="M442.622,184.708c-1.439-.667-2.862-1.239-4.268-1.739,2.063,4.361,3.284,10.335,3.343,18.335,1.458-1.209,3.045-1.719,4.435-1.237,2.847.987,3.785,5.739,2.093,10.616s-5.368,8.028-8.215,7.041a3.366,3.366,0,0,1-1.212-.758,28.624,28.624,0,0,1-4.978,8.1v14.371a88.008,88.008,0,0,1,16.779,3.314c0-.156.007-.311.007-.467a.477.477,0,0,1,.954,0c0,.254-.009.5-.011.757a66.734,66.734,0,0,1,6.858,2.614l3.425-3.5,14.974,14.974c1.422-1.152,2.738-2.326,3.97-3.508a61.988,61.988,0,0,0,4.445-4.734,60.54,60.54,0,0,0,6.983-10.2c3.856-7.123,2.577-16.151-3.555-21.442a9.925,9.925,0,0,0-7.022-2.748c-9.143.491-16.091-3.441-17.8-11.964s-4.876-15.24-13.044-16.223a11.2,11.2,0,0,1-4.561-1.616,4.23,4.23,0,0,1-3.6.021" transform="translate(-327.674 -138.2)"/>
        <path id="Trazado_193130" data-name="Trazado 193130" d="M121.815,249.982a.476.476,0,0,1,.675,0l2.534-2.534,2.941,3.006a61.644,61.644,0,0,1,9.318-3.987c-.005-.379-.017-.755-.017-1.136a.477.477,0,0,1,.954,0c0,.274.009.544.012.817a84.055,84.055,0,0,1,13.122-3.054V227.408A29.283,29.283,0,0,1,147,220.014a3.366,3.366,0,0,1-1.212.758c-2.847.987-6.525-2.166-8.215-7.041s-.753-9.629,2.1-10.616c1.388-.482,2.974.028,4.431,1.236.05-7.5,1.02-13.14,2.683-17.347-.785.344-1.264.589-1.373.647a4.245,4.245,0,0,1-3.794.075,11.2,11.2,0,0,1-4.574,1.624c-8.169.983-11.338,7.7-13.045,16.223s-8.655,12.455-17.8,11.964a9.925,9.925,0,0,0-7.022,2.748c-6.132,5.291-7.41,14.319-3.555,21.442a61.53,61.53,0,0,0,16.112,19l10.077-10.077a.479.479,0,0,1,0-.674" transform="translate(-70.577 -141.249)"/>
        <path id="Trazado_193131" data-name="Trazado 193131" d="M510.7,431.085a66.78,66.78,0,0,0-6.858-2.614,78.422,78.422,0,0,1-.786,10.426Z" transform="translate(-379.972 -323.633)" fill="#956651"/>
        <path id="Trazado_193132" data-name="Trazado 193132" d="M286.782,406.332H317.32l13.48-13.775a77.513,77.513,0,0,0,.974-11.877A88.012,88.012,0,0,0,315,377.366v-2.781c-19.124,10.435-25.371-9-25.371-9v12.393a84.059,84.059,0,0,0-13.122,3.054,75.347,75.347,0,0,0,2.044,16.887Z" transform="translate(-208.848 -276.132)" fill="#956651"/>
        <path id="Trazado_193133" data-name="Trazado 193133" d="M243.861,430.021a61.638,61.638,0,0,0-9.318,3.987l11.035,11.277a76.555,76.555,0,0,1-1.717-15.264" transform="translate(-177.155 -324.804)" fill="#956651"/>
        <path id="Trazado_193134" data-name="Trazado 193134" d="M441.864,449.583l4.4-4.4-4-4-1.36-1.359L425.937,424.85l-3.426,3.5-7.644,7.812q-.442,3.068-1.114,5.972l14.2-14.2a.478.478,0,0,1,.678.675l-15.308,15.308c-4.4,16.962-14.508,28.861-26.254,28.861-.257,0-.511-.021-.767-.033v14.535h40.583l-4.7-18.021Z" transform="translate(-291.779 -320.898)" fill="#f4dfc3"/>
        <path id="Trazado_193135" data-name="Trazado 193135" d="M293.09,489.6l-8.235-8.416a63.884,63.884,0,0,0,2.022,6.756l4.805,4.805h33.341l10.834-10.835c.5-1.962.914-4,1.251-6.085L323.628,489.6Z" transform="translate(-215.157 -359.404)" fill="#f4dfc3"/>
        <path id="Trazado_193136" data-name="Trazado 193136" d="M300.031,537.774l-3.415-3.415c4.689,11.436,12.3,19.174,20.99,20.084V537.911H300.368Z" transform="translate(-224.04 -403.613)" fill="#f4dfc3"/>
        <path id="Trazado_193137" data-name="Trazado 193137" d="M411.986,508.237l-9.806,9.806-.338.138H386.3v16.6c.255.012.51.033.767.033,10.962,0,20.453-10.866,24.921-26.575" transform="translate(-291.779 -383.882)" fill="#f4dfc3"/>
        <path id="Trazado_193138" data-name="Trazado 193138" d="M532.965,545.613l4.7,18.021h24.811l-9.828-37.7Z" transform="translate(-402.559 -397.248)" fill="#956651"/>
        <path id="Trazado_193139" data-name="Trazado 193139" d="M47.833,556.778l7.161-6.754L38.009,533.039,1.071,567.883c-.379.359-.72.742-1.071,1.119H34.874Z" transform="translate(0 -402.616)" fill="#956651"/>
        <path id="Trazado_193140" data-name="Trazado 193140" d="M230.46,454.86a66.627,66.627,0,0,1-1.784-6.545l-11.035-11.277-2.941-3.006-2.534,2.534h0Z" transform="translate(-160.253 -327.833)" fill="#f4dfc3"/>
        <path id="Trazado_193141" data-name="Trazado 193141" d="M153.147,491.9,150.8,504.126H198.88v-14.6c-9.566-.954-17.878-9.8-22.634-22.687l-19.693-19.693h0l-10.077,10.077-7.045,7.045,3.893,3.894,16.985,16.985Z" transform="translate(-105.314 -337.74)" fill="#f4dfc3"/>
        <path id="Trazado_193142" data-name="Trazado 193142" d="M355.5,364.424v-11.59c-3.424,3.832-7.707,6.136-12.371,6.136-4.95,0-9.481-2.575-13-6.84v3.291s6.246,19.438,25.371,9" transform="translate(-249.356 -265.971)" fill="#654131"/>
        <path id="Trazado_193143" data-name="Trazado 193143" d="M281.954,264.089c-1.573.546-1.921,3.661-.777,6.959s3.345,5.53,4.918,4.986a1.891,1.891,0,0,0,1.034-1.073,39.689,39.689,0,0,1-1.611-8.623c-1.125-1.679-2.488-2.624-3.564-2.25" transform="translate(-211.87 -199.41)" fill="#1f0f0b"/>
        <path id="Trazado_193144" data-name="Trazado 193144" d="M459.965,276.034c1.573.544,3.775-1.687,4.918-4.986s.8-6.413-.777-6.959c-1.076-.374-2.44.571-3.564,2.25a39.7,39.7,0,0,1-1.611,8.622,1.888,1.888,0,0,0,1.034,1.073" transform="translate(-346.64 -199.41)" fill="#1f0f0b"/>
        <path id="Trazado_193145" data-name="Trazado 193145" d="M298,222.709c4.664,0,8.948-2.3,12.371-6.136a28.627,28.627,0,0,0,4.978-8.1,3.368,3.368,0,0,0,1.212.758c2.847.987,6.525-2.166,8.215-7.041s.753-9.629-2.094-10.616c-1.39-.482-2.977.028-4.435,1.237-.059-8-1.279-13.974-3.343-18.335a47.765,47.765,0,0,0-34.47.988c-1.663,4.207-2.633,9.851-2.683,17.347-1.457-1.209-3.043-1.718-4.431-1.237-2.85.987-3.788,5.739-2.1,10.616s5.368,8.028,8.215,7.041a3.368,3.368,0,0,0,1.212-.758A29.282,29.282,0,0,0,285,215.869c3.518,4.265,8.049,6.84,13,6.84m20.126-26.07c1.125-1.679,2.488-2.624,3.564-2.25,1.573.546,1.921,3.661.777,6.959s-3.345,5.53-4.918,4.986a1.888,1.888,0,0,1-1.034-1.073,39.7,39.7,0,0,0,1.611-8.622m-39.676,9.7c-1.573.544-3.775-1.687-4.918-4.986s-.8-6.413.777-6.959c1.076-.374,2.44.571,3.564,2.25a39.693,39.693,0,0,0,1.611,8.623,1.89,1.89,0,0,1-1.034,1.072m32.689-8.51c0,1.038-1.469,1.879-3.281,1.879s-3.281-.841-3.281-1.879,1.47-1.881,3.281-1.881,3.281.842,3.281,1.881M306.249,186.8c.518,0,.937.835.937,1.864s-.419,1.864-.937,1.864-.937-.834-.937-1.864.421-1.864.937-1.864m-2.1,4.61a.473.473,0,0,1,.6.309,3.8,3.8,0,0,0,3.5,2.347.477.477,0,0,1-.036.954h-.035a4.716,4.716,0,0,1-4.338-3.01.476.476,0,0,1,.311-.6m-7.247-.761a1.487,1.487,0,0,1,2.811-.249c1.061,2.776-.28,9.118-2.473,9.3-2.4.2-1.04-6.249-.337-9.051m6.381,13.877a.478.478,0,0,1,.394.87,16.437,16.437,0,0,1-6.683,1.289,22.265,22.265,0,0,1-5.039-.565.477.477,0,0,1,.234-.924c.063.015,6.214,1.529,11.095-.67M289.616,186.8c.518,0,.938.835.938,1.864s-.42,1.864-.938,1.864-.937-.834-.937-1.864.419-1.864.937-1.864m-2,7.267a3.789,3.789,0,0,0,3.5-2.347.489.489,0,0,1,.6-.308.479.479,0,0,1,.309.6,4.725,4.725,0,0,1-4.341,3.01h-.035a.477.477,0,0,1-.036-.954m-2.223,3.759c0-1.038,1.469-1.881,3.282-1.881s3.281.842,3.281,1.881-1.469,1.879-3.281,1.879-3.282-.841-3.282-1.879" transform="translate(-204.228 -129.71)" fill="#956651"/>
        <path id="Trazado_193146" data-name="Trazado 193146" d="M375.922,254.565c2.194-.182,3.534-6.525,2.473-9.3a1.487,1.487,0,0,0-2.811.249c-.7,2.8-2.059,9.25.337,9.051" transform="translate(-282.915 -184.576)" fill="#654131"/>
        <path id="Trazado_193147" data-name="Trazado 193147" d="M338.3,272.576c0-1.038-1.469-1.881-3.281-1.881s-3.283.842-3.283,1.881,1.469,1.879,3.283,1.879,3.281-.841,3.281-1.879" transform="translate(-250.567 -204.462)" fill="#654131"/>
        <path id="Trazado_193148" data-name="Trazado 193148" d="M410.136,272.576c0,1.038,1.47,1.879,3.281,1.879s3.281-.841,3.281-1.879-1.469-1.881-3.281-1.881-3.281.842-3.281,1.881" transform="translate(-309.784 -204.462)" fill="#654131"/>
        <path id="Trazado_193149" data-name="Trazado 193149" d="M346.089,237.049c.518,0,.938-.834.938-1.864s-.42-1.864-.938-1.864-.937.835-.937,1.864.419,1.864.937,1.864" transform="translate(-260.701 -176.232)" fill="#1f0f0b"/>
        <path id="Trazado_193150" data-name="Trazado 193150" d="M414.066,237.049c.518,0,.937-.834.937-1.864s-.419-1.864-.937-1.864-.937.835-.937,1.864.42,1.864.937,1.864" transform="translate(-312.045 -176.232)" fill="#1f0f0b"/>
        <path id="Trazado_193151" data-name="Trazado 193151" d="M357.069,306.656a.473.473,0,0,0,.344.578,22.26,22.26,0,0,0,5.039.565,16.441,16.441,0,0,0,6.683-1.289.478.478,0,0,0-.394-.87c-4.881,2.2-11.032.685-11.095.67a.478.478,0,0,0-.578.346" transform="translate(-269.69 -230.824)" fill="#1f0f0b"/>
        <path id="Trazado_193152" data-name="Trazado 193152" d="M339.5,255.714h.035a4.725,4.725,0,0,0,4.34-3.01.478.478,0,0,0-.309-.6.488.488,0,0,0-.6.308,3.789,3.789,0,0,1-3.5,2.347.477.477,0,0,0,.036.953" transform="translate(-256.069 -190.405)" fill="#1f0f0b"/>
        <path id="Trazado_193153" data-name="Trazado 193153" d="M411.36,255.7l.035,0a.477.477,0,0,0,.036-.954,3.8,3.8,0,0,1-3.5-2.347.476.476,0,0,0-.908.29,4.716,4.716,0,0,0,4.338,3.009" transform="translate(-307.415 -190.395)" fill="#1f0f0b"/>
        <path id="Trazado_193154" data-name="Trazado 193154" d="M265.293,55.768a80.288,80.288,0,0,1-3.763-13.616c-.563-2.9-.973-5.679-1.239-8.208-2.412-6.038-4.886-9.927-6.337-9.511-2.081.6-1.267,9.8,1.818,20.562a80.34,80.34,0,0,0,4.921,13.2,4.212,4.212,0,0,1,1.081-.855,34.77,34.77,0,0,1,3.518-1.567" transform="translate(-190.946 -18.431)" fill="#eaad9b"/>
        <path id="Trazado_193155" data-name="Trazado 193155" d="M287.308,46.8a53.974,53.974,0,0,1,5.512-1.807c0-.021,0-.04,0-.061A78.377,78.377,0,0,1,289.8,30.659c-.347-2.73-.572-5.344-.684-7.742-1.9-6.416-4.072-10.665-5.579-10.372-1.563.3-1.969,5.392-1.229,12.432.266,2.529.676,5.3,1.239,8.208A80.294,80.294,0,0,0,287.308,46.8" transform="translate(-212.962 -9.465)" fill="#c77e69"/>
        <path id="Trazado_193156" data-name="Trazado 193156" d="M314.688,37.288l.019.056c1.475-.4,3.108-.773,4.873-1.09A73.915,73.915,0,0,1,317.359,22.4a80.624,80.624,0,0,1-.078-11.766c-1.366-5.122-2.966-8.392-4.287-8.222-1.62.2-2.354,5.5-2.012,12.857.112,2.4.336,5.012.684,7.742a78.377,78.377,0,0,0,3.021,14.275" transform="translate(-234.83 -1.819)" fill="#eaad9b"/>
        <path id="Trazado_193157" data-name="Trazado 193157" d="M336.5,20.743a73.929,73.929,0,0,0,2.221,13.852,57.441,57.441,0,0,1,6.211-.773l0-.037a75.9,75.9,0,0,1-1.068-13.358c0-2.729.115-5.328.322-7.7C343.012,5.276,341.078.08,339.272.214c-1.436.107-2.453,3.565-2.845,8.763a80.652,80.652,0,0,0,.077,11.766" transform="translate(-253.975 -0.16)" fill="#c77e69"/>
        <path id="Trazado_193158" data-name="Trazado 193158" d="M466.527,57.645c1.444.532,2.9,1.13,4.375,1.813a4.15,4.15,0,0,1,.481.284,85.747,85.747,0,0,0,4.255-11.8c3.082-10.761,3.9-19.965,1.815-20.561-1.45-.417-3.925,3.471-6.335,9.507-.266,2.53-.676,5.307-1.239,8.212a84.357,84.357,0,0,1-3.351,12.54" transform="translate(-352.378 -20.662)" fill="#eaad9b"/>
        <path id="Trazado_193159" data-name="Trazado 193159" d="M443.558,46.929a56.249,56.249,0,0,1,5.62,1.743,84.361,84.361,0,0,0,3.351-12.54c.563-2.906.973-5.682,1.239-8.212.739-7.04.332-12.128-1.229-12.431-1.509-.292-3.683,3.955-5.579,10.367-.112,2.4-.337,5.015-.685,7.748a82.071,82.071,0,0,1-2.717,13.325" transform="translate(-335.029 -11.688)" fill="#c77e69"/>
        <path id="Trazado_193160" data-name="Trazado 193160" d="M425.323,25.346a77.025,77.025,0,0,1-1.968,12.917c1.615.257,3.264.593,4.943,1.02a82.077,82.077,0,0,0,2.717-13.325c.348-2.732.573-5.348.685-7.748.342-7.35-.392-12.646-2.01-12.852-1.322-.168-2.923,3.1-4.289,8.227a80.677,80.677,0,0,1-.078,11.762" transform="translate(-319.769 -4.042)" fill="#eaad9b"/>
        <path id="Trazado_193161" data-name="Trazado 193161" d="M398.08,35.979a55.347,55.347,0,0,1,6.184.632,77.064,77.064,0,0,0,1.968-12.917,80.643,80.643,0,0,0,.078-11.762c-.392-5.2-1.409-8.66-2.844-8.766-1.7-.126-3.509,4.462-4.7,11.2.241,2.534.378,5.335.378,8.294a76.042,76.042,0,0,1-1.061,13.323" transform="translate(-300.678 -2.39)" fill="#c77e69"/>
        <path id="Trazado_193162" data-name="Trazado 193162" d="M368.477,33.625l.007.036a56.383,56.383,0,0,1,6.43-.071,76.045,76.045,0,0,0,1.061-13.323c0-2.959-.137-5.76-.378-8.294C374.927,4.919,373.432,0,371.692,0c-1.79,0-3.32,5.192-3.961,12.563-.207,2.376-.322,4.975-.322,7.7a75.893,75.893,0,0,0,1.068,13.358" transform="translate(-277.512)" fill="#eaad9b"/>
        <path id="Trazado_193163" data-name="Trazado 193163" d="M286.594,149.912c.109-.058.588-.3,1.373-.647a47.765,47.765,0,0,1,34.47-.988c1.406.5,2.829,1.072,4.268,1.739a4.24,4.24,0,0,0,4.057-7.427,4.122,4.122,0,0,0-.481-.284c-1.472-.683-2.93-1.28-4.375-1.813a56.25,56.25,0,0,0-5.62-1.743c-1.679-.426-3.328-.763-4.943-1.019a55.345,55.345,0,0,0-6.184-.631,56.388,56.388,0,0,0-6.43.071h-.011a57.44,57.44,0,0,0-6.211.773c-1.764.317-3.4.691-4.873,1.09l-.018,0a53.971,53.971,0,0,0-5.512,1.807,34.874,34.874,0,0,0-3.518,1.567,4.252,4.252,0,0,0,4.008,7.5" transform="translate(-211.758 -103.508)" fill="#ffe8e2"/>
        <path id="Trazado_193164" data-name="Trazado 193164" d="M253.029,471.711c11.746,0,21.856-11.9,26.254-28.861l15.308-15.308a.478.478,0,0,0-.678-.675l-14.2,14.2q.67-2.9,1.114-5.972a78.389,78.389,0,0,0,.786-10.426c0-.253.012-.5.012-.757a.477.477,0,0,0-.954,0c0,.157-.006.311-.007.468a77.469,77.469,0,0,1-.974,11.877c-.337,2.089-.754,4.123-1.251,6.085L267.61,453.173H234.268l-4.805-4.805a63.741,63.741,0,0,1-2.022-6.755,75.35,75.35,0,0,1-2.044-16.887c0-.273-.012-.542-.012-.816a.477.477,0,0,0-.954,0c0,.381.012.757.017,1.136a76.551,76.551,0,0,0,1.717,15.264,66.688,66.688,0,0,0,1.784,6.545l-18.292-18.293h0a.477.477,0,0,0-.675.675h0l19.693,19.693c4.757,12.889,13.069,21.733,22.634,22.687v14.6h.954V471.679c.255.011.51.032.767.032m-.767-17.585h15.544l.338-.138,9.806-9.806c-4.468,15.709-13.96,26.575-24.921,26.575-.257,0-.512-.021-.767-.033Zm-.954,16.531c-8.688-.909-16.3-8.648-20.99-20.084l3.415,3.415.337.138h17.238Z" transform="translate(-157.743 -319.828)" fill="#1f0f0b"/>
        <path id="Trazado_193165" data-name="Trazado 193165" d="M1783.442,315.888a3.368,3.368,0,0,1-1.21-.756,28.612,28.612,0,0,1-4.976,8.1v14.792q2.684.382,5.247.913c0-.017,0-.033,0-.05a.478.478,0,1,1,.957,0c0,.085-.009.167-.01.252l.293.062c0-.1,0-.209,0-.314a.477.477,0,1,1,.954,0c0,.178-.006.353-.008.53q1.649.386,3.235.832c.01-.453.022-.905.022-1.362a.478.478,0,1,1,.957,0c0,.195-.008.386-.01.58a.472.472,0,0,1,.447.464c0,.243-.009.482-.011.723q2.691.809,5.177,1.779c.006-.4.02-.8.02-1.2a.478.478,0,0,1,.955,0c0,.528-.015,1.052-.026,1.576,11.375,4.64,19.135,11.717,20.6,19.79l.029,0,10.585,40.611h.746c5.827-10.684,15.688-35.89-7.851-54.342-19.094-14.967-27.177-27.79-30.56-35.328-1.73,1.985-3.808,2.961-5.569,2.351" transform="translate(-1342.399 -236.821)" fill="#1f0f0b"/>
        <path id="Trazado_193166" data-name="Trazado 193166" d="M1526.184,480.749c-16.133-1.707-28.981-22.272-29.5-47.606-11.63,4.744-19.47,12.036-20.68,20.335l-.02,0-9.963,38.229-.479,1.838H1500.5a20.985,20.985,0,0,1-14.035-19.765.477.477,0,1,1,.955,0,20.027,20.027,0,0,0,17.028,19.765h5.968a20.07,20.07,0,0,0,15.767-12.8" transform="translate(-1106.958 -327.162)" fill="#bc7b6f"/>
        <path id="Trazado_193167" data-name="Trazado 193167" d="M1679.27,628.079c-.073,0-.145.009-.218.009-.4,0-.8-.024-1.192-.047a21.071,21.071,0,0,1-12.8,12.718h26.992a21.072,21.072,0,0,1-12.784-12.679" transform="translate(-1257.656 -474.373)" fill="#bc7b6f"/>
        <path id="Trazado_193168" data-name="Trazado 193168" d="M1778.237,452.932c-1.467-8.073-9.228-15.15-20.6-19.79-.525,25.836-13.877,46.714-30.457,47.687a20.073,20.073,0,0,0,15.742,12.718h5.965a20.026,20.026,0,0,0,17.029-19.764.477.477,0,1,1,.955,0,20.985,20.985,0,0,1-14.035,19.764h36.017l-10.585-40.611Z" transform="translate(-1304.574 -327.161)" fill="#bc7b6f"/>
        <path id="Trazado_193169" data-name="Trazado 193169" d="M1660.966,407.214c10.577,0,19.18-11.646,19.2-25.972q-2.563-.527-5.246-.913v-4.736c-17.768,8.692-25.372-6.041-25.372-6.041v10.574c-2.677.335-5.276.778-7.779,1.324.1,14.23,8.67,25.764,19.2,25.764" transform="translate(-1240.063 -279.131)" fill="#bc7b6f"/>
        <path id="Trazado_193170" data-name="Trazado 193170" d="M1663.632,444.876c-8.14,0-15.152-6.5-18.333-15.817,2.734,13.112,10.139,22.541,18.826,22.541,10.939,0,19.849-14.95,19.949-33.387l-.293-.062c-.1,14.757-9.1,26.725-20.149,26.725" transform="translate(-1242.729 -315.838)" fill="#bc7b6f"/>
        <path id="Trazado_193171" data-name="Trazado 193171" d="M1644.207,457.593c13.3,0,24.17-16.686,24.628-37.472q-1.588-.444-3.235-.833c-.172,18.865-9.478,34.125-20.9,34.125s-20.729-15.26-20.9-34.124c-1.439.337-2.849.7-4.218,1.106.547,20.659,11.381,37.2,24.626,37.2" transform="translate(-1223.303 -316.697)" fill="#bc7b6f"/>
        <path id="Trazado_193172" data-name="Trazado 193172" d="M1647.479,504.944c-10.569,0-19.659-10-23.566-24.228,3.522,16.188,12.756,27.771,23.566,27.771s20.044-11.585,23.565-27.775c-3.906,14.231-13,24.232-23.565,24.232" transform="translate(-1226.575 -363.092)" fill="#bc7b6f"/>
        <path id="Trazado_193173" data-name="Trazado 193173" d="M1721.932,466.848a.464.464,0,0,1,.12.29c0,.479-.025.951-.057,1.422a19.824,19.824,0,0,0,.908,4.68c16.28-.738,29.42-21.477,29.821-47.116q-2.485-.968-5.177-1.779c-.232,23.28-11.593,42.134-25.615,42.5" transform="translate(-1300.611 -320.517)" fill="#bc7b6f"/>
        <path id="Trazado_193174" data-name="Trazado 193174" d="M1718.657,619.809c.258.011.515.029.774.031-.146-.476-.278-.958-.391-1.448-.11.479-.24.951-.382,1.417" transform="translate(-1298.138 -467.084)" fill="#e44322"/>
        <path id="Trazado_193175" data-name="Trazado 193175" d="M1625.552,474.118a19.825,19.825,0,0,0,.887-4.619c-.032-.471-.057-.943-.057-1.422a.465.465,0,0,1,.12-.291c-13.959-.37-25.281-19.061-25.609-42.2q-2.167.685-4.2,1.475c.393,25.129,13.024,45.557,28.854,47.054" transform="translate(-1206.019 -321.456)" fill="#bc7b6f"/>
        <path id="Trazado_193176" data-name="Trazado 193176" d="M1698.934,361.02V350.964c-3.424,3.832-7.708,6.135-12.373,6.135-4.95,0-9.48-2.575-13-6.84v4.721s7.6,14.732,25.372,6.04" transform="translate(-1264.076 -264.558)" fill="#935c52"/>
        <path id="Trazado_193177" data-name="Trazado 193177" d="M1622.876,196.714a3.369,3.369,0,0,0,1.211-.758,29.274,29.274,0,0,0,4.35,7.391c3.518,4.265,8.049,6.84,13,6.84,4.665,0,8.948-2.3,12.373-6.135a28.609,28.609,0,0,0,4.976-8.095,3.373,3.373,0,0,0,1.21.756c1.76.609,3.839-.367,5.569-2.351a14.309,14.309,0,0,0,2.647-4.69c1.69-4.878.752-9.63-2.1-10.616-1.389-.481-2.975.028-4.432,1.236,0-.318-.006-.634-.012-.946-18.666-9.152-20.236-23.589-20.236-23.589-2.347,19.913-20.256,25.135-20.256,25.135-.1-.255-.188-.531-.278-.824a4.488,4.488,0,0,0-4.147-1.012c-2.847.986-3.785,5.738-2.094,10.616a14.243,14.243,0,0,0,2.7,4.753c1.718,1.94,3.769,2.891,5.51,2.288m38.688-12.594c1.124-1.679,2.489-2.624,3.565-2.251,1.572.544,1.918,3.66.775,6.959s-3.345,5.531-4.917,4.987a1.889,1.889,0,0,1-1.034-1.071,39.69,39.69,0,0,0,1.611-8.623m-6.987,4.913c0,1.037-1.47,1.879-3.281,1.879s-3.284-.842-3.284-1.879,1.47-1.881,3.284-1.881,3.281.841,3.281,1.881m-4.895-11.026c.518,0,.938.835.938,1.864s-.42,1.865-.938,1.865-.937-.835-.937-1.865.419-1.864.937-1.864m-2.1,4.611a.476.476,0,0,1,.6.312,3.794,3.794,0,0,0,3.5,2.344.477.477,0,0,1-.035.953h-.038a4.721,4.721,0,0,1-4.339-3.01.48.48,0,0,1,.313-.6m-7.25-.761a1.489,1.489,0,0,1,2.813-.251c1.059,2.777-.281,9.12-2.474,9.3-2.4.2-1.04-6.249-.34-9.051m-3.835,12.621a16.9,16.9,0,0,0,2.627.65l.044.007.324.035c.193.017.385.031.579.042.451.025.9.032,1.355.018s.9-.052,1.352-.1l.076-.007.1-.021c.252-.05.508-.091.76-.145a15.869,15.869,0,0,0,2.585-.8,2.253,2.253,0,0,1,2.744,1.559,2.287,2.287,0,0,1-1.559,2.742,17.744,17.744,0,0,1-12.168.323,2.284,2.284,0,0,1-1.559-2.744,2.247,2.247,0,0,1,2.744-1.558m-3.444-16.47c.516,0,.935.835.935,1.864s-.419,1.865-.935,1.865-.938-.835-.938-1.865.421-1.864.938-1.864m-2,7.267a3.821,3.821,0,0,0,3.5-2.343.477.477,0,1,1,.91.285,4.721,4.721,0,0,1-4.339,3.01h-.035a.477.477,0,0,1-.037-.953m1.059,1.878c1.814,0,3.283.841,3.283,1.881s-1.469,1.879-3.283,1.879-3.281-.842-3.281-1.879,1.469-1.881,3.281-1.881m-15.143,1.676c-1.144-3.3-.8-6.415.777-6.959,1.075-.373,2.439.573,3.563,2.252a39.677,39.677,0,0,0,1.611,8.62,1.889,1.889,0,0,1-1.036,1.074c-1.572.544-3.772-1.689-4.915-4.987" transform="translate(-1218.952 -117.647)" fill="#bc7b6f"/>
        <path id="Trazado_193178" data-name="Trazado 193178" d="M1629.527,274.169a1.888,1.888,0,0,0,1.036-1.074,39.69,39.69,0,0,1-1.611-8.62c-1.124-1.679-2.488-2.625-3.563-2.252-1.573.544-1.921,3.66-.777,6.959s3.344,5.531,4.915,4.987" transform="translate(-1226.594 -198.002)" fill="#1f0f0b"/>
        <path id="Trazado_193179" data-name="Trazado 193179" d="M1803.4,274.17c1.572.544,3.772-1.689,4.917-4.987s.8-6.414-.775-6.959c-1.076-.373-2.44.572-3.564,2.251a39.734,39.734,0,0,1-1.612,8.623,1.887,1.887,0,0,0,1.034,1.071" transform="translate(-1361.363 -198.002)" fill="#1f0f0b"/>
        <path id="Trazado_193180" data-name="Trazado 193180" d="M1719.357,267.931c2.193-.182,3.533-6.525,2.474-9.3a1.489,1.489,0,0,0-2.813.251c-.7,2.8-2.056,9.25.34,9.051" transform="translate(-1297.639 -194.671)" fill="#935c52"/>
        <path id="Trazado_193181" data-name="Trazado 193181" d="M1678.453,287.825c1.814,0,3.283-.842,3.283-1.879s-1.469-1.881-3.283-1.881-3.281.841-3.281,1.881,1.469,1.879,3.281,1.879" transform="translate(-1265.292 -214.56)" fill="#935c52"/>
        <path id="Trazado_193182" data-name="Trazado 193182" d="M1753.561,285.946c0,1.037,1.47,1.879,3.284,1.879s3.281-.842,3.281-1.879-1.47-1.881-3.281-1.881-3.284.841-3.284,1.881" transform="translate(-1324.501 -214.56)" fill="#935c52"/>
        <path id="Trazado_193183" data-name="Trazado 193183" d="M1689.519,250.42c.517,0,.936-.835.936-1.865s-.419-1.864-.936-1.864-.938.835-.938,1.864.42,1.865.938,1.865" transform="translate(-1275.421 -186.331)" fill="#1f0f0b"/>
        <path id="Trazado_193184" data-name="Trazado 193184" d="M1757.495,250.42c.518,0,.938-.835.938-1.865s-.42-1.864-.938-1.864-.937.835-.937,1.864.419,1.865.937,1.865" transform="translate(-1326.765 -186.331)" fill="#1f0f0b"/>
        <path id="Trazado_193185" data-name="Trazado 193185" d="M1695.079,314.193a2.285,2.285,0,0,0,1.559,2.744,17.744,17.744,0,0,0,12.168-.323,2.286,2.286,0,0,0,1.559-2.742,2.253,2.253,0,0,0-2.744-1.559,15.862,15.862,0,0,1-2.585.8c-.252.054-.508.095-.76.145l-.1.021-.075.007c-.45.046-.9.085-1.352.1s-.9.007-1.354-.018c-.193-.011-.386-.025-.579-.042l-.324-.035-.044-.007a16.891,16.891,0,0,1-2.627-.65,2.247,2.247,0,0,0-2.744,1.558m1.288.716a.481.481,0,0,1,.58-.347c.063.015,6.211,1.526,11.095-.669a.477.477,0,1,1,.391.87,16.424,16.424,0,0,1-6.682,1.289,22.245,22.245,0,0,1-5.038-.565.476.476,0,0,1-.347-.578" transform="translate(-1280.28 -235.806)" fill="#935c52"/>
        <path id="Trazado_193186" data-name="Trazado 193186" d="M1700.843,320.6a22.229,22.229,0,0,0,5.038.565,16.43,16.43,0,0,0,6.682-1.289.477.477,0,1,0-.391-.87c-4.884,2.2-11.032.685-11.095.669a.477.477,0,1,0-.234.924" transform="translate(-1284.409 -240.924)" fill="#1f0f0b"/>
        <path id="Trazado_193187" data-name="Trazado 193187" d="M1682.928,269.076h.035a4.721,4.721,0,0,0,4.339-3.01.477.477,0,1,0-.91-.285,3.821,3.821,0,0,1-3.5,2.343.477.477,0,0,0,.037.954" transform="translate(-1270.789 -200.496)" fill="#1f0f0b"/>
        <path id="Trazado_193188" data-name="Trazado 193188" d="M1754.79,269.074h.038a.477.477,0,0,0,.035-.953,3.8,3.8,0,0,1-3.5-2.345.477.477,0,0,0-.91.287,4.721,4.721,0,0,0,4.339,3.01" transform="translate(-1322.136 -200.495)" fill="#1f0f0b"/>
        <path id="Trazado_193189" data-name="Trazado 193189" d="M1659.791,131.114s1.57,14.437,20.236,23.589h0s2.707-29.863-20.551-31.5c-22.5-1.585-22.9,23.466-20.22,32.223.09.293.182.569.278.824,0,0,17.909-5.222,20.256-25.135" transform="translate(-1237.307 -93.003)" fill="#1f0f0b"/>
        <path id="Trazado_193190" data-name="Trazado 193190" d="M1665.677,627.789c-.327-.019-.653-.047-.978-.082a20.069,20.069,0,0,1-15.767,12.8h3.946a21.071,21.071,0,0,0,12.8-12.718" transform="translate(-1245.473 -474.12)" fill="#1f0f0b"/>
        <path id="Trazado_193191" data-name="Trazado 193191" d="M1716.533,598.343a.465.465,0,0,0-.12-.29c-.139,0-.277.018-.417.018s-.28-.014-.42-.018a.466.466,0,0,0-.12.291c0,.479.025.951.057,1.422a19.81,19.81,0,0,1-.887,4.619c.327.031.657.048.987.062.143-.466.272-.937.382-1.416.113.49.245.972.392,1.447.034,0,.068,0,.1,0,.3,0,.6-.023.9-.036a19.805,19.805,0,0,1-.908-4.68c.032-.471.057-.943.057-1.422" transform="translate(-1295.092 -451.721)" fill="#1f0f0b"/>
        <path id="Trazado_193192" data-name="Trazado 193192" d="M1552,597.762a.478.478,0,1,0-.955,0,20.985,20.985,0,0,0,14.035,19.765h3.948A20.027,20.027,0,0,1,1552,597.762" transform="translate(-1171.537 -451.14)" fill="#1f0f0b"/>
        <path id="Trazado_193193" data-name="Trazado 193193" d="M1833.878,597.762a.478.478,0,1,0-.955,0,20.026,20.026,0,0,1-17.029,19.765h3.949a20.985,20.985,0,0,0,14.035-19.765" transform="translate(-1371.583 -451.14)" fill="#1f0f0b"/>
        <path id="Trazado_193194" data-name="Trazado 193194" d="M1724.12,628.038c-.329.019-.659.035-.99.039a21.072,21.072,0,0,0,12.785,12.68h3.948a20.074,20.074,0,0,1-15.742-12.718" transform="translate(-1301.516 -474.37)" fill="#1f0f0b"/>
        <path id="Trazado_193195" data-name="Trazado 193195" d="M1622.238,474.412c.325.034.651.063.978.082.4.023.792.047,1.192.047.073,0,.145-.008.218-.009.332,0,.661-.02.99-.039,16.58-.974,29.932-21.851,30.457-47.687.011-.525.026-1.048.026-1.576a.478.478,0,0,0-.955,0c0,.4-.013.8-.02,1.2-.4,25.639-13.54,46.378-29.821,47.116-.3.013-.594.036-.9.036-.035,0-.068,0-.1,0-.259,0-.516-.019-.774-.031-.33-.014-.659-.031-.987-.062-15.831-1.5-28.461-21.926-28.854-47.055-.006-.4-.02-.8-.02-1.2a.477.477,0,0,0-.955,0c0,.529.015,1.052.026,1.577.515,25.334,13.364,45.9,29.5,47.606" transform="translate(-1203.012 -320.825)" fill="#ffe800"/>
        <path id="Trazado_193196" data-name="Trazado 193196" d="M1616.088,416.689a68.48,68.48,0,0,0,1.524,14.519c3.906,14.228,13,24.228,23.566,24.228s19.659-10,23.565-24.232a68.5,68.5,0,0,0,1.523-14.515.478.478,0,0,1,.476-.477c.013,0,.02.012.032.013,0-.194.01-.386.01-.58a.478.478,0,1,0-.956,0c0,.457-.012.909-.022,1.362-.458,20.786-11.325,37.472-24.628,37.472-13.245,0-24.079-16.54-24.626-37.2-.015-.543-.027-1.088-.027-1.636a.477.477,0,1,0-.955,0c0,.195.008.386.01.58.013,0,.02-.013.032-.013a.477.477,0,0,1,.476.477" transform="translate(-1220.274 -313.584)" fill="#ffe800"/>
        <path id="Trazado_193197" data-name="Trazado 193197" d="M1639.408,463.141c.14,0,.279.018.42.018s.278-.014.417-.018c14.021-.369,25.383-19.223,25.615-42.5,0-.241.011-.48.011-.723a.472.472,0,0,0-.446-.464c-.013,0-.02-.013-.032-.013a.478.478,0,0,0-.476.477,68.517,68.517,0,0,1-1.523,14.515c-3.521,16.19-12.756,27.775-23.565,27.775s-20.044-11.583-23.566-27.771a68.5,68.5,0,0,1-1.523-14.519.477.477,0,0,0-.476-.477c-.013,0-.02.013-.032.013a.472.472,0,0,0-.446.464c0,.344.01.685.016,1.027.327,23.138,11.65,41.829,25.608,42.2" transform="translate(-1218.925 -316.81)" fill="#13162c"/>
        <path id="Trazado_193198" data-name="Trazado 193198" d="M1639.606,415.645a54.806,54.806,0,0,0,1.129,11.16c3.18,9.315,10.193,15.817,18.333,15.817,11.051,0,20.047-11.968,20.149-26.726,0-.085.01-.167.01-.252a.478.478,0,1,0-.956,0c0,.017,0,.033,0,.05-.02,14.326-8.624,25.972-19.2,25.972-10.526,0-19.093-11.534-19.2-25.764,0-.087-.01-.171-.01-.258a.477.477,0,0,0-.476-.479c-.051,0-.083.039-.129.053a.455.455,0,0,1,.349.426" transform="translate(-1238.165 -313.584)" fill="#1e1f29"/>
        <path id="Trazado_193199" data-name="Trazado 193199" d="M1657.694,450.3c11.422,0,20.727-15.26,20.9-34.124,0-.177.008-.352.008-.53a.477.477,0,1,0-.954,0c0,.105,0,.209,0,.314-.1,18.437-9.01,33.387-19.949,33.387-8.687,0-16.092-9.428-18.826-22.54a54.806,54.806,0,0,1-1.129-11.16.455.455,0,0,0-.349-.426c-.046-.014-.078-.053-.129-.053a.478.478,0,0,0-.476.479c0,.178.006.353.008.53.172,18.865,9.478,34.124,20.9,34.124" transform="translate(-1236.298 -313.584)" fill="#d665a0"/>
      </g>
    </g>
  </g>
</svg>
