<svg xmlns="http://www.w3.org/2000/svg" width="26.281" height="22.996" viewBox="0 0 26.281 22.996">
  <path id="Icon_metro-table" data-name="Icon metro-table" d="M2.571,3.856v23H28.852v-23H2.571Zm9.855,14.783V13.711H19v4.928ZM19,20.282v4.928h-6.57V20.282ZM19,7.141v4.928h-6.57V7.141H19Zm-8.213,0v4.928H4.213V7.141h6.57Zm-6.57,6.57h6.57v4.928H4.213V13.711Zm16.426,0h6.57v4.928h-6.57V13.711Zm0-1.643V7.141h6.57v4.928ZM4.213,20.282h6.57v4.928H4.213V20.282Zm16.426,4.928V20.282h6.57v4.928Z" transform="translate(-2.571 -3.856)" fill="#fff"/>
</svg>
