<svg xmlns="http://www.w3.org/2000/svg" xmlns:xlink="http://www.w3.org/1999/xlink" width="398.999" height="552.705" viewBox="0 0 398.999 552.705">
  <defs>
    <clipPath id="clip-path">
      <rect id="Rectángulo_43918" data-name="Rectángulo 43918" width="300.613" height="552.705" fill="none"/>
    </clipPath>
  </defs>
  <g id="Grupo_145307" data-name="Grupo 145307" transform="translate(-181.003 -713.125)">
    <path id="Unión_1" data-name="Unión 1" d="M13112.332,12099v-253.351h0V11822a122.858,122.858,0,0,1,2.478-24.59,121.38,121.38,0,0,1,18.358-43.623,122.262,122.262,0,0,1,53.676-44.2,121.314,121.314,0,0,1,22.9-7.11,123.1,123.1,0,0,1,49.174,0,121.417,121.417,0,0,1,43.622,18.355,121.742,121.742,0,0,1,53.79,101.167v277Z" transform="translate(12279.999 -12194.334) rotate(90)" fill="#c0c3b0"/>
    <g id="Grupo_145014" data-name="Grupo 145014" transform="translate(265 713.125)">
      <g id="Grupo_145013" data-name="Grupo 145013" clip-path="url(#clip-path)">
        <path id="Trazado_193005" data-name="Trazado 193005" d="M20.427,275.728c-6.152,2.915-11.044,8.471-11.644,15.454-.587,6.829,2.154,13.548,5.831,19.306,3.894-2.874,7.607-6.391,11.5-9.264q-3.837,7.433-7.673,14.864a66.188,66.188,0,0,0,20.616,27.978,43.735,43.735,0,0,0,14.27-3.3q-3.961,3.812-7.922,7.625c-.818.806,15.656,13.345,16.806,14.176,4.451,3.224,8.589,7.132,13.524,9.6,17.107,8.543,17.677-11.615,14.5-23.067a126.159,126.159,0,0,0-14.12-32.383A35.163,35.163,0,0,1,73.066,328.3c.162-7.406-1.719-13.463-1.959-20.866a187.555,187.555,0,0,1-15.149-18.77,104.464,104.464,0,0,1-15.521,2.779A45.989,45.989,0,0,1,53.4,285.96a34.714,34.714,0,0,0-19.227-12.05,21.839,21.839,0,0,0-13.751,1.818" transform="translate(4.628 145.43)" fill="#ffddae"/>
        <path id="Trazado_193006" data-name="Trazado 193006" d="M17.355,280.877s53.851,52.155,72.2,104.6" transform="translate(9.229 149.359)" fill="none" stroke="#211d1d" stroke-linecap="round" stroke-linejoin="round" stroke-width="0.412"/>
        <line id="Línea_1903" data-name="Línea 1903" x1="1.415" y2="31.835" transform="translate(63.37 440.847)" fill="none" stroke="#211d1d" stroke-linecap="round" stroke-linejoin="round" stroke-width="0.412"/>
        <line id="Línea_1904" data-name="Línea 1904" x1="1.592" y2="32.541" transform="translate(67.438 445.268)" fill="none" stroke="#211d1d" stroke-linecap="round" stroke-linejoin="round" stroke-width="0.412"/>
        <path id="Trazado_193007" data-name="Trazado 193007" d="M17.724,203.04C8.938,206.608,1.7,213.946.309,223.61c-1.357,9.449,1.922,19.012,6.582,27.31,5.641-3.687,11.082-8.285,16.724-11.972q-5.923,10.032-11.847,20.065A92.218,92.218,0,0,0,38.226,299.55c6.708-.208,13.85-1,20.107-3.465l-11.621,9.978c-1.2,1.055,20.719,19.8,22.252,21.045,5.934,4.836,11.381,10.6,18.05,14.415,23.113,13.233,25.5-14.755,21.987-30.932a175.663,175.663,0,0,0-17.076-46.152,48.946,48.946,0,0,1-5.154,15.869c.812-10.286-1.325-18.858-1.075-29.171a261.721,261.721,0,0,1-19.582-27.3,145.836,145.836,0,0,1-21.8,2.635,64.139,64.139,0,0,1,18.465-6.594c-5.658-8.463-16.033-15.592-25.784-18.278a30.431,30.431,0,0,0-19.266,1.441" transform="translate(0 106.695)" fill="#dfddcc"/>
        <path id="Trazado_193008" data-name="Trazado 193008" d="M14.767,211.174S82.736,298.106,117.24,372.681" transform="translate(7.853 112.294)" fill="none" stroke="#211d1d" stroke-linecap="round" stroke-linejoin="round" stroke-width="0.726"/>
        <line id="Línea_1905" data-name="Línea 1905" x2="5.009" y2="41.342" transform="translate(36.989 308.294)" fill="none" stroke="#211d1d" stroke-linecap="round" stroke-linejoin="round" stroke-width="0.726"/>
        <path id="Trazado_193009" data-name="Trazado 193009" d="M11.763,260.536l48,5.939,1.559-46.513" transform="translate(6.255 116.966)" fill="none" stroke="#211d1d" stroke-linecap="round" stroke-linejoin="round" stroke-width="0.726"/>
        <path id="Trazado_193010" data-name="Trazado 193010" d="M15.854,269.166l49.268,5.877,2.008-50.352" transform="translate(8.43 119.482)" fill="none" stroke="#211d1d" stroke-linecap="round" stroke-linejoin="round" stroke-width="0.726"/>
        <path id="Trazado_193011" data-name="Trazado 193011" d="M80.665,176.918a24.8,24.8,0,0,1-1.368,7.069,65.925,65.925,0,0,1-4.575,9.256,99.624,99.624,0,0,0-11.137,35.028c7.967,3.837,16.56,7.444,25.2,9.319s18.055,1.6,25.852-2.575a40.177,40.177,0,0,0,5.087-3.316A69.125,69.125,0,0,0,132.7,218.991c-1.426-14.53-14.383-27.454-15.08-42.038Z" transform="translate(33.811 94.078)" fill="#b15546"/>
        <path id="Trazado_193012" data-name="Trazado 193012" d="M80.665,176.918a24.8,24.8,0,0,1-1.368,7.069,65.925,65.925,0,0,1-4.575,9.256,99.624,99.624,0,0,0-11.137,35.028c7.967,3.837,16.56,7.444,25.2,9.319s18.055,1.6,25.852-2.575a40.177,40.177,0,0,0,5.087-3.316A69.125,69.125,0,0,0,132.7,218.991c-1.426-14.53-14.383-27.454-15.08-42.038Z" transform="translate(33.811 94.078)" fill="none" stroke="#ae3e2c" stroke-linecap="round" stroke-linejoin="round" stroke-width="0.22"/>
        <path id="Trazado_193013" data-name="Trazado 193013" d="M83.278,336.241a34.429,34.429,0,0,1-.516,9.573c-.74,3.768-2.106,7.389-2.883,11.15-1.052,5.1-.464,11.023,3.437,14.829,3.662,3.574,11.13,5.661,13.777-.144,2.18-4.779.646-11.484-1.069-16.189-.8-2.2-1.789-4.4-1.841-6.737a36.255,36.255,0,0,1,.467-4.442,16.7,16.7,0,0,0-2.541-10.617Z" transform="translate(42.231 177.43)" fill="#ae3e2c"/>
        <path id="Trazado_193014" data-name="Trazado 193014" d="M83.278,336.241a34.429,34.429,0,0,1-.516,9.573c-.74,3.768-2.106,7.389-2.883,11.15-1.052,5.1-.464,11.023,3.437,14.829,3.662,3.574,11.13,5.661,13.777-.144,2.18-4.779.646-11.484-1.069-16.189-.8-2.2-1.789-4.4-1.841-6.737a36.255,36.255,0,0,1,.467-4.442,16.7,16.7,0,0,0-2.541-10.617Z" transform="translate(42.231 177.43)" fill="#ae3e2c"/>
        <path id="Trazado_193015" data-name="Trazado 193015" d="M95.994,347.861a35.074,35.074,0,0,0-.6,8.181.561.561,0,0,1-.706.538,7.487,7.487,0,0,0-7.823,1.529.567.567,0,0,1-.933-.245,37.837,37.837,0,0,0-5.681-10.053c-.135.542-.262,1.086-.375,1.633-1.052,5.1-.466,11.023,3.436,14.827,3.662,3.574,11.131,5.663,13.778-.142,2.178-4.781.645-11.485-1.071-16.189l-.029-.078" transform="translate(42.232 184.951)" fill="#e5bda8"/>
        <path id="Trazado_193016" data-name="Trazado 193016" d="M107,310.16c-.633-3.06-1.743-6.009-2.345-9.076a28.054,28.054,0,0,1-.421-7.792l-7.187-2.1a13.591,13.591,0,0,0-2.068,8.641,29.729,29.729,0,0,1,.38,3.616,17.535,17.535,0,0,1-1.5,5.484c-1.4,3.829-2.645,9.285-.872,13.176,2.155,4.725,8.233,3.025,11.214.116,3.175-3.1,3.653-7.919,2.8-12.069" transform="translate(48.98 154.846)" fill="#e5bda8"/>
        <path id="Trazado_193017" data-name="Trazado 193017" d="M94.527,303.452a11.869,11.869,0,0,1-.861,3.773,45.066,45.066,0,0,1,2.59,6.234c.233.691.6,2.826.985,2.955.524.173,1.477-.613,1.867-.9a16.683,16.683,0,0,0,3.456-3.826c1.009-1.409,1.971-2.89,2.886-4.421-.571-2.054-1.216-4.091-1.628-6.184a28.053,28.053,0,0,1-.42-7.792l-7.187-2.1a13.592,13.592,0,0,0-2.069,8.641,29.429,29.429,0,0,1,.381,3.616" transform="translate(49.808 154.846)" fill="#ae3e2c"/>
        <path id="Trazado_193018" data-name="Trazado 193018" d="M115.511,118.143c-2.039,8.039-11.294,12.245-19.587,12.181s-16.231-3.18-24.415-4.523-17.64-.435-23.065,5.839a27.967,27.967,0,0,0-29.658,27.118" transform="translate(9.99 62.824)" fill="none" stroke="#2d1a14" stroke-linecap="round" stroke-linejoin="round" stroke-width="1.092"/>
        <path id="Trazado_193019" data-name="Trazado 193019" d="M90.149,116.322c2,7.9,11.093,12.027,19.239,11.965s15.944-3.125,23.984-4.444,17.326-.426,22.656,5.736a27.467,27.467,0,0,1,29.131,26.637" transform="translate(47.938 61.855)" fill="none" stroke="#2d1a14" stroke-linecap="round" stroke-linejoin="round" stroke-width="1.073"/>
        <path id="Trazado_193020" data-name="Trazado 193020" d="M112.35,111.175c-1.69,5.093-1.435,10.782-3.839,15.58-3.414,6.818-11.6,10.191-19.222,9.99-5.168-.136-10.189-1.624-15.235-2.75S63.709,132.1,58.7,133.4a15.339,15.339,0,0,0-9.036,6.315,21.467,21.467,0,1,0,13.942,28.774c3.522,2.083,7.823,2.154,12.469,1.837a31.442,31.442,0,0,0,9.963-2.2c4.713-1.959,8.849-5.366,13.836-6.453,4.5-.979,9.172.043,13.771-.153a6.746,6.746,0,0,0,3.437-.853Z" transform="translate(11.847 59.118)" fill="#2d1a14"/>
        <path id="Trazado_193021" data-name="Trazado 193021" d="M91.338,109.962c1.69,5.093,1.435,10.782,3.839,15.58,3.414,6.818,11.6,10.191,19.222,9.99,5.168-.136,10.189-1.624,15.235-2.749s10.347-1.89,15.351-.591a15.339,15.339,0,0,1,9.036,6.315,21.467,21.467,0,1,1-13.942,28.774c-3.522,2.083-7.823,2.154-12.469,1.837a31.442,31.442,0,0,1-9.963-2.2c-4.713-1.959-8.849-5.366-13.836-6.453-4.5-.979-9.172.043-13.771-.153a6.746,6.746,0,0,1-3.437-.853Z" transform="translate(46.052 58.473)" fill="#2d1a14"/>
        <path id="Trazado_193022" data-name="Trazado 193022" d="M132.415,162.223a18.739,18.739,0,0,0,1.107-9.155,15.264,15.264,0,0,0-2.013-5.547c-.061-.106-.126-.208-.188-.309-3.318-5.315-9.632-8.964-15.814-10.981q-1.6-.522-3.23-.95c-.766-.205-1.535-.389-2.307-.562a62.065,62.065,0,0,0-25.513-.274,60.441,60.441,0,0,0-8.987,2.523,26.1,26.1,0,0,0-14.636,13.394q2.493,5.891,5,11.776c2.371,5.594,4.931,11.177,6.458,17.078a45.636,45.636,0,0,1,1.169,16.561,33.576,33.576,0,0,1-2.817,10.509,22.491,22.491,0,0,0,4.1,4.045,19.859,19.859,0,0,0,5.534,2.664q.935.331,1.869.666c.965.267,1.939.5,2.921.7q1.165.234,2.342.4c.025,0,.208.031.28.04l.058.008c.185.023.371.046.556.067q.6.071,1.2.124a55.79,55.79,0,0,0,9.678.008q1.213-.1,2.422-.247l.669-.084.052-.008.251-.035c.391-.057.783-.116,1.173-.179q2.527-.4,5.021-.994a77.769,77.769,0,0,0,9.7-2.97c1.693-.64,2.863-1.127,4.425-1.838q2.282-1.039,4.493-2.218l.006,0a.96.96,0,0,0,.5-.924c-.066-.809-.17-1.611-.308-2.4-.06-.348-.127-.692-.2-1.029-1.293-5.954-3.943-11.762-3.535-17.842.527-7.812,6.017-14.748,8.563-22.014" transform="translate(32.349 70.859)" fill="#f4d0b8"/>
        <path id="Trazado_193023" data-name="Trazado 193023" d="M103.593,141.49c-5.5-3.007-9.652-12.168-7.924-19.369l-10.676.755c.7,5.02-1.362,10.349-3.725,13.934a11.382,11.382,0,0,1-5.879,4.139c3.109,4.163,8.491,6.247,13.685,6.378s11.2-1.837,14.52-5.838" transform="translate(40.089 64.939)" fill="#b15546"/>
        <path id="Trazado_193024" data-name="Trazado 193024" d="M81.793,124.893a5.519,5.519,0,0,0,2.069,3.606,5.228,5.228,0,0,0,6.985-1.239,9.556,9.556,0,0,0,1.092-1.706,14.934,14.934,0,0,1,.4-3.433l-10.678.755a14.794,14.794,0,0,1,.135,2.017" transform="translate(43.422 64.939)" fill="#2d1a14"/>
        <path id="Trazado_193025" data-name="Trazado 193025" d="M97.969,112.613v14.124a9.746,9.746,0,0,1-4.31,8.075,9.671,9.671,0,0,1-9.5.766A9.762,9.762,0,0,1,78.5,127.11c-.008-.124-.011-.248-.011-.372V112.613a9.741,9.741,0,0,1,19.482,0" transform="translate(41.736 54.703)" fill="#b15546"/>
        <path id="Trazado_193026" data-name="Trazado 193026" d="M99.371,117.553a4.428,4.428,0,0,1-8.855,0,4.376,4.376,0,0,1,.55-2.135,3.974,3.974,0,0,1,.507-.732,4.428,4.428,0,0,1,.965-.847,4.376,4.376,0,0,1,2.406-.712,4.43,4.43,0,0,1,4.427,4.427" transform="translate(48.133 60.156)" fill="#b15546"/>
        <path id="Trazado_193027" data-name="Trazado 193027" d="M82.835,117.839a4.428,4.428,0,1,1-4.427-4.427,4.334,4.334,0,0,1,1.261.184,2.115,2.115,0,0,1,.218.07,4.314,4.314,0,0,1,1,.5,4.423,4.423,0,0,1,1.951,3.672" transform="translate(39.34 60.308)" fill="#b15546"/>
        <path id="Trazado_193028" data-name="Trazado 193028" d="M77.694,113.532a2.114,2.114,0,0,1,.217.07l-.2.07c-.006-.047-.011-.093-.017-.141" transform="translate(41.315 60.372)" fill="#2d201b"/>
        <path id="Trazado_193029" data-name="Trazado 193029" d="M88.177,109.176a14.409,14.409,0,0,0,4.35,7.752c1.506,1.36,3.881,3.06,5.577,3.4l-.135-7.717a9.741,9.741,0,1,0-19.482,0v6.26c7.236-1.5,9.581-10.11,9.69-9.7" transform="translate(41.736 54.703)" fill="#2d201b"/>
        <path id="Trazado_193030" data-name="Trazado 193030" d="M84.412,115.649l-.037,1.451,1.216.081-1.078,1.228" transform="translate(44.868 61.497)" fill="none" stroke="#472a1c" stroke-linecap="round" stroke-linejoin="round" stroke-width="0.202"/>
        <path id="Trazado_193031" data-name="Trazado 193031" d="M80.383,115.349c-.017.386.7.74,1.714.905a8.026,8.026,0,0,0,.967.092,7.46,7.46,0,0,0,1.13-.043c.948-.11,1.616-.4,1.633-.767.015-.34-.538-.656-1.368-.838a7.216,7.216,0,0,0-1.314-.158,7.565,7.565,0,0,0-1.2.051c-.908.116-1.542.4-1.558.758" transform="translate(42.744 60.905)" fill="#fff"/>
        <path id="Trazado_193032" data-name="Trazado 193032" d="M81.212,115.256a1.176,1.176,0,0,0,.447,1,7.689,7.689,0,0,0,.967.093,7.462,7.462,0,0,0,1.13-.043,1.19,1.19,0,0,0,.486-.847,1.126,1.126,0,0,0-.222-.758,7.218,7.218,0,0,0-1.313-.158,7.418,7.418,0,0,0-1.205.051,1.145,1.145,0,0,0-.29.665" transform="translate(43.184 60.905)" fill="#2d1a14"/>
        <path id="Trazado_193033" data-name="Trazado 193033" d="M85.046,115.489c-.017.386.7.74,1.714.905a8.026,8.026,0,0,0,.967.092,7.46,7.46,0,0,0,1.13-.043c.948-.11,1.616-.4,1.633-.767.015-.34-.538-.656-1.368-.838a7.218,7.218,0,0,0-1.314-.158,7.564,7.564,0,0,0-1.2.051c-.908.116-1.542.4-1.558.758" transform="translate(45.224 60.979)" fill="#fff"/>
        <path id="Trazado_193034" data-name="Trazado 193034" d="M85.875,115.4a1.172,1.172,0,0,0,.447,1,7.818,7.818,0,0,0,2.1.051,1.187,1.187,0,0,0,.487-.849,1.124,1.124,0,0,0-.222-.757,7.218,7.218,0,0,0-1.313-.158,7.4,7.4,0,0,0-1.205.051,1.145,1.145,0,0,0-.29.665" transform="translate(45.663 60.979)" fill="#2d1a14"/>
        <path id="Trazado_193035" data-name="Trazado 193035" d="M80.516,114.224a5.28,5.28,0,0,0,3.185-1.663" transform="translate(42.815 59.855)" fill="none" stroke="#2d1a14" stroke-linecap="round" stroke-linejoin="round" stroke-width="0.645"/>
        <path id="Trazado_193036" data-name="Trazado 193036" d="M89.051,114.118a5.28,5.28,0,0,1-3.185-1.663" transform="translate(45.66 59.799)" fill="none" stroke="#2d1a14" stroke-linecap="round" stroke-linejoin="round" stroke-width="0.645"/>
        <path id="Trazado_193037" data-name="Trazado 193037" d="M83.193,117.934a2.11,2.11,0,0,0,4.176,0Z" transform="translate(44.239 62.713)" fill="#fff"/>
        <path id="Trazado_193038" data-name="Trazado 193038" d="M169.168,89.525a4.125,4.125,0,0,0-5.51,1.913l-22.881,47.226L107.692,155.7v23.248l44.665-24.906.859-.479a7.428,7.428,0,0,0,3.551-4.577L171.355,94.3a4.127,4.127,0,0,0-2.187-4.774" transform="translate(57.266 47.386)" fill="#b15546"/>
        <path id="Trazado_193039" data-name="Trazado 193039" d="M143.462,88.829a4.032,4.032,0,0,1,1.671-3.95,10.833,10.833,0,0,1,.99-.625q3.132-1.7,6.263-3.4a2.455,2.455,0,0,1,1.1-.319c1.451-.038,1.683,1.239,1.276,2.1a4.528,4.528,0,0,1-1.224,1.4,37.442,37.442,0,0,1,3.015,9.273,3.145,3.145,0,0,1-.46,2.255,76.4,76.4,0,0,1-5.453,7.377A2.934,2.934,0,0,1,145.5,101.5c-.643-3.99-1.492-9.249-2.042-12.669" transform="translate(76.26 42.826)" fill="#ae3e2c"/>
        <path id="Trazado_193040" data-name="Trazado 193040" d="M143.462,88.829a4.032,4.032,0,0,1,1.671-3.95,10.833,10.833,0,0,1,.99-.625q3.132-1.7,6.263-3.4a2.455,2.455,0,0,1,1.1-.319c1.451-.038,1.683,1.239,1.276,2.1a4.528,4.528,0,0,1-1.224,1.4,37.442,37.442,0,0,1,3.015,9.273,3.145,3.145,0,0,1-.46,2.255,76.4,76.4,0,0,1-5.453,7.377A2.934,2.934,0,0,1,145.5,101.5C144.86,97.508,144.012,92.25,143.462,88.829Z" transform="translate(76.26 42.826)" fill="none" stroke="#ae3e2c" stroke-linecap="round" stroke-linejoin="round" stroke-width="0.229"/>
        <path id="Trazado_193041" data-name="Trazado 193041" d="M61.041,155.111,40.266,205.046A9.386,9.386,0,1,0,57.6,212.258l23.776-57.147Z" transform="translate(21.028 82.482)" fill="#b15546"/>
        <path id="Trazado_193042" data-name="Trazado 193042" d="M125.566,128.664l-23.917,12.317c-.089.046-.216.113-.3.162a10.383,10.383,0,0,0,10.113,18.138l10.986-6.125c3.376-7.732,4.8-16.367,3.122-24.491" transform="translate(51.058 68.418)" fill="#f4d0b8"/>
        <path id="Trazado_193043" data-name="Trazado 193043" d="M72.4,141.517a9.387,9.387,0,0,0-12.271,5.061L53.9,161.555c3.166,6.538,7.339,12.689,13.7,15.938l9.863-23.706A9.387,9.387,0,0,0,72.4,141.517" transform="translate(28.66 74.869)" fill="#f4d0b8"/>
        <path id="Trazado_193044" data-name="Trazado 193044" d="M107.575,172.744,57.263,213.586A10.676,10.676,0,0,1,43.806,197.01a11.619,11.619,0,0,1,1.6-1.075l56.844-31.116c5.121-2.707,9.759,4.231,5.323,7.925" transform="translate(21.196 87.319)" fill="#b15546"/>
        <path id="Trazado_193045" data-name="Trazado 193045" d="M73.683,189.822C66.6,199.428,63.02,216.05,62.919,233.253s9.482,57.181,17.695,72.3c-4.045,9.1-8.371,35.8-4.045,56.625s6.966,23.964,15.518,50.735l9.016-.685,3.829-209.369c-2.434.144-5.327-1.731-7.568-2.694-7.328-3.154-16.353-7.187-23.681-10.341" transform="translate(33.458 100.94)" fill="#2d1a14"/>
        <path id="Trazado_193046" data-name="Trazado 193046" d="M70.189,190.808c.81,7.031,2.6,17.847,7.437,25.655C81.351,222.482,95,232.6,102.073,232.233c2.788,18.043,5.308,35.845,9.924,53.507-8.959,12.6-7.23,41.963-4.915,62.655l8.7-.483c.352-1.345,16.96-46.2,21.178-57.58a17.7,17.7,0,0,0,1.091-5.517c.478-13.417.27-73.551-17.664-94.752Z" transform="translate(37.324 101.068)" fill="#2d1a14"/>
        <path id="Trazado_193047" data-name="Trazado 193047" d="M92.421,339.68h-10.6a3.625,3.625,0,1,1,0-7.25h10.6a3.625,3.625,0,1,1,0,7.25" transform="translate(41.583 176.773)" fill="#e5bda8"/>
        <path id="Trazado_193048" data-name="Trazado 193048" d="M92.785,334.947h-10.6a3.625,3.625,0,1,1,0-7.25h10.6a3.625,3.625,0,1,1,0,7.25" transform="translate(41.777 174.256)" fill="#e5bda8"/>
        <path id="Trazado_193049" data-name="Trazado 193049" d="M102.91,297.057H95.1a3.067,3.067,0,0,1,0-6.135h7.809a3.067,3.067,0,1,1,0,6.135" transform="translate(48.941 154.701)" fill="#e5bda8"/>
        <path id="Trazado_193050" data-name="Trazado 193050" d="M103.821,294.144H96.014a3.067,3.067,0,1,1,0-6.135h7.807a3.067,3.067,0,1,1,0,6.135" transform="translate(49.425 153.152)" fill="#e5bda8"/>
        <line id="Línea_1906" data-name="Línea 1906" x2="52.984" transform="translate(103.051 298.384)" fill="none" stroke="#f4d0b8" stroke-linecap="round" stroke-linejoin="round" stroke-width="0.728"/>
        <path id="Trazado_193051" data-name="Trazado 193051" d="M56.908,79.714l3.966-4.81.066-.492c-3.623,2.284-7.256,4.572-10.964,6.708a65.992,65.992,0,0,1,6.933-1.406" transform="translate(26.575 39.57)" fill="#0e3547"/>
        <path id="Trazado_193052" data-name="Trazado 193052" d="M291.609,87.73h0L288.847,82.4l-1.493-2.886L271.793,49.464l-6.45-12.456-5.772-11.147-4.748-9.169-.015-.029L246.179,0a64.166,64.166,0,0,1-40.961,16.725c-13.918.421-28.883-3.554-41.134,3.06-10.428,5.631-15.985,17.588-25.847,24.164-12.588,8.4-29.381,6.329-43.831,1.834S65.733,34.627,50.6,34.776A50.785,50.785,0,0,0,7.843,59.9l8.468,16.352.162.316c.219-.388.447-.774.68-1.152l8.923,14.448.4.642,8.844,14.32.291.475,8.893,14.4.433.7L52.906,133.3l1.255,2.034,3.583,5.8,4.866,7.884a51.366,51.366,0,0,1,36.1-15.985c15.226-.161,29.534,6.519,44.069,11.019s31.435,6.565,44.109-1.884c9.929-6.619,15.532-18.64,26.029-24.308,12.335-6.657,27.391-2.681,41.4-3.114a64.734,64.734,0,0,0,42.13-17.683Z" transform="translate(4.171)" fill="#ffb000"/>
        <path id="Trazado_193053" data-name="Trazado 193053" d="M285.3,77.042l-2.762-5.332-1.493-2.886L265.488,38.775,274.9,57.107l-5.773-11.147L255.732,20.1A64.17,64.17,0,0,1,214.77,36.825c-13.916.421-28.883-3.554-41.134,3.06-10.427,5.631-15.984,17.588-25.845,24.164-12.588,8.4-29.381,6.329-43.833,1.834s-28.673-11.156-43.8-11.007c-17.133.165-31.805,9.446-40.454,24.232C24.038,87,29.012,94.133,29.012,94.133l.291.475,8.893,14.4.433.7L46.6,122.616l1.255,2.034,3.583,5.8L56.3,138.33a51.366,51.366,0,0,1,36.1-15.985c15.227-.161,29.535,6.519,44.07,11.019s31.435,6.565,44.109-1.884c9.929-6.619,15.532-18.64,26.029-24.308,12.335-6.657,27.391-2.681,41.4-3.114a64.734,64.734,0,0,0,42.13-17.683Z" transform="translate(10.476 10.688)" fill="#1c508c"/>
        <path id="Trazado_193054" data-name="Trazado 193054" d="M279.689,66.911l-2.762-5.332-1.493-2.886-.135-.865-6.018-10.851,9.653,18.036L265.542,39.152a64.163,64.163,0,0,1-40.961,16.725c-13.918.421-28.883-3.554-41.134,3.06C173.019,64.568,167.462,76.525,157.6,83.1c-12.59,8.4-29.381,6.329-43.833,1.834S85.1,73.779,69.965,73.928c-17.134.165-31.058,7.778-39.706,22.564,4.834,7.807,10.727,15.993,10.727,15.993l1.255,2.034,3.583,5.8L50.69,128.2a51.366,51.366,0,0,1,36.1-15.985c15.227-.161,29.535,6.519,44.07,11.019s31.435,6.565,44.109-1.884C184.9,114.731,190.5,102.709,201,97.042c12.335-6.657,27.391-2.681,41.4-3.114a64.734,64.734,0,0,0,42.13-17.683Z" transform="translate(16.091 20.819)" fill="#ff4d1d"/>
        <line id="Línea_1907" data-name="Línea 1907" x1="184.286" y1="297.399" transform="translate(7.333 53.762)" fill="none" stroke="#2d1a14" stroke-linecap="round" stroke-linejoin="round" stroke-width="1.271"/>
        <path id="Trazado_193055" data-name="Trazado 193055" d="M78.25,163.485a4.483,4.483,0,0,1,2.1-4.287,11.772,11.772,0,0,1,1.138-.634l7.166-3.4a2.723,2.723,0,0,1,1.238-.286,1.515,1.515,0,0,1,1.29,2.406,5.042,5.042,0,0,1-1.444,1.477,41.736,41.736,0,0,1,2.785,10.486,3.5,3.5,0,0,1-.648,2.478,85.319,85.319,0,0,1-6.507,7.866,3.266,3.266,0,0,1-5.615-1.907c-.472-4.473-1.1-10.368-1.5-14.2" transform="translate(41.597 82.359)" fill="#b15546"/>
        <path id="Trazado_193056" data-name="Trazado 193056" d="M78.25,163.485a4.483,4.483,0,0,1,2.1-4.287,11.772,11.772,0,0,1,1.138-.634l7.166-3.4a2.723,2.723,0,0,1,1.238-.286,1.515,1.515,0,0,1,1.29,2.406,5.042,5.042,0,0,1-1.444,1.477,41.736,41.736,0,0,1,2.785,10.486,3.5,3.5,0,0,1-.648,2.478,85.319,85.319,0,0,1-6.507,7.866,3.266,3.266,0,0,1-5.615-1.907C79.276,173.215,78.653,167.319,78.25,163.485Z" transform="translate(41.597 82.359)" fill="none" stroke="#ae3e2c" stroke-linecap="round" stroke-linejoin="round" stroke-width="0.255"/>
        <path id="Trazado_193057" data-name="Trazado 193057" d="M99.265,82.783v48.462a10.292,10.292,0,0,1-.17,1.869c-2.958.158-6.231.244-9.668.244-3.9,0-7.588-.112-10.848-.309a10.265,10.265,0,0,1-.156-1.8V82.783a10.421,10.421,0,0,1,20.843,0" transform="translate(41.702 38.479)" fill="#f4d0b8"/>
        <path id="Trazado_193058" data-name="Trazado 193058" d="M78.421,103.618v11.006a10.121,10.121,0,0,0,.158,1.8c3.26.2,6.945.309,10.848.309,3.436,0,6.709-.086,9.667-.244a10.293,10.293,0,0,0,.17-1.869V103.618Z" transform="translate(41.701 55.1)" fill="#2d1a14"/>
        <path id="Trazado_193059" data-name="Trazado 193059" d="M118.3,111.28c0,1.213-6.008,2.256-14.6,2.708-2.958.158-6.231.244-9.668.244-3.9,0-7.587-.112-10.846-.309-7.956-.484-13.42-1.481-13.42-2.642s5.392-2.144,13.262-2.63c3.3-.21,7.043-.322,11-.322,3.5,0,6.835.092,9.839.25,8.5.46,14.429,1.5,14.429,2.7" transform="translate(37.098 57.605)" fill="#f4d0b8"/>
        <path id="Trazado_193060" data-name="Trazado 193060" d="M138.843,60.087V70.143h3.5v54.218h7v6.121H186.5v-70.4Z" transform="translate(73.831 31.952)" fill="#f4d0b8"/>
        <path id="Trazado_193061" data-name="Trazado 193061" d="M145.055,71.17h0V65.049a5.247,5.247,0,1,0-10.494,0V71.17Z" transform="translate(71.554 31.8)" fill="#e5bda8"/>
        <path id="Trazado_193062" data-name="Trazado 193062" d="M192.284,111.4h-45.91a5.247,5.247,0,1,1,0-10.494h45.91a5.247,5.247,0,0,1,0,10.494" transform="translate(75.045 53.658)" fill="#ffe9de"/>
        <path id="Trazado_193063" data-name="Trazado 193063" d="M141.126,100.621h0v6.121a5.247,5.247,0,1,0,10.494,0v-6.121Z" transform="translate(75.045 53.506)" fill="#e5bda8"/>
        <line id="Línea_1908" data-name="Línea 1908" x2="24.049" transform="translate(230.6 102.97)" fill="none" stroke="#211d1d" stroke-linecap="round" stroke-linejoin="round" stroke-width="0.373"/>
        <line id="Línea_1909" data-name="Línea 1909" x2="24.049" transform="translate(230.6 107.342)" fill="none" stroke="#211d1d" stroke-linecap="round" stroke-linejoin="round" stroke-width="0.373"/>
        <line id="Línea_1910" data-name="Línea 1910" x2="24.049" transform="translate(230.6 111.715)" fill="none" stroke="#211d1d" stroke-linecap="round" stroke-linejoin="round" stroke-width="0.373"/>
        <line id="Línea_1911" data-name="Línea 1911" x2="24.049" transform="translate(230.6 116.087)" fill="none" stroke="#211d1d" stroke-linecap="round" stroke-linejoin="round" stroke-width="0.373"/>
        <line id="Línea_1912" data-name="Línea 1912" x2="31.481" transform="translate(223.167 120.459)" fill="none" stroke="#211d1d" stroke-linecap="round" stroke-linejoin="round" stroke-width="0.427"/>
        <line id="Línea_1913" data-name="Línea 1913" x2="31.481" transform="translate(223.167 124.832)" fill="none" stroke="#211d1d" stroke-linecap="round" stroke-linejoin="round" stroke-width="0.427"/>
        <line id="Línea_1914" data-name="Línea 1914" x2="31.481" transform="translate(223.167 129.204)" fill="none" stroke="#211d1d" stroke-linecap="round" stroke-linejoin="round" stroke-width="0.427"/>
        <line id="Línea_1915" data-name="Línea 1915" x2="31.481" transform="translate(223.167 133.577)" fill="none" stroke="#211d1d" stroke-linecap="round" stroke-linejoin="round" stroke-width="0.427"/>
        <line id="Línea_1916" data-name="Línea 1916" x2="31.481" transform="translate(223.167 137.949)" fill="none" stroke="#211d1d" stroke-linecap="round" stroke-linejoin="round" stroke-width="0.427"/>
        <line id="Línea_1917" data-name="Línea 1917" x2="31.481" transform="translate(223.167 142.322)" fill="none" stroke="#211d1d" stroke-linecap="round" stroke-linejoin="round" stroke-width="0.427"/>
        <line id="Línea_1918" data-name="Línea 1918" x2="31.481" transform="translate(223.167 146.694)" fill="none" stroke="#211d1d" stroke-linecap="round" stroke-linejoin="round" stroke-width="0.427"/>
        <line id="Línea_1919" data-name="Línea 1919" x2="31.481" transform="translate(223.167 151.066)" fill="none" stroke="#211d1d" stroke-linecap="round" stroke-linejoin="round" stroke-width="0.427"/>
      </g>
    </g>
  </g>
</svg>
