<svg xmlns="http://www.w3.org/2000/svg" xmlns:xlink="http://www.w3.org/1999/xlink" width="398.999" height="448.874" viewBox="0 0 398.999 448.874">
  <defs>
    <clipPath id="clip-path">
      <rect id="Rectángulo_44170" data-name="Rectángulo 44170" width="318.67" height="448.874" fill="none"/>
    </clipPath>
  </defs>
  <g id="Grupo_145574" data-name="Grupo 145574" transform="translate(-180.5 -625)">
    <path id="Unión_1" data-name="Unión 1" d="M13112.332,12099v-253.351h0V11822a122.858,122.858,0,0,1,2.478-24.59,121.38,121.38,0,0,1,18.358-43.623,122.262,122.262,0,0,1,53.676-44.2,121.314,121.314,0,0,1,22.9-7.11,123.1,123.1,0,0,1,49.174,0,121.417,121.417,0,0,1,43.622,18.355,121.742,121.742,0,0,1,53.79,101.167v277Z" transform="translate(12279.496 -12358.912) rotate(90)" fill="#f7724a"/>
    <g id="Grupo_145362" data-name="Grupo 145362" transform="translate(260.829 625)">
      <g id="Grupo_145361" data-name="Grupo 145361" clip-path="url(#clip-path)">
        <path id="Trazado_193803" data-name="Trazado 193803" d="M14.1,123.043C5.4,129.009-.723,138.707.069,149.537c.774,10.591,6.611,20.2,13.649,28.108,5.252-5.348,10.071-11.639,15.323-16.986l-8.1,24.619a102.578,102.578,0,0,0,38.392,37.757c7.239-1.824,14.81-4.388,21.025-8.548L70.1,228.093c-1.055,1.431,27.222,16.581,29.185,17.574,7.6,3.843,14.886,8.807,23.041,11.37,28.264,8.88,24.2-22.1,16.535-38.841a195.4,195.4,0,0,0-29.535-46.086,54.429,54.429,0,0,1-1.825,18.468c-1.564-11.368-5.925-20.174-8.107-31.441a291.119,291.119,0,0,1-27.773-25.007,162.207,162.207,0,0,1-23.066,8.052,71.336,71.336,0,0,1,18.5-11.559c-8.162-7.85-21.132-13.129-32.367-13.728a33.848,33.848,0,0,0-20.591,6.15" transform="translate(0 54.867)" fill="#dfddcc"/>
        <path id="Trazado_193804" data-name="Trazado 193804" d="M12.7,130.262s95.159,66.607,136.075,142.351" transform="translate(5.963 61.163)" fill="none" stroke="#211d1d" stroke-linecap="round" stroke-linejoin="round" stroke-width="0.665"/>
        <line id="Línea_1926" data-name="Línea 1926" x2="5.534" y2="50.176" transform="translate(87.282 204.031)" fill="none" stroke="#211d1d" stroke-linecap="round" stroke-linejoin="round" stroke-width="0.665"/>
        <path id="Trazado_193805" data-name="Trazado 193805" d="M18.456,188.416l58.214-4.422-5.631-49.05" transform="translate(8.666 63.361)" fill="none" stroke="#211d1d" stroke-linecap="round" stroke-linejoin="round" stroke-width="0.665"/>
        <path id="Trazado_193806" data-name="Trazado 193806" d="M228.136,169.63c9.192,4.356,16.5,12.656,17.4,23.088.877,10.2-3.217,20.244-8.713,28.847-5.816-4.291-11.364-9.548-17.18-13.84q5.731,11.1,11.464,22.208a95.844,95.844,0,0,1-5.524,11.88A98.669,98.669,0,0,1,200.3,271.737c-7.171-.632-14.77-1.921-21.322-4.935L190.817,278.2c1.223,1.2-23.394,19.937-25.111,21.182-6.65,4.817-12.834,10.656-20.208,14.337-25.558,12.766-26.409-17.354-21.664-34.464a188.441,188.441,0,0,1,21.1-48.388,52.535,52.535,0,0,0,4.553,17.31c-.242-11.064,2.569-20.112,2.929-31.173a280.567,280.567,0,0,0,22.634-28.045,156.406,156.406,0,0,0,23.191,4.15,68.745,68.745,0,0,0-19.374-8.187c6.576-8.719,18.121-15.721,28.728-18a32.64,32.64,0,0,1,20.544,2.717" transform="translate(57.088 78.077)" fill="#ffddae"/>
        <path id="Trazado_193807" data-name="Trazado 193807" d="M227,177.791S146.545,255.716,119.128,334.08" transform="translate(55.935 83.48)" fill="none" stroke="#211d1d" stroke-linecap="round" stroke-linejoin="round" stroke-width="0.641"/>
        <line id="Línea_1927" data-name="Línea 1927" x2="2.115" y2="47.565" transform="translate(225.862 277.126)" fill="none" stroke="#211d1d" stroke-linecap="round" stroke-linejoin="round" stroke-width="0.641"/>
        <line id="Línea_1928" data-name="Línea 1928" x2="2.378" y2="48.621" transform="translate(219.52 283.732)" fill="none" stroke="#211d1d" stroke-linecap="round" stroke-linejoin="round" stroke-width="0.641"/>
        <line id="Línea_1929" data-name="Línea 1929" y1="3.611" x2="53.103" transform="translate(229.565 319.889)" fill="none" stroke="#211d1d" stroke-linecap="round" stroke-linejoin="round" stroke-width="0.749"/>
        <line id="Línea_1930" data-name="Línea 1930" x1="0.766" y1="45.435" transform="translate(177.367 389.992)" fill="none" stroke="#e5bda8" stroke-linecap="round" stroke-linejoin="round" stroke-width="2.205"/>
        <line id="Línea_1931" data-name="Línea 1931" x1="4.86" y1="30.242" transform="translate(194.874 329.042)" fill="none" stroke="#e5bda8" stroke-linecap="round" stroke-linejoin="round" stroke-width="2.205"/>
        <path id="Trazado_193808" data-name="Trazado 193808" d="M281.082,30.078c.01,1.268-1.567-.467-2.895-.627l5.02-6.013L286.169,1.7C73.493,36.462,54.583,2.859,54.583,2.859L56.35,9.022c-.328-.11-.661-.213-.988-.325-1.395-.475-3.48,2.038-3.468.58a305.908,305.908,0,0,1-24.925,67.73c4.272-.012,8.66,0,12.644,1.524s7.524,4.935,7.878,9.139c.413,4.9-3.445,9.3-3.559,14.218-.15,6.385,6.3,11.387,12.729,12.078s12.728-1.766,18.715-4.176c1.962,9.664,9.9,17.327,18.108,22.938s17.9,8.747,27.663,10.789c12.929,2.7,26.763,3.534,39.053-1.27V121.605l12.578.9v40.542c12.288,4.8,26.124,3.974,39.053,1.27,9.764-2.043,19.457-5.18,27.663-10.789s16.146-13.274,18.108-22.938c5.987,2.41,12.287,4.866,18.715,4.176s12.879-5.693,12.729-12.078c-.115-4.919-3.972-9.314-3.559-14.218.354-4.2,3.9-7.614,7.878-9.139s8.372-1.536,12.642-1.524a305.977,305.977,0,0,1-24.923-67.73" transform="translate(12.663 0.8)" fill="#ffb000"/>
        <path id="Trazado_193809" data-name="Trazado 193809" d="M278.187,20.641l.147-.176a53.493,53.493,0,0,0-10.766,2.877c-.069.026-.138.056-.206.082a74.692,74.692,0,0,1-13.23,5.309c-7,1.994-13.918,2.038-21.142,1.821a41.623,41.623,0,0,0-9.542.676c-1.525.31-3.4.719-4.318,2.1-1.48,2.243-.632,6.185-.677,8.7-.068,3.716-.783,7.349-3.283,10.254-4.979,5.789-13.956,6.417-21.085,6.728-11.1.482-22.159.936-33.247,1.643-12.848.82-26.02,1.383-38.684-1.373a80.284,80.284,0,0,1-14.992-4.739c-2.191-.964-3.95-2.256-4.144-4.766-.266-3.459,1.115-7.23,2.125-10.478,1.4-4.509-4.883-7.434-8.256-9.239-9.937-5.314-21.705-6.9-32.824-7.65-6.037-.41-12.078-.5-18.122-.5A306.11,306.11,0,0,1,26.969,68.2c4.272-.012,8.66,0,12.644,1.524s7.524,4.935,7.878,9.139c.413,4.9-3.445,9.3-3.559,14.218-.15,6.385,6.3,11.387,12.729,12.078s12.728-1.766,18.715-4.176c1.962,9.664,9.9,17.327,18.108,22.938s17.9,8.747,27.663,10.789c12.929,2.7,26.763,3.534,39.053-1.27V112.8l12.578.9v40.542c12.288,4.8,26.124,3.974,39.053,1.27,9.764-2.043,19.457-5.18,27.663-10.789s16.146-13.274,18.108-22.938c5.987,2.41,12.287,4.866,18.715,4.176s12.879-5.693,12.729-12.078c-.115-4.919-3.972-9.314-3.559-14.218.354-4.2,3.9-7.614,7.878-9.139s8.372-1.536,12.642-1.524a305.977,305.977,0,0,1-24.923-67.73c.01,1.268-1.567-.467-2.895-.627" transform="translate(12.663 9.609)" fill="#1c508c"/>
        <path id="Trazado_193810" data-name="Trazado 193810" d="M269.013,63.516c-8.853,1.627-19.921,1.412-27.092,7.6-4.6,3.972-2.09,8.589.592,12.835,2.215,3.512,4.932,7.53,3.956,11.883-.957,4.263-4.861,7.061-8.716,8.65-11.241,4.633-25.089,3.376-36.875,2.1-11.592-1.251-23.724-2.955-34.778-6.766-9.44-3.252-18.161-8.16-27.4-11.893-10.085-4.075-20.233-4.994-31.037-4.81-7.65.131-15.368.342-22.956-.852-4.958-.782-11.407-2.7-12.582-8.3C70.891,68.1,76.989,64.846,80.806,61.7c3.858-3.183,5.252-7.58,1.644-11.492-3.145-3.414-8.019-5.217-12.349-6.611a114.662,114.662,0,0,0-16.507-3.778c-5.453-.9-10.929-1.456-16.409-2q-4.66,11.315-10.216,22.241c4.272-.01,8.661,0,12.642,1.524s7.526,4.935,7.88,9.139c.413,4.9-3.445,9.3-3.559,14.219-.15,6.384,6.3,11.386,12.728,12.077s12.729-1.766,18.718-4.176c1.96,9.665,9.9,17.327,18.106,22.938s17.9,8.747,27.661,10.789c12.93,2.7,26.766,3.534,39.054-1.268V104.653l12.578.9V146.1c12.288,4.8,26.124,3.972,39.053,1.268,9.764-2.043,19.455-5.18,27.661-10.789S255.637,123.3,257.6,113.636c5.987,2.41,12.287,4.867,18.715,4.176s12.878-5.693,12.729-12.077c-.115-4.92-3.972-9.315-3.561-14.219.356-4.2,3.9-7.614,7.88-9.139s8.372-1.534,12.644-1.524q-6.736-13.23-12.152-27.063a75.386,75.386,0,0,1-24.843,9.725" transform="translate(12.663 17.754)" fill="#ff4d1d"/>
        <path id="Trazado_193811" data-name="Trazado 193811" d="M113.938,269.029a48.76,48.76,0,0,1-.73,13.546c-1.046,5.333-2.98,10.457-4.078,15.78-1.49,7.214-.66,15.6,4.861,20.982,5.183,5.058,15.751,8.012,19.5-.2,3.085-6.763.914-16.25-1.514-22.909-1.135-3.111-2.532-6.222-2.606-9.533a51.337,51.337,0,0,1,.663-6.287,23.635,23.635,0,0,0-3.6-15.023Z" transform="translate(50.934 124.608)" fill="#822d1e"/>
        <path id="Trazado_193812" data-name="Trazado 193812" d="M127.912,293.4c-6.664-.93-13.1.476-19.128,3.1a18.313,18.313,0,0,0,5.063,9.82c5.183,5.058,15.751,8.012,19.5-.2a21.6,21.6,0,0,0,1.356-11.041,35.294,35.294,0,0,0-6.788-1.678" transform="translate(51.078 137.627)" fill="#e5bda8"/>
        <path id="Trazado_193813" data-name="Trazado 193813" d="M133.343,227.118a9.489,9.489,0,0,0-2.916,9.405c.626,2.362,2.172,4.448,2.476,6.873.288,2.3-.582,4.566-1.143,6.816-1.054,4.213-.952,8.961,1.487,12.553s7.674,5.426,11.365,3.139A7.008,7.008,0,0,0,147,263.424c2.05-3.611.553-8.09-.567-12.088A59.175,59.175,0,0,1,145,225.992Z" transform="translate(61.104 106.112)" fill="#822d1e"/>
        <path id="Trazado_193814" data-name="Trazado 193814" d="M146.05,243.093a28.46,28.46,0,0,0-15.223,4.977,13,13,0,0,0,2.1,6.666c2.439,3.592,7.674,5.424,11.364,3.137a6.992,6.992,0,0,0,2.388-2.479c2.05-3.611.551-8.09-.567-12.088-.022-.071-.037-.143-.057-.213" transform="translate(61.428 114.142)" fill="#e5bda8"/>
        <path id="Trazado_193815" data-name="Trazado 193815" d="M108.655,122.386c-7.07,9.595-11.008,23.216-11.11,40.4s4.188,59.791,8.16,70.387c-2.648,6.622-2.334,40.79,1.987,61.587,3.841,18.482,7.655,29.219,11.711,41.607a7.107,7.107,0,0,0,6.551,4.892l3.731.109a6.654,6.654,0,0,0,6.845-6.553l-1.024-202.3c-2.432.144-1.317-1.822-3.555-2.785-7.318-3.151-15.977-4.2-23.3-7.346" transform="translate(45.801 57.465)" fill="#e5bda8"/>
        <path id="Trazado_193816" data-name="Trazado 193816" d="M111.921,130c.81,7.023,1.678,14.238,5.017,20.471s6.081,9.113,13.142,8.747c2.785,18.022,8.988,38.033,13.6,55.676-8.191,11.523-7.439,37.065-5.478,57.158a5.817,5.817,0,0,0,5.981,5.252l4.541-.147a7.21,7.21,0,0,0,6.547-4.744c4.345-11.952,16.075-43.629,19.523-52.931a17.678,17.678,0,0,0,1.09-5.512c.478-13.4-4.849-69.453-22.763-90.631Z" transform="translate(52.551 57.913)" fill="#e5bda8"/>
        <rect id="Rectángulo_44169" data-name="Rectángulo 44169" width="68.88" height="25.422" transform="translate(145.774 169.195)" fill="#2d1a14"/>
        <path id="Trazado_193817" data-name="Trazado 193817" d="M102.789,160.339c.1.517.19,3.991.337,7.717h70.845c-.163-5.772-.6-12.169-.36-15.889a119.691,119.691,0,0,1,1.743-14.85c.933-4.832,2.316-10.407,3.63-15.147,3.3-11.909,15.762-28.741,13.427-40.865-1.881-9.768-12.582-19.867-28.007-22.228-4.406-.675-8.863-.635-13.21-.954-6.979-.513-13.934-1.3-20.932-1.508-14.7-.435-33.435,2.041-40.448,16.894-6.2,13.142,3.383,30.149,6.575,43.556,3.311,13.906,3.464,27.519,6.4,43.274" transform="translate(41.211 26.562)" fill="#f4d0b8"/>
        <path id="Trazado_193818" data-name="Trazado 193818" d="M133.5,44.555c-.215,7.853,3.453,17.088,5.151,20.064l-2.905,1.762c-.789.478-1.58.957-2.41,1.358a14.494,14.494,0,0,1-9.858.97,15.248,15.248,0,0,1-8.249-5.9c1.927-2.016,3.749-5.671,4.932-17.933Z" transform="translate(54.104 20.92)" fill="#822d1e"/>
        <path id="Trazado_193819" data-name="Trazado 193819" d="M122.239,57.6a23.9,23.9,0,0,0,10.681-9.856,27.688,27.688,0,0,1-.107-3.184l-13.339.323c-.727,7.536-1.7,11.821-2.782,14.472a26.4,26.4,0,0,0,5.548-1.755" transform="translate(54.791 20.92)" fill="#2d1a14"/>
        <path id="Trazado_193820" data-name="Trazado 193820" d="M121.876,32.533a5.792,5.792,0,0,1,4.182,6.582c-.425,2.8-2.435,5.258-4.7,7.246-1.14-3.418-1.946-6.429-3.086-9.846-.428-1.284-.72-2.966.5-3.784a5.162,5.162,0,0,1,3.108-.2" transform="translate(55.358 15.209)" fill="#2d201b"/>
        <path id="Trazado_193821" data-name="Trazado 193821" d="M136.473,50.8c0,.168,0,.335-.01.5,0,.106-.009.216-.024.32,0,.057,0,.115-.009.168s0,.066-.01.1c-.009.11-.024.21-.034.316l-.013.091c-.025.153-.049.3-.072.444s-.068.314-.1.467c-.01.057-.029.11-.043.168a.706.706,0,0,1-.025.1c-.032.129-.072.263-.11.392-.094.314-.21.616-.334.921-.029.068-.068.144-.1.215a10.041,10.041,0,0,1-1.051,1.81c-.091.125-.182.24-.273.359-.047.062-.1.125-.157.187a3.912,3.912,0,0,1-.257.3c-.225.238-.459.473-.7.7,0,.006-.009.01-.015.01-.1.1-.219.2-.329.287a9.4,9.4,0,0,1-.855.626c-.219.148-.454.281-.688.41a8.937,8.937,0,0,1-1.295.588.114.114,0,0,0-.023.01c-.087.028-.176.062-.267.09l-.21.072c-.038.01-.076.019-.121.034a.674.674,0,0,1-.1.028c-.115.034-.229.063-.348.091a9.449,9.449,0,0,1-2.135.263c-.159,0-.32,0-.483,0a9.669,9.669,0,0,1-4.891-1.581,10.154,10.154,0,0,1-3.364-3.727,10.034,10.034,0,0,1-1.146-4.572l-.019-2.354,0-.354v-.263l-.006-.281,0-.535c0-.159,0-.316,0-.473l-.043-4.854V41.69l-.019-2.169-.025-2.991c0-.163,0-.329.01-.492,0-.081,0-.162.009-.244.006-.057.01-.123.015-.185s.01-.129.015-.193a.135.135,0,0,0,0-.043c0-.043.01-.081.015-.119s.009-.1.015-.138.013-.057.019-.087a1.257,1.257,0,0,1,.028-.2.839.839,0,0,1,.029-.172q.007-.057.013-.1c.029-.134.057-.267.087-.4.019-.072.038-.143.053-.215s.032-.138.057-.206.038-.129.053-.2l0-.006c.024-.066.043-.128.062-.2s.043-.129.066-.2.044-.129.068-.191a9.676,9.676,0,0,1,.554-1.223c.087-.163.176-.325.272-.478a1.429,1.429,0,0,1,.11-.182c.1-.162.21-.32.316-.478a.273.273,0,0,0,.051-.062,3.547,3.547,0,0,1,.263-.344c.057-.068.11-.14.168-.206,0,0,.009-.015.015-.019a9.659,9.659,0,0,1,15.864,1.462,8.925,8.925,0,0,1,.655,1.342,10.064,10.064,0,0,1,.692,3.593l.043,4.782.01,1.112.057,5.847.009,1.112Z" transform="translate(54.823 12.429)" fill="#822d1e"/>
        <path id="Trazado_193822" data-name="Trazado 193822" d="M120.245,40.242a3.856,3.856,0,0,1-1.233,2.871c-.081.076-.162.147-.248.215a.214.214,0,0,0-.043.034,2.161,2.161,0,0,1-.191.128,3.646,3.646,0,0,1-2.025.626,3.839,3.839,0,0,1-.068-7.677,3.689,3.689,0,0,1,1.471.287,3.773,3.773,0,0,1,.8.458,3.856,3.856,0,0,1,1.539,3.058" transform="translate(52.918 17.11)" fill="#822d1e"/>
        <path id="Trazado_193823" data-name="Trazado 193823" d="M128.658,40.826a3.772,3.772,0,1,0,3.737-3.874,3.8,3.8,0,0,0-3.737,3.874" transform="translate(60.41 17.35)" fill="#822d1e"/>
        <line id="Línea_1932" data-name="Línea 1932" x1="70.153" transform="translate(144.357 187.907)" fill="none" stroke="#472a1c" stroke-linecap="round" stroke-linejoin="round" stroke-width="0.354"/>
        <path id="Trazado_193824" data-name="Trazado 193824" d="M123.345,39.777l-.038,1.686,1.271.094-1.127,1.428" transform="translate(57.897 18.677)" fill="none" stroke="#472a1c" stroke-linecap="round" stroke-linejoin="round" stroke-width="0.232"/>
        <path id="Trazado_193825" data-name="Trazado 193825" d="M116.866,41.178c.016-.145.232-.138.367-.081a6.554,6.554,0,0,1,3.686,4.044,8.056,8.056,0,0,1,5.759-2.655,7.662,7.662,0,0,1,5.63,2.542.85.85,0,0,0,.128-.469,4.837,4.837,0,0,1,4.076-3.891c.253,1.558.669,2.979.92,4.538a18.222,18.222,0,0,1,.292,2.585,9.384,9.384,0,0,1-6.244,8.817c-4.439,1.475-9.756.751-12.917-2.7s-2.193-8.082-1.7-12.734" transform="translate(54.622 19.095)" fill="#2d1a14"/>
        <path id="Trazado_193826" data-name="Trazado 193826" d="M126.429,44.188c0,.761-.992,1.378-2.218,1.378S122,44.95,122,44.188s.992-1.378,2.216-1.378,2.218.617,2.218,1.378" transform="translate(57.281 20.101)" fill="#822d1e"/>
        <path id="Trazado_193827" data-name="Trazado 193827" d="M221.425,9.1a4.921,4.921,0,0,0-6.722,1.8L188.481,56.319,159.434,72.7v36.869c.015-.013.031-.024.046-.035L203.01,73.973l1.655-1.351A7.164,7.164,0,0,0,207,69.153L223.669,14.8a4.924,4.924,0,0,0-2.244-5.7" transform="translate(74.861 3.963)" fill="#b15546"/>
        <path id="Trazado_193828" data-name="Trazado 193828" d="M173.726,49.914l-24,13.533a17.4,17.4,0,0,0-2.288,1.562A16.172,16.172,0,1,0,167.9,90.057l8.169-6.673a315.6,315.6,0,0,0-2.344-33.47" transform="translate(66.439 23.437)" fill="#f4d0b8"/>
        <path id="Trazado_193829" data-name="Trazado 193829" d="M196.982,7.872a4.043,4.043,0,0,1,1.89-3.863,10.41,10.41,0,0,1,1.026-.57l6.454-3.06A2.473,2.473,0,0,1,207.466.12a1.365,1.365,0,0,1,1.162,2.169,4.574,4.574,0,0,1-1.3,1.33,37.627,37.627,0,0,1,2.509,9.446,3.157,3.157,0,0,1-.585,2.234,76.527,76.527,0,0,1-5.862,7.085,2.94,2.94,0,0,1-5.057-1.718c-.426-4.029-.988-9.34-1.35-12.794" transform="translate(92.48 0.056)" fill="#b15546"/>
        <path id="Trazado_193830" data-name="Trazado 193830" d="M196.982,7.872a4.043,4.043,0,0,1,1.89-3.863,10.41,10.41,0,0,1,1.026-.57l6.454-3.06A2.473,2.473,0,0,1,207.466.12a1.365,1.365,0,0,1,1.162,2.169,4.574,4.574,0,0,1-1.3,1.33,37.627,37.627,0,0,1,2.509,9.446,3.157,3.157,0,0,1-.585,2.234,76.527,76.527,0,0,1-5.862,7.085,2.94,2.94,0,0,1-5.057-1.718C197.906,16.636,197.345,11.325,196.982,7.872Z" transform="translate(92.48 0.056)" fill="none" stroke="#782b1e" stroke-linecap="round" stroke-linejoin="round" stroke-width="0.24"/>
        <path id="Trazado_193831" data-name="Trazado 193831" d="M105.841,71.609,78.955,56.449,52.732,11.032a4.92,4.92,0,0,0-8.966,3.9L60.438,69.281a7.14,7.14,0,0,0,2.329,3.467L64.425,74.1l41.416,33.833Z" transform="translate(20.448 4.024)" fill="#b15546"/>
        <path id="Trazado_193832" data-name="Trazado 193832" d="M108.237,63.356,85.463,50.515c-1.608,10.811-3.224,21.7-3.8,32.587l8.4,6.864a17.411,17.411,0,0,0,2.287,1.562,16.172,16.172,0,0,0,15.887-28.173" transform="translate(38.343 23.719)" fill="#f4d0b8"/>
        <path id="Trazado_193833" data-name="Trazado 193833" d="M53.982,8a4.04,4.04,0,0,0-1.89-3.863,10.411,10.411,0,0,0-1.026-.57L44.612.509A2.473,2.473,0,0,0,43.5.25c-1.453.041-1.617,1.331-1.162,2.169a4.574,4.574,0,0,0,1.3,1.33A37.576,37.576,0,0,0,41.128,13.2a3.155,3.155,0,0,0,.585,2.232,76.524,76.524,0,0,0,5.862,7.085A2.94,2.94,0,0,0,52.632,20.8c.426-4.031.988-9.342,1.351-12.8" transform="translate(19.301 0.117)" fill="#b15546"/>
        <path id="Trazado_193834" data-name="Trazado 193834" d="M53.982,8a4.04,4.04,0,0,0-1.89-3.863,10.411,10.411,0,0,0-1.026-.57L44.612.509A2.473,2.473,0,0,0,43.5.25c-1.453.041-1.617,1.331-1.162,2.169a4.574,4.574,0,0,0,1.3,1.33A37.576,37.576,0,0,0,41.128,13.2a3.155,3.155,0,0,0,.585,2.232,76.524,76.524,0,0,0,5.862,7.085A2.94,2.94,0,0,0,52.632,20.8C53.058,16.766,53.619,11.455,53.982,8Z" transform="translate(19.301 0.117)" fill="none" stroke="#782b1e" stroke-linecap="round" stroke-linejoin="round" stroke-width="0.24"/>
        <path id="Trazado_193835" data-name="Trazado 193835" d="M122.437,42.906a1.5,1.5,0,0,0,2.963,0Z" transform="translate(57.489 20.146)" fill="#fff"/>
        <path id="Trazado_193836" data-name="Trazado 193836" d="M118.986,39.738c-.018.386.7.741,1.716.905a7.744,7.744,0,0,0,.967.093,7.384,7.384,0,0,0,1.132-.043c.948-.11,1.618-.4,1.634-.769.015-.341-.538-.655-1.37-.839a7.348,7.348,0,0,0-1.314-.157,7.548,7.548,0,0,0-1.206.05c-.908.118-1.543.4-1.559.76" transform="translate(55.869 18.276)" fill="#fff"/>
        <path id="Trazado_193837" data-name="Trazado 193837" d="M119.85,39.645a1.181,1.181,0,0,0,.447,1,8.063,8.063,0,0,0,.967.093,7.769,7.769,0,0,0,1.132-.043,1.187,1.187,0,0,0,.486-.849,1.115,1.115,0,0,0-.222-.758,7.325,7.325,0,0,0-1.314-.159,7.522,7.522,0,0,0-1.205.051,1.143,1.143,0,0,0-.291.666" transform="translate(56.273 18.276)" fill="#2d1a14"/>
        <path id="Trazado_193838" data-name="Trazado 193838" d="M123.954,39.764c-.018.386.7.741,1.716.905a7.739,7.739,0,0,0,.967.093,7.382,7.382,0,0,0,1.132-.043c.948-.11,1.618-.4,1.634-.769.015-.339-.538-.655-1.37-.838a7.209,7.209,0,0,0-1.314-.159,7.722,7.722,0,0,0-1.206.05c-.908.118-1.543.4-1.559.76" transform="translate(58.201 18.288)" fill="#fff"/>
        <path id="Trazado_193839" data-name="Trazado 193839" d="M124.819,39.671a1.181,1.181,0,0,0,.447,1,8.059,8.059,0,0,0,.967.093,7.767,7.767,0,0,0,1.132-.043,1.187,1.187,0,0,0,.486-.849,1.114,1.114,0,0,0-.222-.758,7.324,7.324,0,0,0-1.314-.159A7.521,7.521,0,0,0,125.11,39a1.143,1.143,0,0,0-.291.666" transform="translate(58.606 18.288)" fill="#2d1a14"/>
        <path id="Trazado_193840" data-name="Trazado 193840" d="M136.624,41.135q-.009.567-.025,1.132c-.032,1.687-.071,3.378-.1,5.06a4.684,4.684,0,0,1-1.972-2.116,9.24,9.24,0,0,1-.813-4.415c.106-2.494.758-5.011.27-7.461-.151-.77-.542-1.63-1.308-1.774s-1.471.545-1.777,1.271a14.444,14.444,0,0,1-.83,2.212,3.277,3.277,0,0,1-3.846,1.046,6.256,6.256,0,0,1-3.067-2.9c-.3-.507-.6-1.085-1.161-1.276-.745-.248-1.514.344-1.954.993a6.61,6.61,0,0,0-1.007,3.124,13.766,13.766,0,0,0-.019,2.044c.034.5.081,1,.123,1.5a17.876,17.876,0,0,1,.1,3.85,9.178,9.178,0,0,1-1.777,4.415c-.115.148-.231.291-.356.429a.788.788,0,0,1-.065.082c.009-.106.019-.206.024-.31s.015-.212.019-.316c.01-.176.015-.359.015-.535,0-.157,0-.316,0-.473a24.052,24.052,0,0,0-.841-5.312,3.641,3.641,0,0,1,.8.458v-.176l-.019-2.169L117,36.53c0-.162,0-.329.012-.492,0-.081,0-.162.007-.242.006-.057.012-.125.016-.187s.009-.129.015-.191a.145.145,0,0,0,0-.043c0-.044.009-.082.015-.121s.009-.1.013-.138a.364.364,0,0,0,.018-.087,1.719,1.719,0,0,1,.031-.2,1,1,0,0,1,.028-.172l.015-.1c.029-.134.057-.267.087-.4.019-.072.038-.144.051-.216s.034-.138.056-.2.04-.129.054-.2l0,0c.024-.068.043-.129.062-.2s.044-.129.068-.2.043-.129.068-.191a9.772,9.772,0,0,1,.554-1.223c.085-.163.176-.325.27-.478a1.778,1.778,0,0,1,.112-.182c.1-.162.21-.319.316-.478a.381.381,0,0,0,.051-.062,3.676,3.676,0,0,1,.263-.344c.056-.066.11-.138.168-.206l.013-.019a9.66,9.66,0,0,1,15.865,1.462,8.773,8.773,0,0,1,.652,1.342,10.008,10.008,0,0,1,.694,3.593Z" transform="translate(54.582 12.428)" fill="#2d1a14"/>
        <path id="Trazado_193841" data-name="Trazado 193841" d="M102.607,219.921H102.6a15.929,15.929,0,0,1-15.928-15.928V116.236h31.863v87.757a15.929,15.929,0,0,1-15.928,15.928" transform="translate(40.696 54.577)" fill="#cca593"/>
        <path id="Trazado_193842" data-name="Trazado 193842" d="M156.264,58.276s-22.992,58.967-51.159,94.211" transform="translate(49.351 27.363)" fill="none" stroke="#cca593" stroke-linecap="round" stroke-linejoin="round" stroke-width="5.88"/>
        <line id="Línea_1933" data-name="Línea 1933" x2="32.762" transform="translate(127.01 199.615)" fill="none" stroke="#2d1a14" stroke-miterlimit="10" stroke-width="4.41"/>
        <line id="Línea_1934" data-name="Línea 1934" x2="31.861" transform="translate(127.46 208.975)" fill="none" stroke="#2d1a14" stroke-miterlimit="10" stroke-width="4.41"/>
        <line id="Línea_1935" data-name="Línea 1935" x2="31.682" transform="translate(127.55 251.098)" fill="none" stroke="#2d1a14" stroke-miterlimit="10" stroke-width="4.41"/>
        <path id="Trazado_193843" data-name="Trazado 193843" d="M87.041,160.67l7.649-14.9,7.65,15.3-7.65,17.111Z" transform="translate(40.869 68.446)" fill="#2d1a14"/>
        <path id="Trazado_193844" data-name="Trazado 193844" d="M97.452,160.944l7.649-14.9,7.65,15.3-7.65,17.111Z" transform="translate(45.757 68.575)" fill="#2d1a14"/>
        <path id="Trazado_193845" data-name="Trazado 193845" d="M123.149,151a19.81,19.81,0,0,0,12.725-10.241" transform="translate(57.823 66.094)" fill="none" stroke="#472a1c" stroke-linecap="round" stroke-linejoin="round" stroke-width="0.354"/>
        <path id="Trazado_193846" data-name="Trazado 193846" d="M79.29,45.633S56.807,21.94,49.868,5.525c0,0,22.221,21.748,47.782,24.267" transform="translate(23.415 2.594)" fill="none" stroke="#211d1d" stroke-linecap="round" stroke-linejoin="round" stroke-width="0.365"/>
        <path id="Trazado_193847" data-name="Trazado 193847" d="M183.617,43.428S206.1,19.735,213.039,3.32c0,0-22.221,21.748-47.782,24.268" transform="translate(77.595 1.559)" fill="none" stroke="#211d1d" stroke-linecap="round" stroke-linejoin="round" stroke-width="0.365"/>
      </g>
    </g>
  </g>
</svg>
