<svg xmlns="http://www.w3.org/2000/svg" xmlns:xlink="http://www.w3.org/1999/xlink" width="610" height="509" viewBox="0 0 610 509">
  <defs>
    <clipPath id="clip-path">
      <rect id="Rect치ngulo_44430" data-name="Rect치ngulo 44430" width="295.958" height="310.5" fill="#de9783"/>
    </clipPath>
  </defs>
  <g id="Grupo_145673" data-name="Grupo 145673" transform="translate(-180 -5773)">
    <rect id="Rect치ngulo_44133" data-name="Rect치ngulo 44133" width="610" height="509" transform="translate(180 5773)" fill="#e8a390"/>
    <g id="Grupo_145561" data-name="Grupo 145561" transform="translate(485 5783.5)">
      <g id="Grupo_145560" data-name="Grupo 145560" transform="translate(0 0)" clip-path="url(#clip-path)">
        <path id="Trazado_199805" data-name="Trazado 199805" d="M91.826,36.356C71.1,53.168,49.55,72.2,32.505,92.774a4.367,4.367,0,0,0,6.172,6.172C59.456,81.611,79.157,61.972,98.867,43.4c4.757-4.484-2.168-10.994-7.041-7.041" transform="translate(52.643 59.025)" fill="#de9783"/>
        <path id="Trazado_199806" data-name="Trazado 199806" d="M66.351,48.771A118.7,118.7,0,0,0,46.463,70.34c-1.871,2.715,1.86,6.464,4.58,4.58a118.584,118.584,0,0,0,21.51-19.948,4.388,4.388,0,0,0-6.2-6.2" transform="translate(77.212 79.921)" fill="#de9783"/>
        <path id="Trazado_199807" data-name="Trazado 199807" d="M100.414,29.367C86.8,41.818,73.391,54.487,60.315,67.5c-11.967,11.91-25.364,23.778-34.6,38-1.27,1.954,1.351,4.813,3.331,3.334C42.68,98.663,53.907,85.11,66.007,73.194q19.719-19.425,40.158-38.076c3.875-3.535-1.892-9.281-5.751-5.751" transform="translate(42.637 47.482)" fill="#de9783"/>
        <path id="Trazado_199808" data-name="Trazado 199808" d="M52.534,76.239C38.083,66.323,24.72,55.093,11.229,43.931,8.892,42,4.743,44.5,6.7,47.42c10.484,15.649,24.579,28,40.442,38.038,5.867,3.709,11-5.371,5.39-9.219" transform="translate(10.402 72.66)" fill="#de9783"/>
        <path id="Trazado_199809" data-name="Trazado 199809" d="M55.83,70.791c-4.816-6.427-12.007-11.278-18.348-16.169C30.192,49,22.69,43.427,15.02,38.34c-2.8-1.855-5.687,2.211-3.492,4.524,6.038,6.36,12.486,12.508,18.953,18.434,5.888,5.4,12.058,12.025,19.2,15.638,3.6,1.817,9.072-2.241,6.145-6.145" transform="translate(18.068 63.623)" fill="#de9783"/>
        <path id="Trazado_199810" data-name="Trazado 199810" d="M58.328,62.579C46.214,52.764,33.6,43.571,20.737,34.77c-2.509-1.721-5.54,2.192-3.259,4.224C29.12,49.368,41.084,59.395,53.528,68.8c3.556,2.688,8.295-3.39,4.8-6.22" transform="translate(28.011 57.7)" fill="#de9783"/>
        <path id="Trazado_199811" data-name="Trazado 199811" d="M97.793,61.085c-7.043.343-14.1.614-21.135,1.077-.107.008-.2.038-.306.051-6.727-5.743-13.612-11.3-20.015-16.97C41.849,32.416,27.551,19.217,12.556,6.985c-4.076-3.326-9.881,2.139-5.9,5.9,14.617,13.821,30.156,26.782,45.323,40,5.207,4.54,10.369,9.4,15.619,14.2a2.277,2.277,0,0,0-.182.651,234.878,234.878,0,0,0-.635,23.909,4.2,4.2,0,0,0,4.111,4.111q6.46.358,12.923.713c3.894.214,8.118,1.051,11.833-.3a3.814,3.814,0,0,0,2.109-2.05,2.278,2.278,0,0,0,1.182-1.562c2.23-9.107,2.594-18.281,2.7-27.629a3.884,3.884,0,0,0-3.846-3.846" transform="translate(8.938 10.004)" fill="#de9783"/>
        <path id="Trazado_199812" data-name="Trazado 199812" d="M9.645.909A6.413,6.413,0,0,0,3.183.842,6.69,6.69,0,0,0,.018,6.3c-.225,2.09,1.718,4.411,3.7,4.862A5.119,5.119,0,0,0,7.777,10.4,4.946,4.946,0,0,0,11.76,7.366,5.158,5.158,0,0,0,9.645.909" transform="translate(0.001 -0.001)" fill="#de9783"/>
        <path id="Trazado_199813" data-name="Trazado 199813" d="M61.938,36.356C82.666,53.168,104.211,72.2,121.259,92.774a4.367,4.367,0,0,1-6.172,6.172C94.308,81.611,74.607,61.972,54.9,43.4c-4.757-4.484,2.168-10.994,7.041-7.041" transform="translate(89.55 59.025)" fill="#de9783"/>
        <path id="Trazado_199814" data-name="Trazado 199814" d="M61.5,48.771A118.6,118.6,0,0,1,81.386,70.34c1.871,2.715-1.86,6.464-4.58,4.58A118.585,118.585,0,0,1,55.3,54.973a4.388,4.388,0,0,1,6.2-6.2" transform="translate(90.897 79.921)" fill="#de9783"/>
        <path id="Trazado_199815" data-name="Trazado 199815" d="M61.464,29.367c13.609,12.452,27.023,25.12,40.1,38.135,11.967,11.91,25.364,23.778,34.6,38,1.27,1.954-1.351,4.813-3.331,3.334C119.2,98.663,107.971,85.11,95.87,73.194Q76.152,53.769,55.712,35.118c-3.875-3.535,1.892-9.281,5.751-5.751" transform="translate(91.443 47.482)" fill="#de9783"/>
        <path id="Trazado_199816" data-name="Trazado 199816" d="M88.462,76.239c14.451-9.916,27.814-21.146,41.305-32.308,2.337-1.935,6.486.566,4.527,3.489-10.484,15.649-24.579,28-40.442,38.038-5.867,3.709-11-5.371-5.39-9.219" transform="translate(144.56 72.66)" fill="#de9783"/>
        <path id="Trazado_199817" data-name="Trazado 199817" d="M83.376,70.791c4.816-6.427,12.007-11.278,18.348-16.169,7.29-5.62,14.791-11.195,22.462-16.281,2.8-1.855,5.687,2.211,3.492,4.524-6.038,6.36-12.486,12.508-18.953,18.434-5.888,5.4-12.058,12.025-19.2,15.638-3.6,1.817-9.072-2.241-6.145-6.145" transform="translate(138.684 63.623)" fill="#de9783"/>
        <path id="Trazado_199818" data-name="Trazado 199818" d="M78.982,62.579C91.1,52.764,103.711,43.571,116.572,34.77c2.509-1.721,5.54,2.192,3.259,4.224-11.642,10.375-23.606,20.4-36.05,29.805-3.556,2.688-8.295-3.39-4.8-6.22" transform="translate(130.638 57.7)" fill="#de9783"/>
        <path id="Trazado_199819" data-name="Trazado 199819" d="M69.17,64.931c.107,9.348.472,18.522,2.7,27.629a2.289,2.289,0,0,0,1.182,1.565,3.818,3.818,0,0,0,2.109,2.048c3.712,1.353,7.936.517,11.83.3q6.464-.354,12.926-.713a4.2,4.2,0,0,0,4.111-4.109,235.7,235.7,0,0,0-.638-23.912,2.153,2.153,0,0,0-.18-.649c5.25-4.808,10.412-9.667,15.619-14.207,15.167-13.218,30.7-26.179,45.323-40,3.98-3.763-1.825-9.227-5.9-5.9-14.992,12.232-29.291,25.431-43.779,38.258-6.4,5.668-13.288,11.227-20.017,16.97-.1-.013-.2-.043-.3-.051-7.038-.464-14.092-.734-21.135-1.077a3.883,3.883,0,0,0-3.846,3.846" transform="translate(116.211 10.004)" fill="#de9783"/>
        <path id="Trazado_199820" data-name="Trazado 199820" d="M106.291,7.363a4.945,4.945,0,0,0,3.983,3.037,5.124,5.124,0,0,0,4.06.758c1.983-.453,3.924-2.774,3.7-4.862A6.7,6.7,0,0,0,114.87.843a6.424,6.424,0,0,0-6.464.064,5.158,5.158,0,0,0-2.115,6.456" transform="translate(177.904 -0.001)" fill="#de9783"/>
        <path id="Trazado_199821" data-name="Trazado 199821" d="M91.826,120.243C71.1,103.431,49.55,84.4,32.505,63.824a4.367,4.367,0,0,1,6.172-6.172c20.779,17.335,40.48,36.974,60.189,55.55,4.757,4.484-2.168,10.994-7.041,7.041" transform="translate(52.643 94.876)" fill="#de9783"/>
        <path id="Trazado_199822" data-name="Trazado 199822" d="M66.351,84.548A118.608,118.608,0,0,1,46.463,62.979c-1.871-2.715,1.86-6.464,4.58-4.58a118.679,118.679,0,0,1,21.51,19.948,4.388,4.388,0,0,1-6.2,6.2" transform="translate(77.212 97.258)" fill="#de9783"/>
        <path id="Trazado_199823" data-name="Trazado 199823" d="M100.414,137.254C86.8,124.8,73.391,112.133,60.315,99.119c-11.967-11.91-25.364-23.778-34.6-38-1.27-1.954,1.351-4.811,3.331-3.334C42.68,67.958,53.907,81.511,66.007,93.426q19.719,19.425,40.158,38.076c3.875,3.535-1.892,9.281-5.751,5.751" transform="translate(42.637 96.395)" fill="#de9783"/>
        <path id="Trazado_199824" data-name="Trazado 199824" d="M52.534,66.622C38.083,76.539,24.72,87.768,11.229,98.931c-2.337,1.935-6.486-.565-4.527-3.489,10.484-15.649,24.579-28,40.442-38.038,5.867-3.709,11,5.371,5.39,9.219" transform="translate(10.402 94.975)" fill="#de9783"/>
        <path id="Trazado_199825" data-name="Trazado 199825" d="M55.83,69.835C51.013,76.261,43.823,81.112,37.482,86,30.192,91.624,22.69,97.2,15.02,102.285c-2.8,1.855-5.687-2.211-3.492-4.524,6.038-6.36,12.486-12.508,18.953-18.434,5.888-5.4,12.058-12.025,19.2-15.638,3.6-1.817,9.072,2.241,6.145,6.145" transform="translate(18.068 106.252)" fill="#de9783"/>
        <path id="Trazado_199826" data-name="Trazado 199826" d="M58.328,75.295C46.214,85.109,33.6,94.3,20.737,103.1c-2.509,1.721-5.54-2.192-3.259-4.224C29.12,88.5,41.084,78.479,53.528,69.074c3.556-2.688,8.295,3.39,4.8,6.22" transform="translate(28.011 114.924)" fill="#de9783"/>
        <path id="Trazado_199827" data-name="Trazado 199827" d="M101.638,107.953c-.107-9.348-.472-18.522-2.7-27.629a2.278,2.278,0,0,0-1.182-1.562,3.814,3.814,0,0,0-2.109-2.05c-3.712-1.353-7.936-.517-11.83-.3q-6.464.354-12.926.713a4.2,4.2,0,0,0-4.111,4.109,236.468,236.468,0,0,0,.635,23.912,2.235,2.235,0,0,0,.182.649C62.345,110.6,57.183,115.457,51.976,120,36.81,133.215,21.27,146.176,6.653,160c-3.98,3.763,1.825,9.228,5.9,5.9,15-12.232,29.293-25.431,43.782-38.258,6.4-5.668,13.288-11.227,20.017-16.97.1.013.2.043.3.051,7.038.464,14.092.734,21.135,1.077a3.884,3.884,0,0,0,3.846-3.846" transform="translate(8.937 127.612)" fill="#de9783"/>
        <path id="Trazado_199828" data-name="Trazado 199828" d="M11.762,115.571a4.945,4.945,0,0,0-3.983-3.037,5.124,5.124,0,0,0-4.06-.758c-1.983.453-3.924,2.774-3.7,4.862a6.7,6.7,0,0,0,3.165,5.454,6.425,6.425,0,0,0,6.464-.064,5.158,5.158,0,0,0,2.115-6.456" transform="translate(0.001 187.564)" fill="#de9783"/>
        <path id="Trazado_199829" data-name="Trazado 199829" d="M61.938,120.243c20.728-16.812,42.273-35.843,59.321-56.418a4.367,4.367,0,0,0-6.172-6.172C94.308,74.987,74.607,94.626,54.9,113.2c-4.757,4.484,2.168,10.994,7.041,7.041" transform="translate(89.55 94.876)" fill="#de9783"/>
        <path id="Trazado_199830" data-name="Trazado 199830" d="M61.5,84.548A118.511,118.511,0,0,0,81.386,62.979c1.871-2.715-1.86-6.464-4.58-4.58A118.68,118.68,0,0,0,55.3,78.346a4.388,4.388,0,0,0,6.2,6.2" transform="translate(90.897 97.258)" fill="#de9783"/>
        <path id="Trazado_199831" data-name="Trazado 199831" d="M61.464,137.254c13.609-12.452,27.023-25.12,40.1-38.135,11.967-11.91,25.364-23.778,34.6-38,1.27-1.954-1.351-4.811-3.331-3.334C119.2,67.958,107.971,81.511,95.87,93.426Q76.152,112.851,55.712,131.5c-3.875,3.535,1.892,9.281,5.751,5.751" transform="translate(91.443 96.395)" fill="#de9783"/>
        <path id="Trazado_199832" data-name="Trazado 199832" d="M88.462,66.622c14.451,9.916,27.814,21.146,41.305,32.308,2.337,1.935,6.486-.565,4.527-3.489-10.484-15.649-24.579-28-40.442-38.038-5.867-3.709-11,5.371-5.39,9.219" transform="translate(144.56 94.975)" fill="#de9783"/>
        <path id="Trazado_199833" data-name="Trazado 199833" d="M83.376,69.835C88.192,76.261,95.383,81.112,101.724,86c7.29,5.62,14.791,11.195,22.462,16.281,2.8,1.855,5.687-2.211,3.492-4.524-6.038-6.36-12.486-12.508-18.953-18.434-5.888-5.4-12.058-12.025-19.2-15.638-3.6-1.817-9.072,2.241-6.145,6.145" transform="translate(138.684 106.252)" fill="#de9783"/>
        <path id="Trazado_199834" data-name="Trazado 199834" d="M78.982,75.295C91.1,85.109,103.711,94.3,116.572,103.1c2.509,1.721,5.54-2.192,3.259-4.224-11.642-10.375-23.606-20.4-36.05-29.805-3.556-2.688-8.295,3.39-4.8,6.22" transform="translate(130.638 114.924)" fill="#de9783"/>
        <path id="Trazado_199835" data-name="Trazado 199835" d="M73.016,111.8c7.043-.343,14.1-.614,21.135-1.077.107-.008.2-.038.3-.051,6.73,5.743,13.615,11.3,20.017,16.97,14.488,12.827,28.787,26.026,43.782,38.258,4.076,3.326,9.881-2.139,5.9-5.9-14.617-13.821-30.156-26.782-45.323-40-5.207-4.54-10.369-9.4-15.619-14.2a2.278,2.278,0,0,0,.182-.651,235.662,235.662,0,0,0,.635-23.909,4.2,4.2,0,0,0-4.111-4.111q-6.46-.358-12.923-.713c-3.894-.214-8.118-1.051-11.833.3a3.814,3.814,0,0,0-2.109,2.05,2.278,2.278,0,0,0-1.182,1.562c-2.23,9.107-2.594,18.281-2.7,27.629a3.884,3.884,0,0,0,3.846,3.846" transform="translate(116.211 127.612)" fill="#de9783"/>
        <path id="Trazado_199836" data-name="Trazado 199836" d="M108.406,122.026a6.418,6.418,0,0,0,6.464.067,6.7,6.7,0,0,0,3.165-5.454c.222-2.09-1.718-4.411-3.7-4.862a5.123,5.123,0,0,0-4.06.756,4.95,4.95,0,0,0-3.983,3.037,5.158,5.158,0,0,0,2.115,6.456" transform="translate(177.904 187.566)" fill="#de9783"/>
      </g>
    </g>
  </g>
</svg>
