<svg xmlns="http://www.w3.org/2000/svg" xmlns:xlink="http://www.w3.org/1999/xlink" width="565.322" height="452.948" viewBox="0 0 565.322 452.948">
  <defs>
    <clipPath id="clip-path">
      <rect id="Rectángulo_44221" data-name="Rectángulo 44221" width="446.64" height="352.59" fill="none"/>
    </clipPath>
    <clipPath id="clip-path-2">
      <path id="Trazado_193925" data-name="Trazado 193925" d="M125.971,386.2a1.77,1.77,0,0,0,0-3.537,1.77,1.77,0,0,0,0,3.537" transform="translate(-124.262 -382.663)" fill="none"/>
    </clipPath>
    <linearGradient id="linear-gradient" x1="-13.37" y1="43.673" x2="-13.262" y2="43.673" gradientUnits="objectBoundingBox">
      <stop offset="0" stop-color="#f38714"/>
      <stop offset="1" stop-color="#e9311a"/>
    </linearGradient>
    <clipPath id="clip-path-3">
      <path id="Trazado_193926" data-name="Trazado 193926" d="M110.407,562.122a1.813,1.813,0,0,0-.635,2.42l.766,1.531a1.78,1.78,0,0,0,2.42.634,1.812,1.812,0,0,0,.634-2.42l-.765-1.531a1.739,1.739,0,0,0-1.555-.874,1.594,1.594,0,0,0-.865.239" transform="translate(-109.551 -561.883)" fill="none"/>
    </clipPath>
    <linearGradient id="linear-gradient-2" x1="-7.823" y1="27.216" x2="-7.751" y2="27.216" xlink:href="#linear-gradient"/>
    <clipPath id="clip-path-4">
      <path id="Trazado_193927" data-name="Trazado 193927" d="M85.944,410.906a1.788,1.788,0,0,0-1.251.518,1.838,1.838,0,0,0-.518,1.25v.766a1.823,1.823,0,0,0,.518,1.25,1.768,1.768,0,0,0,2.5,0,1.836,1.836,0,0,0,.518-1.25v-.766A1.773,1.773,0,0,0,86,410.905h-.052" transform="translate(-84.175 -410.905)" fill="none"/>
    </clipPath>
    <linearGradient id="linear-gradient-3" x1="-7.409" y1="52.419" x2="-7.32" y2="52.419" xlink:href="#linear-gradient"/>
    <clipPath id="clip-path-7">
      <rect id="Rectángulo_44240" data-name="Rectángulo 44240" width="157.464" height="452.948" transform="translate(0 0)" fill="none"/>
    </clipPath>
  </defs>
  <g id="Grupo_145684" data-name="Grupo 145684" transform="translate(-179.998 -12824.545)">
    <g id="Grupo_145442" data-name="Grupo 145442" transform="translate(0 -130)">
      <path id="Unión_1" data-name="Unión 1" d="M13112.332,12232v-337.8h0V11860a161.086,161.086,0,0,1,3.251-32.246,159.076,159.076,0,0,1,24.073-57.212,160.442,160.442,0,0,1,70.4-57.968,159.142,159.142,0,0,1,30.032-9.322,161.1,161.1,0,0,1,32.245-3.251h6a161.069,161.069,0,0,1,32.245,3.251,159.09,159.09,0,0,1,57.213,24.073,160.49,160.49,0,0,1,57.968,70.393,158.992,158.992,0,0,1,9.325,30.036,161.3,161.3,0,0,1,3.251,32.246v39.091h0V12232Z" transform="translate(12411.996 -75.334) rotate(90)" fill="#f7724a"/>
      <g id="Grupo_145439" data-name="Grupo 145439" transform="translate(298.68 12963)">
        <g id="Grupo_145410" data-name="Grupo 145410">
          <g id="Grupo_145409" data-name="Grupo 145409" clip-path="url(#clip-path)">
            <path id="Trazado_193924" data-name="Trazado 193924" d="M112.91,684.915a1.809,1.809,0,0,0-2.176,1.235l-.555,1.713a1.783,1.783,0,0,0,1.235,2.176,1.809,1.809,0,0,0,2.175-1.235l.555-1.713a1.783,1.783,0,0,0-1.235-2.176" transform="translate(-66.832 -415.685)" fill="#c16c44"/>
          </g>
        </g>
        <g id="Grupo_145412" data-name="Grupo 145412" transform="translate(48.84 150.402)">
          <g id="Grupo_145411" data-name="Grupo 145411" clip-path="url(#clip-path-2)">
            <rect id="Rectángulo_44222" data-name="Rectángulo 44222" width="3.644" height="4.642" transform="translate(-0.655 3.535) rotate(-88.643)" fill="url(#linear-gradient)"/>
          </g>
        </g>
        <g id="Grupo_145414" data-name="Grupo 145414" transform="translate(43.058 220.843)">
          <g id="Grupo_145413" data-name="Grupo 145413" clip-path="url(#clip-path-3)">
            <rect id="Rectángulo_44223" data-name="Rectángulo 44223" width="5.429" height="4.832" transform="translate(-0.348 5.316) rotate(-88.643)" fill="url(#linear-gradient-2)"/>
          </g>
        </g>
        <g id="Grupo_145416" data-name="Grupo 145416" transform="translate(33.084 161.502)">
          <g id="Grupo_145415" data-name="Grupo 145415" clip-path="url(#clip-path-4)">
            <rect id="Rectángulo_44224" data-name="Rectángulo 44224" width="4.407" height="3.639" transform="translate(-0.102 4.322) rotate(-88.642)" fill="url(#linear-gradient-3)"/>
          </g>
        </g>
        <g id="Grupo_145418" data-name="Grupo 145418">
          <g id="Grupo_145417" data-name="Grupo 145417" clip-path="url(#clip-path)">
            <path id="Trazado_193928" data-name="Trazado 193928" d="M82.038,280.163c-9.135-18.519-21.7-35.473-28.057-55.118s-4.913-43.9,10.653-57.472C74.3,159.147,87.5,156.349,98.966,150.6a65.807,65.807,0,0,0,28.277-26.815c4.889-8.945,7.434-19,12.076-28.073,16.1-31.471,59.451-45.387,90.858-29.165,5.686,2.937,11.007,6.708,17.108,8.639,17.518,5.545,35.47-5.1,52.392-12.264,16.774-7.1,35.4-10.983,53.313-7.707s34.922,14.551,42.091,31.294c4.28,10,4.975,21.391,10.286,30.88,7.039,12.577,20.741,19.534,32.561,27.781a136.545,136.545,0,0,1,25.308,22.857c8.505,9.878,15.909,22.436,13.587,35.262-2.9,16.031-19.678,26.156-24.721,41.647-5.251,16.131,3.2,35.038-4.443,50.184-4.053,8.034-11.958,13.383-19.981,17.459-25.888,13.153-55.438,16.492-83.887,22.308-36.289,7.418-72.007,19.2-109.023,20.554-34.535,1.266-69.355-6.361-103.472,1.859-10.028,2.416-24.622,8.62-32.967-.777-6.078-6.844-4.9-19.443-5.225-27.86-.675-17.227-3.348-32.855-11.067-48.5" transform="translate(-30.616 -32.8)" fill="#342f22"/>
            <path id="Trazado_193929" data-name="Trazado 193929" d="M103.2,666.434c-34.933,5.688-70.575,14.088-99.281,34.793-1.613,1.163-3.3,2.513-3.786,4.441-.75,2.993,1.7,5.785,4.1,7.721,16.442,13.251,38.834,15.724,59.9,17.261,19.79,1.445,39.629,2.529,59.285,5.247,20.045,2.772,39.836,7.235,59.925,9.667,39,4.722,78.467,1.733,117.634-1.262,33.665-2.574,67.681-5.214,99.876-15.387,9.2-2.907,18.384-6.521,25.806-12.683s12.913-15.269,12.717-24.914c-.245-12.059-9.317-22.525-20.078-27.972-32.668-16.536-76.852-10.972-112-10.8-43.641.215-87.313,1.335-130.815,5-24.523,2.064-48.983,4.933-73.275,8.889" transform="translate(0 -395.441)" fill="#fef7e9"/>
            <path id="Trazado_193930" data-name="Trazado 193930" d="M638.907,716.233c7.421-6.162,12.912-15.269,12.717-24.914-.245-12.059-9.317-22.525-20.078-27.972-32.668-16.536-76.852-10.971-112-10.8-43.641.215-87.313,1.335-130.815,5q-14.83,1.248-29.623,2.91a44.145,44.145,0,0,0-7.741,13.808c-2.851,8.659-2.212,18.763,3.116,26.16,6.091,8.453,16.962,12,27.3,13.29s20.963.876,30.977,3.751c14,4.018,25.644,14.138,39.664,18.076,22.991,6.457,46.851-4.726,70.6-7.223,25.6-2.692,51.443,4.815,77.034,4.3q6.567-1.667,13.047-3.7c9.2-2.907,18.384-6.521,25.806-12.683" transform="translate(-212.248 -395.441)" fill="#ffddae"/>
            <path id="Trazado_193931" data-name="Trazado 193931" d="M367.151,681.956c-42.255-.586-84.62,10.616-119.761,31.666-3.15,1.887-6.476,4.149-7.315,7.461-1.5,5.932,5.642,10.643,12.081,12.558,30.95,9.206,64.094-4.342,96.664-5.777,20.2-.889,40.222,2.936,60.281,5.217a396.736,396.736,0,0,0,113.123-3.417c15.325-2.693,31.277-6.708,42.135-16.772,1.582-1.466,3.127-3.3,2.849-5.328-.237-1.725-1.739-3.069-3.219-4.192-12.494-9.486-29.071-13.454-45.307-15.334s-32.748-1.954-48.774-4.952c-17.215-3.221-33.83.849-51.348,2.222s-33.827-3.108-51.41-3.352" transform="translate(-145.593 -413.87)" fill="#fee7c5"/>
            <path id="Trazado_193934" data-name="Trazado 193934" d="M451.914,709.382A304.582,304.582,0,0,0,606.969,736.2c20.36-1.869,41.439-6.211,57.361-19.039,3.786-3.051,7.526-7.564,6.243-12.254-.939-3.434-4.285-5.611-7.548-7.034-7.551-3.292-15.892-4.267-24.113-4.8-42.067-2.749-84.243,4.978-126.353,2.986-13.061-.618-25.691-.49-38.583.077q.406-.19.24-.5a29.6,29.6,0,0,0-22.3,13.749" transform="translate(-274.293 -420.299)" fill="#8a472b"/>
            <path id="Trazado_193935" data-name="Trazado 193935" d="M586.223,59.97c-9.2,18.407-101.109,256.064-101.109,256.064s89.549,65.68,202.219,0Z" transform="translate(-294.444 -36.399)" fill="#e1bf9b"/>
            <path id="Trazado_193936" data-name="Trazado 193936" d="M742.363,59.97V237.2l42.35,102.817a216.524,216.524,0,0,0,58.76-23.978Z" transform="translate(-450.584 -36.399)" fill="#d4a980"/>
            <path id="Trazado_193937" data-name="Trazado 193937" d="M636.759,444.707V418.284c-25.755-1.15-43.11-9.117-53.784-16.427-4.976,12.728-9.907,25.366-14.6,37.413,21.982,16.9,49.615,23.52,76.417,24.94Z" transform="translate(-344.98 -243.911)" fill="#ffdebd"/>
            <path id="Trazado_193938" data-name="Trazado 193938" d="M602.048,197.548,652.592,64.634,650.75,59.97c-4.938,9.883-33.724,82.98-59.324,148.556q2.751-7.046,5.54-14.181c1.55,1.062,3.245,2.136,5.082,3.2" transform="translate(-358.971 -36.399)" fill="#ffdebd"/>
            <path id="Trazado_193939" data-name="Trazado 193939" d="M517.839,490.6l1.626-4.174c-18.881,48.449-34.351,88.45-34.351,88.45s2.044,1.5,5.9,3.814l32.07-84.332c-1.779-1.194-3.53-2.442-5.243-3.758" transform="translate(-294.444 -295.241)" fill="#ffdebd"/>
            <path id="Trazado_193940" data-name="Trazado 193940" d="M573.618,443.028l14.439-37.969c-1.837-1.066-3.532-2.141-5.082-3.2q-2.785,7.122-5.54,14.18l-.046.119q-2.718,6.963-5.378,13.786l-.123.315-1.642,4.212L570,435.1l-1.626,4.174c1.713,1.317,3.464,2.564,5.243,3.758" transform="translate(-344.98 -243.911)" fill="#ffefe1"/>
            <path id="Trazado_193941" data-name="Trazado 193941" d="M742.363,432.6v26.423l8.033,19.5c24.961,1.322,49.2-1.869,67.481-5.486l-18.8-47.6c-22.273,6.032-41.051,7.858-56.719,7.159" transform="translate(-450.584 -258.222)" fill="#a46035"/>
            <path id="Trazado_193942" data-name="Trazado 193942" d="M721.529,31.039q-6.958,12.611-14.868,24.651L703.544,47.8q8.917-18.805,16.423-38.237c.807-2.088-2.553-2.992-3.352-.924q-6.806,17.621-14.82,34.731L695.82,28.235V1.679a1.739,1.739,0,0,0-3.476,0V27.133c-1.311,2.986-3.124,7.305-5.349,12.722q-3.488-14.341-6.393-28.818c-.439-2.192-3.791-1.264-3.352.924q3.361,16.766,7.513,33.356-1.452,3.569-3.071,7.581-8.333-14.451-15.841-29.359c-1.005-2-4.005-.241-3,1.755q8.1,16.116,17.192,31.7-.706,1.756-1.437,3.58l15.374,30.206L709.1,61.864l-.882-2.235q8.708-13.071,16.314-26.836c1.082-1.96-1.92-3.716-3-1.755" transform="translate(-402.199 0)" fill="#d86948"/>
            <path id="Trazado_193943" data-name="Trazado 193943" d="M634.784,614.34a185.769,185.769,0,0,0,84.633-.645l-42.35-102.817Z" transform="translate(-385.288 -310.083)" fill="#342f22"/>
            <path id="Trazado_193944" data-name="Trazado 193944" d="M637.924,510.879s-19.75,61.019-67.63,77.293l25.347,26.168Z" transform="translate(-346.145 -310.083)" fill="#a46035"/>
            <path id="Trazado_193945" data-name="Trazado 193945" d="M532.91,848.634a1.739,1.739,0,0,0-2.458,0,1.808,1.808,0,0,0-.509,1.229v.56a1.793,1.793,0,0,0,.509,1.229,1.738,1.738,0,0,0,2.458,0,1.806,1.806,0,0,0,.509-1.229v-.56a1.792,1.792,0,0,0-.509-1.229" transform="translate(-321.654 -514.777)" fill="#c16c44"/>
            <path id="Trazado_193946" data-name="Trazado 193946" d="M631.455,832.462a1.739,1.739,0,0,0,0,3.476,1.739,1.739,0,0,0,0-3.476" transform="translate(-382.248 -505.27)" fill="#c16c44"/>
            <path id="Trazado_193947" data-name="Trazado 193947" d="M465,852.4h-1.679a1.738,1.738,0,1,0,0,3.477H465a1.738,1.738,0,0,0,0-3.477" transform="translate(-280.162 -517.371)" fill="#c16c44"/>
            <path id="Trazado_193948" data-name="Trazado 193948" d="M611.232,877.115a1.738,1.738,0,0,0-2.458,0,1.807,1.807,0,0,0-.509,1.229v.56a1.793,1.793,0,0,0,.509,1.229,1.738,1.738,0,0,0,2.458,0,1.807,1.807,0,0,0,.509-1.229v-.56a1.793,1.793,0,0,0-.509-1.229" transform="translate(-369.192 -532.063)" fill="#c16c44"/>
            <path id="Trazado_193949" data-name="Trazado 193949" d="M684.145,850.975a1.739,1.739,0,0,0,0,3.476,1.739,1.739,0,0,0,0-3.476" transform="translate(-414.229 -516.507)" fill="#c16c44"/>
            <path id="Trazado_193950" data-name="Trazado 193950" d="M776.708,836.734a1.739,1.739,0,0,0,0,3.476,1.739,1.739,0,0,0,0-3.476" transform="translate(-470.411 -507.863)" fill="#c16c44"/>
            <path id="Trazado_193951" data-name="Trazado 193951" d="M837.942,838.159a1.739,1.739,0,0,0,0,3.476,1.739,1.739,0,0,0,0-3.476" transform="translate(-507.577 -508.728)" fill="#c16c44"/>
            <path id="Trazado_193952" data-name="Trazado 193952" d="M929.082,828.19a1.739,1.739,0,0,0,0,3.477,1.739,1.739,0,0,0,0-3.477" transform="translate(-562.896 -502.677)" fill="#c16c44"/>
            <path id="Trazado_193953" data-name="Trazado 193953" d="M1025.917,801.133a1.739,1.739,0,0,0,0,3.477,1.739,1.739,0,0,0,0-3.477" transform="translate(-621.671 -486.255)" fill="#c16c44"/>
            <path id="Trazado_193954" data-name="Trazado 193954" d="M1046.336,692.844a2.657,2.657,0,0,0-1.54-1.225,2.38,2.38,0,0,0-.364,4.434,1.776,1.776,0,0,0,2.138-1.214,2.6,2.6,0,0,0-.234-1.995" transform="translate(-632.821 -419.742)" fill="#c16c44"/>
            <path id="Trazado_193955" data-name="Trazado 193955" d="M1009.967,669.2a1.739,1.739,0,0,0-2.458,0,1.808,1.808,0,0,0-.509,1.229v.56a1.792,1.792,0,0,0,.509,1.229,1.739,1.739,0,0,0,2.458,0,1.806,1.806,0,0,0,.509-1.229v-.56a1.793,1.793,0,0,0-.509-1.229" transform="translate(-611.208 -405.87)" fill="#c16c44"/>
            <path id="Trazado_193956" data-name="Trazado 193956" d="M138.734,769.8a1.739,1.739,0,0,0,0,3.477,1.739,1.739,0,0,0,0-3.477" transform="translate(-83.187 -467.24)" fill="#c16c44"/>
            <path id="Trazado_193957" data-name="Trazado 193957" d="M204.637,714.1a1.763,1.763,0,0,0-2.138-1.214l-1.679.56a1.739,1.739,0,1,0,.924,3.352l1.679-.56a1.769,1.769,0,0,0,1.214-2.138" transform="translate(-121.108 -432.644)" fill="#c16c44"/>
            <path id="Trazado_193958" data-name="Trazado 193958" d="M195.7,798.285a1.739,1.739,0,0,0,0,3.476,1.739,1.739,0,0,0,0-3.476" transform="translate(-117.76 -484.526)" fill="#c16c44"/>
          </g>
        </g>
        <g id="Grupo_145438" data-name="Grupo 145438">
          <g id="Grupo_145437" data-name="Grupo 145437" clip-path="url(#clip-path)">
            <path id="Trazado_193968" data-name="Trazado 193968" d="M949.886,471.871a1.738,1.738,0,0,0-2.458,0,1.806,1.806,0,0,0-.509,1.229v.5a1.791,1.791,0,0,0,.509,1.229,1.737,1.737,0,0,0,2.458,0,1.807,1.807,0,0,0,.509-1.229v-.5a1.793,1.793,0,0,0-.509-1.229" transform="translate(-574.741 -286.097)" fill="#2a455a"/>
            <path id="Trazado_193969" data-name="Trazado 193969" d="M996.149,480.332a1.739,1.739,0,0,0,0,3.477,1.739,1.739,0,0,0,0-3.477" transform="translate(-603.603 -291.542)" fill="#2a455a"/>
            <path id="Trazado_193970" data-name="Trazado 193970" d="M1040.067,432.157a1.748,1.748,0,0,0-1.229-.509,1.81,1.81,0,0,0-1.229.509l-.5.5a1.792,1.792,0,0,0-.509,1.229,1.768,1.768,0,0,0,.509,1.229,1.749,1.749,0,0,0,1.229.509,1.811,1.811,0,0,0,1.229-.509l.5-.5a1.793,1.793,0,0,0,.509-1.229,1.769,1.769,0,0,0-.509-1.229" transform="translate(-629.171 -261.992)" fill="#2a455a"/>
            <path id="Trazado_193971" data-name="Trazado 193971" d="M987.181,435.493a1.739,1.739,0,0,0,0,3.476,1.739,1.739,0,0,0,0-3.476" transform="translate(-598.159 -264.327)" fill="#2a455a"/>
            <path id="Trazado_193972" data-name="Trazado 193972" d="M956.57,531.576h-1.51a1.738,1.738,0,1,0,0,3.477h1.51a1.738,1.738,0,0,0,0-3.477" transform="translate(-578.626 -322.645)" fill="#2a455a"/>
            <path id="Trazado_193973" data-name="Trazado 193973" d="M993.944,558.989a1.807,1.807,0,0,0-1.229-.509h-.5a1.793,1.793,0,0,0-1.229.509,1.737,1.737,0,0,0,0,2.458,1.806,1.806,0,0,0,1.229.509h.5a1.793,1.793,0,0,0,1.229-.509,1.738,1.738,0,0,0,0-2.458" transform="translate(-601.176 -338.975)" fill="#2a455a"/>
            <path id="Trazado_193974" data-name="Trazado 193974" d="M1040.987,511.079a1.739,1.739,0,0,0,0,3.477,1.739,1.739,0,0,0,0-3.477" transform="translate(-630.818 -310.204)" fill="#2a455a"/>
            <path id="Trazado_193975" data-name="Trazado 193975" d="M600.331,359.508a1.739,1.739,0,0,0,0,3.476,1.739,1.739,0,0,0,0-3.476" transform="translate(-363.357 -218.207)" fill="#2a455a"/>
            <path id="Trazado_193976" data-name="Trazado 193976" d="M473.4,359.609l-.536-1.073a1.739,1.739,0,0,0-3.177.415,1.918,1.918,0,0,0,.175,1.339l.536,1.073a1.739,1.739,0,0,0,3.177-.415,1.919,1.919,0,0,0-.175-1.34" transform="translate(-285.048 -217.097)" fill="#2a455a"/>
            <path id="Trazado_193977" data-name="Trazado 193977" d="M543.355,300.91a1.739,1.739,0,0,0,0,3.476,1.739,1.739,0,0,0,0-3.476" transform="translate(-328.775 -182.64)" fill="#2a455a"/>
            <path id="Trazado_193978" data-name="Trazado 193978" d="M492.105,188.965a1.739,1.739,0,0,0,0,3.476,1.739,1.739,0,0,0,0-3.476" transform="translate(-297.669 -114.694)" fill="#92d5ec"/>
            <path id="Trazado_193979" data-name="Trazado 193979" d="M573.22,188.965a1.739,1.739,0,0,0,0,3.476,1.739,1.739,0,0,0,0-3.476" transform="translate(-346.902 -114.694)" fill="#92d5ec"/>
            <path id="Trazado_193980" data-name="Trazado 193980" d="M889.437,191.508h-.613a1.352,1.352,0,1,0,0,2.7h.613a1.352,1.352,0,1,0,0-2.7" transform="translate(-538.658 -116.238)" fill="#92d5ec"/>
            <path id="Trazado_193981" data-name="Trazado 193981" d="M932.573,218.026a1.353,1.353,0,0,0,0,2.7,1.353,1.353,0,0,0,0-2.7" transform="translate(-565.241 -132.333)" fill="#92d5ec"/>
            <path id="Trazado_193982" data-name="Trazado 193982" d="M899.816,266.383a1.353,1.353,0,0,0,0,2.7,1.353,1.353,0,0,0,0-2.7" transform="translate(-545.359 -161.684)" fill="#92d5ec"/>
            <path id="Trazado_193983" data-name="Trazado 193983" d="M931.013,311.62a1.353,1.353,0,0,0,0,2.7,1.353,1.353,0,0,0,0-2.7" transform="translate(-564.294 -189.141)" fill="#92d5ec"/>
            <path id="Trazado_193984" data-name="Trazado 193984" d="M1013.688,317.86a1.353,1.353,0,0,0,0,2.7,1.353,1.353,0,0,0,0-2.7" transform="translate(-614.475 -192.928)" fill="#92d5ec"/>
            <path id="Trazado_193985" data-name="Trazado 193985" d="M150.233,353.4a1.367,1.367,0,0,0-.808-.621,1.413,1.413,0,0,0-.466-.026,1.335,1.335,0,0,0-1.458-.537,1.376,1.376,0,0,0-.944,1.663,2.2,2.2,0,0,0,1.125,1.373,2.172,2.172,0,0,0,2.066,0,1.355,1.355,0,0,0,.621-.808,1.383,1.383,0,0,0-.136-1.042" transform="translate(-88.923 -213.748)" fill="#92d5ec"/>
            <path id="Trazado_193986" data-name="Trazado 193986" d="M190.061,322.54a1.353,1.353,0,0,0,0,2.7,1.353,1.353,0,0,0,0-2.7" transform="translate(-114.567 -195.769)" fill="#92d5ec"/>
            <path id="Trazado_193987" data-name="Trazado 193987" d="M216.579,366.217a1.353,1.353,0,0,0,0,2.7,1.353,1.353,0,0,0,0-2.7" transform="translate(-130.662 -222.279)" fill="#92d5ec"/>
            <path id="Trazado_193988" data-name="Trazado 193988" d="M221.207,319.831a1.376,1.376,0,0,0-1.912,0l-.613.613a1.352,1.352,0,0,0,1.912,1.912l.613-.613a1.368,1.368,0,0,0,0-1.912" transform="translate(-132.495 -193.89)" fill="#92d5ec"/>
            <path id="Trazado_193989" data-name="Trazado 193989" d="M374.129,149.391a1.353,1.353,0,0,0,0,2.7,1.353,1.353,0,0,0,0-2.7" transform="translate(-226.289 -90.674)" fill="#92d5ec"/>
            <path id="Trazado_193990" data-name="Trazado 193990" d="M416.175,115.071a1.376,1.376,0,0,0-1.352,1.352v.613a1.352,1.352,0,1,0,2.7,0v-.613a1.367,1.367,0,0,0-1.352-1.352" transform="translate(-251.781 -69.843)" fill="#92d5ec"/>
            <path id="Trazado_193991" data-name="Trazado 193991" d="M466.163,246.105a1.353,1.353,0,0,0,0,2.7,1.353,1.353,0,0,0,0-2.7" transform="translate(-282.15 -149.376)" fill="#92d5ec"/>
            <path id="Trazado_193992" data-name="Trazado 193992" d="M548.693,251.211a1.374,1.374,0,0,0-.956-.4,1.879,1.879,0,0,0-.192.022,1.345,1.345,0,0,0-.991.144,1.317,1.317,0,0,0-.621.808,1.571,1.571,0,0,0,.387,1.471,1.657,1.657,0,0,0,1.143.471,1.759,1.759,0,0,0,.895-.237,1.5,1.5,0,0,0,.535-.546,1.47,1.47,0,0,0-.2-1.738" transform="translate(-331.337 -152.228)" fill="#92d5ec"/>
            <path id="Trazado_193993" data-name="Trazado 193993" d="M821.82,118.193a1.353,1.353,0,0,0,0,2.7,1.353,1.353,0,0,0,0-2.7" transform="translate(-498.019 -71.738)" fill="#92d5ec"/>
            <path id="Trazado_193994" data-name="Trazado 193994" d="M876.417,154.07a1.353,1.353,0,0,0,0,2.7,1.353,1.353,0,0,0,0-2.7" transform="translate(-531.157 -93.514)" fill="#92d5ec"/>
            <path id="Trazado_193995" data-name="Trazado 193995" d="M466.981,172.961a13.235,13.235,0,1,1,11.155-20.354,20.581,20.581,0,1,0,0,14.238,13.222,13.222,0,0,1-11.155,6.116" transform="translate(-265.994 -84.455)" fill="#ffb000"/>
          </g>
        </g>
      </g>
      <g id="Grupo_145441" data-name="Grupo 145441" transform="translate(305.268 12954.544)">
        <g id="Grupo_145440" data-name="Grupo 145440" transform="translate(0 0.001)" clip-path="url(#clip-path-7)">
          <path id="Trazado_193996" data-name="Trazado 193996" d="M279.021,1209.723v6.79h.011V1114.7h-.011Z" transform="translate(-208.77 -834.043)" fill="#b85823"/>
          <rect id="Rectángulo_44236" data-name="Rectángulo 44236" width="0.037" height="6.79" transform="translate(34.482 375.68)" fill="#b85823"/>
          <rect id="Rectángulo_44237" data-name="Rectángulo 44237" width="0.035" height="6.79" transform="translate(119.407 375.68)" fill="#b85823"/>
          <path id="Trazado_193997" data-name="Trazado 193997" d="M332.3,1209.723V1114.7h-.012v101.815h.012Z" transform="translate(-248.625 -834.043)" fill="#b85823"/>
          <path id="Trazado_193998" data-name="Trazado 193998" d="M242.706,434.9l.057-.01a.447.447,0,0,1,.024-.116l23.755-55.957a.471.471,0,1,1,.867.368l-23.755,55.958,6.653,2.824,29.519,12.531a.471.471,0,0,1,.618-.25l5.53,2.348,4.544-9.549,8.352-19.676c1.6-.712,3.144-1.359,4.593-1.932v-1.7c-1.233.9-2.684,1.887-4.285,2.9l2.7-6.351q.841-.344,1.589-.615v-.109c-.2-.519-.407-1.035-.618-1.561l1.384-3.261.369-.869a46.627,46.627,0,0,0-2.619-41.728c-2.342-5.759-7.379-10.989-14.38-15.314a46.882,46.882,0,0,0-7.739-4.189l-.047.11a95.758,95.758,0,0,0-23.954-6.8,72.025,72.025,0,0,0-4.564,10.693c-2.131-3.6.226-7.094,1.068-11.182q-1.59-.2-3.208-.357v2.106a12.516,12.516,0,1,1-25.033,0v-2.048c-.94.1-1.871.206-2.8.324.846,4.077,3.189,7.559,1.062,11.157a72.115,72.115,0,0,0-4.548-10.664q-2.037.321-4.02.7c0,.022.018.038.021.06.125.847,7.934,52.141,28.865,92.151" transform="translate(-159.985 -255.224)" fill="#ffddae"/>
          <path id="Trazado_193999" data-name="Trazado 193999" d="M254.738,296.532v13.328a12.516,12.516,0,0,0,25.033,0v-4.446c-18.87,10.3-25.033-8.882-25.033-8.882" transform="translate(-190.601 -221.872)" fill="#b85823"/>
          <path id="Trazado_194000" data-name="Trazado 194000" d="M267.563,290.4c-4.882,0-9.354-2.535-12.825-6.741V286.9s6.163,19.178,25.033,8.882V284.373c-3.377,3.774-7.61,6.026-12.208,6.026" transform="translate(-190.601 -212.24)" fill="#98390f"/>
          <path id="Trazado_194001" data-name="Trazado 194001" d="M200.564,197.55c-1.129-3.255-.785-6.329.765-6.867.837-.29,1.852.236,2.789,1.275a29.4,29.4,0,0,1,.268-3.1,4.392,4.392,0,0,0-4.033-.952c-2.809.973-3.734,5.663-2.067,10.473,1.449,4.183,4.381,7.076,6.969,7.122-.184-.959-.349-1.953-.494-2.971-1.462-.145-3.22-2.166-4.2-4.984" transform="translate(-147.741 -140.466)" fill="#b85823"/>
          <path id="Trazado_194002" data-name="Trazado 194002" d="M386.23,190.685c1.552.538,1.9,3.612.767,6.867-1.024,2.956-2.906,5.021-4.406,4.975-.145,1.018-.31,2.013-.494,2.972,2.637.113,5.688-2.818,7.178-7.114,1.667-4.81.742-9.5-2.068-10.473a4.5,4.5,0,0,0-4.22,1.1,30.838,30.838,0,0,1,.249,3.191c.992-1.2,2.1-1.828,2.995-1.516" transform="translate(-285.894 -140.467)" fill="#b85823"/>
          <path id="Trazado_194003" data-name="Trazado 194003" d="M259.439,139.128c4.6,0,8.831-2.251,12.208-6.026a24.729,24.729,0,0,0,1.725-2.164c.847-3.465,2.182-6.838.851-10.9a22.288,22.288,0,0,1,.092-13.1c-5.319-3.522-13.152-11.048-14.9-25.444C257.655,96,249.7,103.54,244.379,107.023a22.244,22.244,0,0,1,.065,13.01c-1.27,3.88-.114,7.129.731,10.429q.687,1.012,1.439,1.925c3.471,4.206,7.943,6.741,12.825,6.741m8.426-33.478c.546,0,.99.881.99,1.969s-.444,1.968-.99,1.968-.99-.881-.99-1.968.443-1.969.99-1.969m-2.21,4.9a.471.471,0,0,1,.59.308l0,.012.025.064.118.254a3.853,3.853,0,0,0,.572.812,4.349,4.349,0,0,0,3.007,1.356.471.471,0,0,1-.071.939,5.3,5.3,0,0,1-3.631-1.659,4.356,4.356,0,0,1-.922-1.5h0a.471.471,0,0,1,.308-.59m-7.664-.836a1.572,1.572,0,0,1,2.97-.263c1.119,2.931-.3,9.628-2.613,9.821-2.531.21-1.1-6.6-.357-9.558m-4.05,13.327a17.855,17.855,0,0,0,2.773.687l.031,0c.119.014.238.026.358.038.2.019.407.034.611.045.476.027.954.034,1.43.02s.952-.055,1.428-.1l.077-.007.106-.022c.268-.053.538-.1.8-.154a16.714,16.714,0,0,0,2.728-.849,2.38,2.38,0,0,1,2.9,1.645,2.416,2.416,0,0,1-1.645,2.9,18.759,18.759,0,0,1-12.851.34,2.413,2.413,0,0,1-1.645-2.9,2.372,2.372,0,0,1,2.9-1.645M250.3,105.65c.547,0,.99.881.99,1.969s-.443,1.968-.99,1.968-.99-.881-.99-1.968.444-1.969.99-1.969m-2.105,7.707a4.393,4.393,0,0,0,2.9-1.243,3.628,3.628,0,0,0,.822-1.242l0-.012h0a.471.471,0,0,1,.9.282,4.361,4.361,0,0,1-.922,1.5,5.3,5.3,0,0,1-3.63,1.659.471.471,0,1,1-.071-.939" transform="translate(-182.477 -60.969)" fill="#b85823"/>
          <path id="Trazado_194004" data-name="Trazado 194004" d="M297.073,199.567c2.316-.193,3.732-6.89,2.613-9.821a1.572,1.572,0,0,0-2.97.263c-.74,2.961-2.174,9.768.357,9.558" transform="translate(-221.202 -141.264)" fill="#98390f"/>
          <path id="Trazado_194005" data-name="Trazado 194005" d="M266.442,181.4c.547,0,.99-.881.99-1.968s-.443-1.969-.99-1.969-.99.881-.99,1.969.444,1.968.99,1.968" transform="translate(-198.617 -132.782)" fill="#1f0f0b"/>
          <path id="Trazado_194006" data-name="Trazado 194006" d="M336.2,181.4c.546,0,.99-.881.99-1.968s-.444-1.969-.99-1.969-.99.881-.99,1.969.443,1.968.99,1.968" transform="translate(-250.813 -132.782)" fill="#1f0f0b"/>
          <path id="Trazado_194007" data-name="Trazado 194007" d="M272.123,246.794a2.413,2.413,0,0,0,1.645,2.9,18.759,18.759,0,0,0,12.851-.34,2.416,2.416,0,0,0,1.645-2.9,2.38,2.38,0,0,0-2.9-1.645,16.74,16.74,0,0,1-2.728.849c-.266.058-.536.1-.8.154l-.106.022-.077.007c-.476.048-.949.089-1.428.1s-.954.008-1.43-.02c-.2-.012-.408-.026-.611-.045-.12-.011-.239-.024-.358-.038l-.031,0a17.882,17.882,0,0,1-2.773-.688,2.372,2.372,0,0,0-2.9,1.645m1.392.763a.471.471,0,0,1,.573-.341s.128.033.379.085.616.122,1.073.192a24.32,24.32,0,0,0,3.637.28,16.378,16.378,0,0,0,6.648-1.266.471.471,0,1,1,.386.859,17.306,17.306,0,0,1-7.035,1.349,23.9,23.9,0,0,1-5.32-.586.471.471,0,0,1-.341-.572" transform="translate(-203.557 -183.077)" fill="#98390f"/>
          <path id="Trazado_194008" data-name="Trazado 194008" d="M278.153,253.429h0a23.936,23.936,0,0,0,5.32.586,17.3,17.3,0,0,0,7.035-1.349.471.471,0,1,0-.387-.859,16.383,16.383,0,0,1-6.648,1.266,24.36,24.36,0,0,1-3.637-.28c-.457-.07-.823-.14-1.073-.192s-.379-.085-.379-.085a.471.471,0,1,0-.231.913" transform="translate(-207.855 -188.377)" fill="#1f0f0b"/>
          <path id="Trazado_194009" data-name="Trazado 194009" d="M259.8,200.608a5.3,5.3,0,0,0,3.63-1.659,4.362,4.362,0,0,0,.922-1.5.471.471,0,0,0-.9-.282h0l0,.012a3.624,3.624,0,0,1-.822,1.243,4.391,4.391,0,0,1-2.9,1.243.471.471,0,1,0,.072.939" transform="translate(-194.009 -147.281)" fill="#1f0f0b"/>
          <path id="Trazado_194010" data-name="Trazado 194010" d="M329.073,197.453a4.353,4.353,0,0,0,.922,1.5,5.3,5.3,0,0,0,3.631,1.659.471.471,0,0,0,.071-.939,4.349,4.349,0,0,1-3.007-1.356,3.844,3.844,0,0,1-.572-.812l-.118-.254-.024-.064,0-.012a.471.471,0,0,0-.9.282Z" transform="translate(-246.204 -147.281)" fill="#1f0f0b"/>
          <rect id="Rectángulo_44238" data-name="Rectángulo 44238" width="35.732" height="6.79" transform="translate(34.519 375.68)" fill="#98390f"/>
          <rect id="Rectángulo_44239" data-name="Rectángulo 44239" width="35.732" height="6.79" transform="translate(83.675 375.68)" fill="#98390f"/>
          <path id="Trazado_194011" data-name="Trazado 194011" d="M36.042,1519.086H32.085v49.693l-21.237,8.032a13.635,13.635,0,0,0-8.812,12.754H61.143a10.643,10.643,0,0,0,10.643-10.644v-59.834H36.042Z" transform="translate(-1.523 -1136.616)" fill="#1f0f0b"/>
          <path id="Trazado_194012" data-name="Trazado 194012" d="M332.3,1519.086h-.012v59.834a10.644,10.644,0,0,0,10.644,10.644h59.106a13.634,13.634,0,0,0-8.813-12.754l-21.236-8.031v-49.693H332.3Z" transform="translate(-248.625 -1136.616)" fill="#1f0f0b"/>
          <path id="Trazado_194013" data-name="Trazado 194013" d="M231.616,20.357c10.063,0,18.413,8.477,20.164,19.65,0,.019.008.037.011.055,3.188-3.689,6.076-9.1,2.74-12.712C240.023,11.624,244.04,0,231.289,0s-8.83,12.834-22.935,27.349c-3.655,3.762-.762,9.373,2.971,13.237.015.015.028.031.043.046,1.531-11.481,10-20.276,20.249-20.276" transform="translate(-154.635 -0.001)" fill="#ffddae"/>
          <path id="Trazado_194014" data-name="Trazado 194014" d="M132.817,1196.479v-95.025c-16.871-.349-31.881-2-42.645-4.457l-6.552,99.482h49.2Z" transform="translate(-62.566 -820.799)" fill="#eebc80"/>
          <path id="Trazado_194015" data-name="Trazado 194015" d="M332.336,1196.479h49.2L374.981,1097c-10.764,2.458-25.774,4.108-42.645,4.457Z" transform="translate(-248.662 -820.799)" fill="#eebc80"/>
          <path id="Trazado_194016" data-name="Trazado 194016" d="M172.238,769.719h-.394a47.648,47.648,0,0,1-10.172-1.1c-2.953,4.831-15.916,23.808-36.866,23.284l-.008.007c-.045,0-.092-.006-.138-.007-.21-.006-.424-.022-.637-.032-.461-.022-.926-.051-1.395-.092-.243-.022-.488-.047-.734-.074-.472-.051-.949-.115-1.429-.187-.221-.033-.441-.063-.664-.1-.7-.118-1.4-.251-2.116-.414h0a46.314,46.314,0,0,1-11.968-4.676h0c-.811-.445-1.626-.909-2.453-1.415-.859-.526-1.678-1.1-2.478-1.685l0,0c-9.419-6.93-14.866-18.1-17.718-31.013a32.555,32.555,0,0,1-18-15.778.452.452,0,0,1-.06.041l-6.346,2.694a.471.471,0,0,1-.618-.25l-4.4-10.372a.467.467,0,0,1-.007-.341c-2.211-.795-4.732-1.836-7.376-3.08-1.7-.8-3.29-1.607-4.756-2.4v85.031c0,3.54,6.5,6.766,17.158,9.2,10.764,2.458,25.774,4.108,42.645,4.457h.011q3.306.068,6.7.069t6.7-.069h.012c16.871-.349,31.881-2,42.645-4.457,10.662-2.434,17.158-5.661,17.158-9.2V769.63a13.389,13.389,0,0,1-1.639.111c-.311,0-.535-.014-.649-.022" transform="translate(-31.048 -540.764)" fill="#ffddae"/>
          <path id="Trazado_194017" data-name="Trazado 194017" d="M41.5,679.753v.321c1,.385,2.044.81,3.128,1.273q-1.63-.8-3.128-1.594" transform="translate(-31.048 -508.607)" fill="#ffddae"/>
          <path id="Trazado_194018" data-name="Trazado 194018" d="M41.5,701.111v.229c.46.158.929.325,1.411.5q-.722-.368-1.411-.733" transform="translate(-31.048 -524.588)" fill="#ffddae"/>
          <path id="Trazado_194019" data-name="Trazado 194019" d="M452.357,767.608l.125.006a9.468,9.468,0,0,0,2.115-.113V723.267c-1.4.752-2.908,1.515-4.507,2.267-2.643,1.243-5.162,2.284-7.372,3.078a.47.47,0,0,1-.018.361l-4.935,10.372a.47.47,0,0,1-.609.231l-5.945-2.524h0c-.011,0-.017-.013-.027-.018a32.507,32.507,0,0,1-15.373,14.549c10.163,9.8,22.113,16.027,36.1,16.027l.45,0" transform="translate(-311.119 -541.166)" fill="#ffddae"/>
          <path id="Trazado_194020" data-name="Trazado 194020" d="M558.453,681.738c.992-.423,1.952-.816,2.872-1.174v-.284c-.918.482-1.879.969-2.872,1.459" transform="translate(-417.848 -509.001)" fill="#ffddae"/>
          <path id="Trazado_194021" data-name="Trazado 194021" d="M565.245,702.239c.394-.146.783-.288,1.162-.42v-.18c-.379.2-.769.4-1.162.6" transform="translate(-422.93 -524.983)" fill="#ffddae"/>
          <path id="Trazado_194022" data-name="Trazado 194022" d="M575.547,646.347q1.249-.463,2.359-.829-.514-1.382-1.06-2.8a24.788,24.788,0,0,1-2.019,1.741c.241.633.488,1.272.72,1.892" transform="translate(-430.099 -480.894)" fill="#eebc80"/>
          <path id="Trazado_194023" data-name="Trazado 194023" d="M583.7,669.833c.877-.285,1.679-.518,2.4-.7q-.245-.7-.5-1.417c-.674.417-1.406.85-2.184,1.3.1.279.188.545.285.822" transform="translate(-436.524 -499.6)" fill="#eebc80"/>
          <path id="Trazado_194024" data-name="Trazado 194024" d="M589.934,687.721a7.605,7.605,0,0,1,2.557-.165c-.285-.9-.574-1.8-.883-2.723-.629.447-1.351.925-2.155,1.426.163.491.325.98.481,1.463" transform="translate(-441.043 -512.408)" fill="#eebc80"/>
          <path id="Trazado_194025" data-name="Trazado 194025" d="M369.916,997.393c-.21-.006-.425-.022-.637-.032.212.01.426.026.637.032" transform="translate(-276.303 -746.249)" fill="#eebc80"/>
          <path id="Trazado_194026" data-name="Trazado 194026" d="M353.179,995.661c-.221-.033-.441-.063-.664-.1.223.038.443.067.664.1" transform="translate(-263.76 -744.902)" fill="#eebc80"/>
          <path id="Trazado_194027" data-name="Trazado 194027" d="M361.559,996.775c-.243-.021-.489-.047-.734-.074.246.027.491.052.734.074" transform="translate(-269.978 -745.755)" fill="#eebc80"/>
          <path id="Trazado_194028" data-name="Trazado 194028" d="M371.7,702.153c7.86,25.591,5.584,37.642,1.49,43.29a11.717,11.717,0,0,1-7.811,4.852,9.49,9.49,0,0,1-2.115.113l-.125-.006-.45,0c-13.983,0-25.934-6.228-36.1-16.027-.182.083-.365.163-.549.242.856.774,1.707,1.527,2.544,2.231-11.52,18.758-24.206,28.233-32.016,32.679a46.312,46.312,0,0,0,11.967,4.675c7.813-5.782,17.994-15.711,27-32.073,1.485,1.012,2.911,1.913,4.262,2.71-7.9,14.349-16.639,23.955-24.138,30.264,20.95.524,33.913-18.454,36.866-23.284a47.652,47.652,0,0,0,10.172,1.1h.394c.114.009.337.022.649.022a13.386,13.386,0,0,0,1.639-.11,14.171,14.171,0,0,0,9.807-5.856c4.505-6.163,7.1-19.2-1.469-46.7a9.481,9.481,0,0,1-2.016,1.882" transform="translate(-221.901 -523.959)" fill="#eebc80"/>
          <path id="Trazado_194029" data-name="Trazado 194029" d="M568.023,622.507l.038.1a20.559,20.559,0,0,1,2.406-.732q-.805-2.051-1.678-4.185l-1.384,3.26c.211.527.414,1.043.618,1.562" transform="translate(-424.546 -462.167)" fill="#eebc80"/>
          <path id="Trazado_194030" data-name="Trazado 194030" d="M206.36,396.158l5.32,12.531c2.543-.824,5.194-1.794,7.946-2.94q.806,2.468,1.645,4.828c-2.619,1.091-5.148,2.024-7.587,2.831l3.737,8.8c2.3-.9,4.669-1.9,7.113-3.065q.977,2.39,1.982,4.667c-2.436,1.159-4.8,2.178-7.1,3.089l4.051,9.543c0,.005,0,.011,0,.016l6.244,1.135,5.634-1.024c-20.931-40.01-28.74-91.3-28.865-92.151,0-.022-.017-.039-.021-.06a1.239,1.239,0,0,0-1.4-1,1.256,1.256,0,0,0-1.06,1.425c0,.007.008.051.013.084.151,1,2.138,13.9,6.582,31.448-.969,3.872-2.625,10.932-4.228,19.84" transform="translate(-152.623 -256.901)" fill="#eebc80"/>
          <path id="Trazado_194031" data-name="Trazado 194031" d="M227.311,836.985a32.512,32.512,0,0,1-20.715-.425c2.852,12.913,8.3,24.083,17.718,31.013,6.46-3.309,19.637-11.885,31.707-30.775a32.49,32.49,0,0,1-20,.187l-.113.273-4.243-1.8-4.243,1.8Z" transform="translate(-154.58 -625.107)" fill="#eebc80"/>
          <path id="Trazado_194032" data-name="Trazado 194032" d="M276.966,868.5h0l0,0c.8.589,1.62,1.159,2.478,1.685.826.506,1.642.97,2.453,1.415h0c7.81-4.446,20.5-13.921,32.016-32.679-.837-.7-1.687-1.457-2.543-2.231q-1.327.576-2.7,1.032c-12.07,18.89-25.247,27.466-31.707,30.775" transform="translate(-207.232 -626.032)" fill="#1f0f0b"/>
          <path id="Trazado_194033" data-name="Trazado 194033" d="M344.1,898.6c.714.163,1.418.3,2.116.414.223.038.443.068.664.1.48.072.956.135,1.429.187.245.027.49.052.734.074.469.041.933.07,1.395.092.212.01.426.026.637.032l.138.007.008-.007c7.5-6.308,16.239-15.915,24.138-30.264-1.351-.8-2.776-1.7-4.262-2.71-9,16.362-19.185,26.292-27,32.073h0" transform="translate(-257.465 -648.355)" fill="#1f0f0b"/>
          <path id="Trazado_194034" data-name="Trazado 194034" d="M135.089,771.047a32.61,32.61,0,0,0,38.718,16.2l.113.273,4.243-1.8-39.382-16.736-3.5,1.487a.465.465,0,0,1-.189.576" transform="translate(-101.077 -575.372)" fill="#98390f"/>
          <path id="Trazado_194035" data-name="Trazado 194035" d="M312.755,713.83a.471.471,0,0,1-.618.25.465.465,0,0,1-.273-.5l-.057.01-5.634,1.023,13.095,2.379.14-.337Z" transform="translate(-229.086 -533.916)" fill="#98390f"/>
          <path id="Trazado_194036" data-name="Trazado 194036" d="M557.128,634.543q-.748.271-1.589.615l-2.7,6.351c1.6-1.015,3.052-2,4.284-2.9.449-.33.86-.645,1.25-.953a24.863,24.863,0,0,0,2.019-1.741c.953-.939,1.4-1.648,1.188-2.018-.19-.336-.912-.347-2.014-.1a20.555,20.555,0,0,0-2.406.732l-.038.014" transform="translate(-413.651 -474.094)" fill="#98390f"/>
          <path id="Trazado_194037" data-name="Trazado 194037" d="M531.393,651.676c-1.449.573-2.989,1.22-4.593,1.932l-8.352,19.676.2-.415a.471.471,0,0,1,.868.044c2.21-.794,4.729-1.836,7.372-3.078,1.6-.752,3.11-1.515,4.507-2.267a51.653,51.653,0,0,0,6.322-3.908,9.484,9.484,0,0,0,2.017-1.882c.233-.339.327-.623.231-.827a.782.782,0,0,0-.6-.337,7.605,7.605,0,0,0-2.557.165,38.983,38.983,0,0,0-5.414,1.523c-.379.132-.768.274-1.162.42.393-.2.783-.4,1.162-.6,1.849-.973,3.515-1.923,4.933-2.805.8-.5,1.526-.978,2.155-1.426,1.944-1.383,2.993-2.473,2.743-3-.238-.506-1.62-.424-3.735.112q-1.079.274-2.4.7c-1.126.366-2.369.813-3.7,1.33-.921.359-1.881.751-2.872,1.174.992-.49,1.954-.977,2.872-1.459q1.826-.957,3.412-1.868c.779-.446,1.51-.879,2.185-1.3,3.392-2.1,5.385-3.771,5.067-4.447-.308-.656-2.735-.234-6.334.957q-1.111.368-2.359.829c-.633.234-1.292.488-1.97.756" transform="translate(-387.915 -485.466)" fill="#98390f"/>
          <path id="Trazado_194038" data-name="Trazado 194038" d="M46.792,432.61c-1.876-5.542-2.447-10.183-1.247-10.62,1.286-.468,4.115,4.058,6.318,10.108.342.939.644,1.855.913,2.741L85.5,440.786l-23.52-55.4a.471.471,0,0,1,.867-.368L69.5,400.682c1.6-8.908,3.259-15.968,4.228-19.84-4.443-17.549-6.43-30.444-6.581-31.448a90.311,90.311,0,0,0-17.524,5.667l-.092-.218a46.692,46.692,0,0,0-11,6.581,33.146,33.146,0,0,0-9.93,10.978A46.649,46.649,0,0,0,24.8,416.074l1.418,3.34v2.368a81.7,81.7,0,0,1,11.8,5.634c3.274,1.847,6.327,3.634,8.779,5.194" transform="translate(-15.766 -261.425)" fill="#ffddae"/>
          <path id="Trazado_194039" data-name="Trazado 194039" d="M50.209,658.275a90.4,90.4,0,0,1-8.713-5.6v1.785c2.336.917,4.92,2.028,7.62,3.3.37.174.73.348,1.093.523" transform="translate(-31.048 -488.343)" fill="#ffddae"/>
          <path id="Trazado_194040" data-name="Trazado 194040" d="M103.776,752.982a.471.471,0,0,1,.618.25h0l3.5-1.487L95.546,746.5c-.545-.16-1.127-.346-1.735-.552l4.053,9.548Z" transform="translate(-70.192 -558.134)" fill="#ffddae"/>
          <path id="Trazado_194041" data-name="Trazado 194041" d="M101.231,687.823l-.22-.1.2.111.018-.01" transform="translate(-75.579 -514.57)" fill="#ffddae"/>
          <path id="Trazado_194042" data-name="Trazado 194042" d="M10.448,645.224q1.494.788,3.128,1.593c-1.084-.463-2.13-.888-3.128-1.273-5.28-2.037-9.165-2.932-9.581-2.046-.468.994,3.576,3.922,9.581,7.1q.689.365,1.411.733c-.482-.179-.951-.346-1.411-.5-4.552-1.566-7.927-2.1-8.321-1.267-.455.97,3.041,3.618,8.321,6.481,1.465.8,3.06,1.605,4.756,2.4,2.644,1.243,5.165,2.285,7.376,3.079a.466.466,0,0,1,.256-.276.471.471,0,0,1,.618.25l.166.39c.608.206,1.19.392,1.735.552L37.7,667.69l39.382,16.736,4.243,1.8.113-.273a32.489,32.489,0,0,0,20-.187q1.373-.456,2.7-1.031c.184-.08.367-.159.549-.242a32.505,32.505,0,0,0,15.373-14.549.468.468,0,0,1-.223-.6h0l-29.52-12.531-.14.337-13.095-2.379-6.244-1.135a.469.469,0,0,1-.87.352l-.235-.553L37.01,647.493c-.269-.887-.572-1.8-.913-2.741-2.2-6.05-5.032-10.576-6.317-10.108-1.2.438-.629,5.079,1.247,10.62-2.453-1.56-5.5-3.347-8.779-5.194a81.731,81.731,0,0,0-11.8-5.634c-2.35-.833-3.911-1.08-4.208-.555-.368.652,1.3,2.359,4.208,4.524a90.329,90.329,0,0,0,8.713,5.6c-.363-.174-.723-.349-1.093-.523-2.7-1.269-5.284-2.38-7.62-3.3-5.778-2.269-10-3.325-10.414-2.444-.461.98,3.92,4.053,10.414,7.478m15.2,2.107-.018.01-.2-.111.22.1" transform="translate(0 -474.078)" fill="#b85823"/>
          <path id="Trazado_194043" data-name="Trazado 194043" d="M329.033,546.587a.471.471,0,0,0,.618-.25L353.4,490.38a.471.471,0,1,0-.867-.368L328.783,545.97a.458.458,0,0,0-.024.116.465.465,0,0,0,.273.5" transform="translate(-245.981 -366.424)" fill="#1f0f0b"/>
          <path id="Trazado_194044" data-name="Trazado 194044" d="M204.028,536.427c2.3-.911,4.668-1.93,7.1-3.089q-1.006-2.276-1.982-4.667c-2.445,1.16-4.811,2.166-7.113,3.065l-3.737-8.8c2.439-.807,4.968-1.741,7.587-2.832q-.837-2.365-1.645-4.828c-2.752,1.146-5.4,2.115-7.946,2.94l-5.32-12.53-6.651-15.669a.471.471,0,1,0-.867.368l23.52,55.4.235.553a.469.469,0,0,0,.87-.352c0-.005,0-.011,0-.016Z" transform="translate(-137.239 -366.424)" fill="#1f0f0b"/>
          <path id="Trazado_194045" data-name="Trazado 194045" d="M89.6,743.91h0L94,754.282a.471.471,0,0,0,.618.25l6.346-2.695a.485.485,0,0,0,.06-.041.465.465,0,0,0,.189-.576h0a.471.471,0,0,0-.618-.25l-5.912,2.51-4.053-9.548-.166-.39a.471.471,0,0,0-.618-.25.48.48,0,0,0-.249.618" transform="translate(-67.016 -556.121)" fill="#1f0f0b"/>
          <line id="Línea_1939" data-name="Línea 1939" transform="translate(120.091 195.886)" fill="none" stroke="#1f0f0b" stroke-linecap="round" stroke-linejoin="round" stroke-width="0"/>
          <path id="Trazado_194046" data-name="Trazado 194046" d="M482.069,754.532a.47.47,0,0,0,.609-.231l4.935-10.372a.471.471,0,0,0-.85-.4l-.2.415-4.544,9.549-5.53-2.348a.471.471,0,0,0-.618.249h0a.468.468,0,0,0,.223.6c.01.005.016.014.026.018Z" transform="translate(-356.032 -556.122)" fill="#1f0f0b"/>
          <path id="Trazado_194047" data-name="Trazado 194047" d="M216.341,146.759a10.4,10.4,0,0,1,.834-7.147c1.8-3.592,1.291-6.629.524-9.623-.845-3.3-2-6.549-.731-10.429a22.245,22.245,0,0,0-.065-13.011c5.321-3.483,13.275-11.018,15.037-25.538,1.747,14.4,9.58,21.922,14.9,25.444a22.289,22.289,0,0,0-.092,13.1c1.331,4.066,0,7.439-.851,10.9-.7,2.842-1.063,5.747.644,9.148a10.386,10.386,0,0,1,.839,7.122c-.841,4.088-3.2,7.577-1.067,11.182a72.039,72.039,0,0,1,4.564-10.693c.39-.717.8-1.42,1.222-2.093,3.4-5.383-3.332-9.471-1.447-17.05.2-.8.383-1.666.554-2.554.184-.959.349-1.954.494-2.972,1.5.046,3.382-2.019,4.406-4.975,1.128-3.255.785-6.329-.767-6.867-.9-.311-2,.316-2.994,1.516a30.831,30.831,0,0,0-.249-3.191c-.034-.251-.078-.484-.119-.72a44.011,44.011,0,0,0,.172-7.817c-1.751-11.174-10.1-19.65-20.164-19.65-10.249,0-18.718,8.8-20.249,20.277l-.043-.047a44.38,44.38,0,0,0,.161,6.647c-.079.366-.147.754-.206,1.163a29.4,29.4,0,0,0-.267,3.1c-.937-1.04-1.952-1.566-2.789-1.276-1.55.538-1.894,3.612-.765,6.867.976,2.818,2.735,4.839,4.2,4.984.145,1.018.31,2.013.494,2.971.17.885.353,1.744.552,2.546,1.884,7.579-4.845,11.667-1.449,17.05.43.681.843,1.4,1.238,2.122a72.1,72.1,0,0,1,4.548,10.664c2.127-3.6-.216-7.079-1.062-11.157" transform="translate(-155 -60.495)" fill="#1f0f0b"/>
        </g>
      </g>
    </g>
  </g>
</svg>
